<mxfile host="Electron" modified="2025-05-18T15:24:04.816Z" agent="Mozilla/5.0 (Macintosh; Intel Mac OS X 10_15_7) AppleWebKit/537.36 (KHTML, like Gecko) draw.io/21.1.2 Chrome/106.0.5249.199 Electron/21.4.3 Safari/537.36" etag="GQctf8wLfEkdxLrU3HDU" version="21.1.2" type="device">
  <diagram name="Page-1" id="guL8Xm3exVdZD1WiKQIF">
    <mxGraphModel dx="828" dy="547" grid="1" gridSize="10" guides="1" tooltips="1" connect="1" arrows="1" fold="1" page="1" pageScale="1" pageWidth="1100" pageHeight="850" math="0" shadow="0">
      <root>
        <mxCell id="0" />
        <mxCell id="1" parent="0" />
        <mxCell id="WxkMXaj1MNcZUrJeZnWW-1" value="" style="whiteSpace=wrap;html=1;aspect=fixed;strokeWidth=0.5;strokeColor=#808080;fillColor=#000000;fontColor=#000099;" vertex="1" parent="1">
          <mxGeometry x="80" y="160" width="10" height="10" as="geometry" />
        </mxCell>
        <mxCell id="WxkMXaj1MNcZUrJeZnWW-2" value="" style="whiteSpace=wrap;html=1;aspect=fixed;strokeWidth=0.5;strokeColor=#808080;fillColor=#000000;fontColor=#000099;" vertex="1" parent="1">
          <mxGeometry x="90" y="160" width="10" height="10" as="geometry" />
        </mxCell>
        <mxCell id="WxkMXaj1MNcZUrJeZnWW-3" value="" style="whiteSpace=wrap;html=1;aspect=fixed;strokeWidth=0.5;strokeColor=#808080;fillColor=#000000;fontColor=#000099;" vertex="1" parent="1">
          <mxGeometry x="100" y="160" width="10" height="10" as="geometry" />
        </mxCell>
        <mxCell id="WxkMXaj1MNcZUrJeZnWW-4" value="" style="whiteSpace=wrap;html=1;aspect=fixed;strokeWidth=0.5;strokeColor=#808080;fillColor=#000000;fontColor=#000099;" vertex="1" parent="1">
          <mxGeometry x="110" y="160" width="10" height="10" as="geometry" />
        </mxCell>
        <mxCell id="WxkMXaj1MNcZUrJeZnWW-5" value="" style="whiteSpace=wrap;html=1;aspect=fixed;strokeWidth=0.5;strokeColor=#808080;fillColor=#000000;fontColor=#000099;" vertex="1" parent="1">
          <mxGeometry x="120" y="160" width="10" height="10" as="geometry" />
        </mxCell>
        <mxCell id="WxkMXaj1MNcZUrJeZnWW-6" value="" style="whiteSpace=wrap;html=1;aspect=fixed;strokeWidth=0.5;strokeColor=#808080;fillColor=#000000;fontColor=#000099;" vertex="1" parent="1">
          <mxGeometry x="130" y="160" width="10" height="10" as="geometry" />
        </mxCell>
        <mxCell id="WxkMXaj1MNcZUrJeZnWW-7" value="" style="whiteSpace=wrap;html=1;aspect=fixed;strokeWidth=0.5;strokeColor=#808080;fillColor=#000000;fontColor=#000099;" vertex="1" parent="1">
          <mxGeometry x="140" y="160" width="10" height="10" as="geometry" />
        </mxCell>
        <mxCell id="WxkMXaj1MNcZUrJeZnWW-8" value="" style="whiteSpace=wrap;html=1;aspect=fixed;strokeWidth=0.5;strokeColor=#808080;fillColor=#333333;fontColor=#000099;" vertex="1" parent="1">
          <mxGeometry x="80" y="170" width="10" height="10" as="geometry" />
        </mxCell>
        <mxCell id="WxkMXaj1MNcZUrJeZnWW-9" value="" style="whiteSpace=wrap;html=1;aspect=fixed;strokeWidth=0.5;strokeColor=#808080;fillColor=#666666;fontColor=#000099;" vertex="1" parent="1">
          <mxGeometry x="90" y="170" width="10" height="10" as="geometry" />
        </mxCell>
        <mxCell id="WxkMXaj1MNcZUrJeZnWW-10" value="" style="whiteSpace=wrap;html=1;aspect=fixed;strokeWidth=0.5;strokeColor=#808080;fillColor=#999999;fontColor=#000099;" vertex="1" parent="1">
          <mxGeometry x="100" y="170" width="10" height="10" as="geometry" />
        </mxCell>
        <mxCell id="WxkMXaj1MNcZUrJeZnWW-11" value="" style="whiteSpace=wrap;html=1;aspect=fixed;strokeWidth=0.5;strokeColor=#808080;fillColor=#CCCCCC;fontColor=#000099;" vertex="1" parent="1">
          <mxGeometry x="110" y="170" width="10" height="10" as="geometry" />
        </mxCell>
        <mxCell id="WxkMXaj1MNcZUrJeZnWW-12" value="" style="whiteSpace=wrap;html=1;aspect=fixed;strokeWidth=0.5;strokeColor=#808080;fillColor=#FFFFFF;fontColor=#000099;" vertex="1" parent="1">
          <mxGeometry x="120" y="170" width="10" height="10" as="geometry" />
        </mxCell>
        <mxCell id="WxkMXaj1MNcZUrJeZnWW-13" value="" style="whiteSpace=wrap;html=1;aspect=fixed;strokeWidth=0.5;strokeColor=#808080;fillColor=#000000;fontColor=#000099;" vertex="1" parent="1">
          <mxGeometry x="130" y="170" width="10" height="10" as="geometry" />
        </mxCell>
        <mxCell id="WxkMXaj1MNcZUrJeZnWW-14" value="" style="whiteSpace=wrap;html=1;aspect=fixed;strokeWidth=0.5;strokeColor=#808080;fillColor=#000000;fontColor=#000099;" vertex="1" parent="1">
          <mxGeometry x="140" y="170" width="10" height="10" as="geometry" />
        </mxCell>
        <mxCell id="WxkMXaj1MNcZUrJeZnWW-15" value="" style="whiteSpace=wrap;html=1;aspect=fixed;strokeWidth=0.5;strokeColor=#808080;fillColor=#000000;fontColor=#000099;" vertex="1" parent="1">
          <mxGeometry x="80" y="180" width="10" height="10" as="geometry" />
        </mxCell>
        <mxCell id="WxkMXaj1MNcZUrJeZnWW-16" value="" style="whiteSpace=wrap;html=1;aspect=fixed;strokeWidth=0.5;strokeColor=#808080;fillColor=#000000;fontColor=#000099;" vertex="1" parent="1">
          <mxGeometry x="90" y="180" width="10" height="10" as="geometry" />
        </mxCell>
        <mxCell id="WxkMXaj1MNcZUrJeZnWW-17" value="" style="whiteSpace=wrap;html=1;aspect=fixed;strokeWidth=0.5;strokeColor=#808080;fillColor=#000000;fontColor=#000099;" vertex="1" parent="1">
          <mxGeometry x="100" y="180" width="10" height="10" as="geometry" />
        </mxCell>
        <mxCell id="WxkMXaj1MNcZUrJeZnWW-18" value="" style="whiteSpace=wrap;html=1;aspect=fixed;strokeWidth=0.5;strokeColor=#808080;fillColor=#000000;fontColor=#000099;" vertex="1" parent="1">
          <mxGeometry x="110" y="180" width="10" height="10" as="geometry" />
        </mxCell>
        <mxCell id="WxkMXaj1MNcZUrJeZnWW-19" value="" style="whiteSpace=wrap;html=1;aspect=fixed;strokeWidth=0.5;strokeColor=#808080;fillColor=#000000;fontColor=#000099;" vertex="1" parent="1">
          <mxGeometry x="120" y="180" width="10" height="10" as="geometry" />
        </mxCell>
        <mxCell id="WxkMXaj1MNcZUrJeZnWW-20" value="" style="whiteSpace=wrap;html=1;aspect=fixed;strokeWidth=0.5;strokeColor=#808080;fillColor=#000000;fontColor=#000099;" vertex="1" parent="1">
          <mxGeometry x="130" y="180" width="10" height="10" as="geometry" />
        </mxCell>
        <mxCell id="WxkMXaj1MNcZUrJeZnWW-21" value="" style="whiteSpace=wrap;html=1;aspect=fixed;strokeWidth=0.5;strokeColor=#808080;fillColor=#000000;fontColor=#000099;" vertex="1" parent="1">
          <mxGeometry x="140" y="180" width="10" height="10" as="geometry" />
        </mxCell>
        <mxCell id="WxkMXaj1MNcZUrJeZnWW-22" value="" style="whiteSpace=wrap;html=1;aspect=fixed;strokeWidth=0.5;strokeColor=#808080;fillColor=#000000;fontColor=#000099;" vertex="1" parent="1">
          <mxGeometry x="80" y="190" width="10" height="10" as="geometry" />
        </mxCell>
        <mxCell id="WxkMXaj1MNcZUrJeZnWW-23" value="" style="whiteSpace=wrap;html=1;aspect=fixed;strokeWidth=0.5;strokeColor=#808080;fillColor=#000000;fontColor=#000099;" vertex="1" parent="1">
          <mxGeometry x="90" y="190" width="10" height="10" as="geometry" />
        </mxCell>
        <mxCell id="WxkMXaj1MNcZUrJeZnWW-24" value="" style="whiteSpace=wrap;html=1;aspect=fixed;strokeWidth=0.5;strokeColor=#808080;fillColor=#000000;fontColor=#000099;" vertex="1" parent="1">
          <mxGeometry x="100" y="190" width="10" height="10" as="geometry" />
        </mxCell>
        <mxCell id="WxkMXaj1MNcZUrJeZnWW-25" value="" style="whiteSpace=wrap;html=1;aspect=fixed;strokeWidth=0.5;strokeColor=#808080;fillColor=#000000;fontColor=#000099;" vertex="1" parent="1">
          <mxGeometry x="110" y="190" width="10" height="10" as="geometry" />
        </mxCell>
        <mxCell id="WxkMXaj1MNcZUrJeZnWW-26" value="" style="whiteSpace=wrap;html=1;aspect=fixed;strokeWidth=0.5;strokeColor=#808080;fillColor=#000000;fontColor=#000099;" vertex="1" parent="1">
          <mxGeometry x="120" y="190" width="10" height="10" as="geometry" />
        </mxCell>
        <mxCell id="WxkMXaj1MNcZUrJeZnWW-27" value="" style="whiteSpace=wrap;html=1;aspect=fixed;strokeWidth=0.5;strokeColor=#808080;fillColor=#000000;fontColor=#000099;" vertex="1" parent="1">
          <mxGeometry x="130" y="190" width="10" height="10" as="geometry" />
        </mxCell>
        <mxCell id="WxkMXaj1MNcZUrJeZnWW-28" value="" style="whiteSpace=wrap;html=1;aspect=fixed;strokeWidth=0.5;strokeColor=#808080;fillColor=#000000;fontColor=#000099;" vertex="1" parent="1">
          <mxGeometry x="140" y="190" width="10" height="10" as="geometry" />
        </mxCell>
        <mxCell id="WxkMXaj1MNcZUrJeZnWW-29" value="" style="whiteSpace=wrap;html=1;aspect=fixed;strokeWidth=0.5;strokeColor=#808080;fillColor=#000000;fontColor=#000099;" vertex="1" parent="1">
          <mxGeometry x="80" y="200" width="10" height="10" as="geometry" />
        </mxCell>
        <mxCell id="WxkMXaj1MNcZUrJeZnWW-30" value="" style="whiteSpace=wrap;html=1;aspect=fixed;strokeWidth=0.5;strokeColor=#808080;fillColor=#000000;fontColor=#000099;" vertex="1" parent="1">
          <mxGeometry x="90" y="200" width="10" height="10" as="geometry" />
        </mxCell>
        <mxCell id="WxkMXaj1MNcZUrJeZnWW-31" value="" style="whiteSpace=wrap;html=1;aspect=fixed;strokeWidth=0.5;strokeColor=#808080;fillColor=#000000;fontColor=#000099;" vertex="1" parent="1">
          <mxGeometry x="100" y="200" width="10" height="10" as="geometry" />
        </mxCell>
        <mxCell id="WxkMXaj1MNcZUrJeZnWW-32" value="" style="whiteSpace=wrap;html=1;aspect=fixed;strokeWidth=0.5;strokeColor=#808080;fillColor=#000000;fontColor=#000099;" vertex="1" parent="1">
          <mxGeometry x="110" y="200" width="10" height="10" as="geometry" />
        </mxCell>
        <mxCell id="WxkMXaj1MNcZUrJeZnWW-33" value="" style="whiteSpace=wrap;html=1;aspect=fixed;strokeWidth=0.5;strokeColor=#808080;fillColor=#000000;fontColor=#000099;" vertex="1" parent="1">
          <mxGeometry x="120" y="200" width="10" height="10" as="geometry" />
        </mxCell>
        <mxCell id="WxkMXaj1MNcZUrJeZnWW-34" value="" style="whiteSpace=wrap;html=1;aspect=fixed;strokeWidth=0.5;strokeColor=#808080;fillColor=#000000;fontColor=#000099;" vertex="1" parent="1">
          <mxGeometry x="130" y="200" width="10" height="10" as="geometry" />
        </mxCell>
        <mxCell id="WxkMXaj1MNcZUrJeZnWW-35" value="" style="whiteSpace=wrap;html=1;aspect=fixed;strokeWidth=0.5;strokeColor=#808080;fillColor=#000000;fontColor=#000099;" vertex="1" parent="1">
          <mxGeometry x="140" y="200" width="10" height="10" as="geometry" />
        </mxCell>
        <mxCell id="WxkMXaj1MNcZUrJeZnWW-36" value="" style="whiteSpace=wrap;html=1;aspect=fixed;strokeWidth=0.5;strokeColor=#808080;fillColor=#000000;fontColor=#000099;" vertex="1" parent="1">
          <mxGeometry x="80" y="210" width="10" height="10" as="geometry" />
        </mxCell>
        <mxCell id="WxkMXaj1MNcZUrJeZnWW-37" value="" style="whiteSpace=wrap;html=1;aspect=fixed;strokeWidth=0.5;strokeColor=#808080;fillColor=#000000;fontColor=#000099;" vertex="1" parent="1">
          <mxGeometry x="90" y="210" width="10" height="10" as="geometry" />
        </mxCell>
        <mxCell id="WxkMXaj1MNcZUrJeZnWW-38" value="" style="whiteSpace=wrap;html=1;aspect=fixed;strokeWidth=0.5;strokeColor=#808080;fillColor=#000000;fontColor=#000099;" vertex="1" parent="1">
          <mxGeometry x="100" y="210" width="10" height="10" as="geometry" />
        </mxCell>
        <mxCell id="WxkMXaj1MNcZUrJeZnWW-39" value="" style="whiteSpace=wrap;html=1;aspect=fixed;strokeWidth=0.5;strokeColor=#808080;fillColor=#000000;fontColor=#000099;" vertex="1" parent="1">
          <mxGeometry x="110" y="210" width="10" height="10" as="geometry" />
        </mxCell>
        <mxCell id="WxkMXaj1MNcZUrJeZnWW-40" value="" style="whiteSpace=wrap;html=1;aspect=fixed;strokeWidth=0.5;strokeColor=#808080;fillColor=#000000;fontColor=#000099;" vertex="1" parent="1">
          <mxGeometry x="120" y="210" width="10" height="10" as="geometry" />
        </mxCell>
        <mxCell id="WxkMXaj1MNcZUrJeZnWW-41" value="" style="whiteSpace=wrap;html=1;aspect=fixed;strokeWidth=0.5;strokeColor=#808080;fillColor=#000000;fontColor=#000099;" vertex="1" parent="1">
          <mxGeometry x="130" y="210" width="10" height="10" as="geometry" />
        </mxCell>
        <mxCell id="WxkMXaj1MNcZUrJeZnWW-42" value="" style="whiteSpace=wrap;html=1;aspect=fixed;strokeWidth=0.5;strokeColor=#808080;fillColor=#000000;fontColor=#000099;" vertex="1" parent="1">
          <mxGeometry x="140" y="210" width="10" height="10" as="geometry" />
        </mxCell>
        <mxCell id="WxkMXaj1MNcZUrJeZnWW-43" value="" style="whiteSpace=wrap;html=1;aspect=fixed;strokeWidth=0.5;strokeColor=#808080;fillColor=#000000;fontColor=#000099;" vertex="1" parent="1">
          <mxGeometry x="80" y="220" width="10" height="10" as="geometry" />
        </mxCell>
        <mxCell id="WxkMXaj1MNcZUrJeZnWW-44" value="" style="whiteSpace=wrap;html=1;aspect=fixed;strokeWidth=0.5;strokeColor=#808080;fillColor=#000000;fontColor=#000099;" vertex="1" parent="1">
          <mxGeometry x="90" y="220" width="10" height="10" as="geometry" />
        </mxCell>
        <mxCell id="WxkMXaj1MNcZUrJeZnWW-45" value="" style="whiteSpace=wrap;html=1;aspect=fixed;strokeWidth=0.5;strokeColor=#808080;fillColor=#000000;fontColor=#000099;" vertex="1" parent="1">
          <mxGeometry x="100" y="220" width="10" height="10" as="geometry" />
        </mxCell>
        <mxCell id="WxkMXaj1MNcZUrJeZnWW-46" value="" style="whiteSpace=wrap;html=1;aspect=fixed;strokeWidth=0.5;strokeColor=#808080;fillColor=#000000;fontColor=#000099;" vertex="1" parent="1">
          <mxGeometry x="110" y="220" width="10" height="10" as="geometry" />
        </mxCell>
        <mxCell id="WxkMXaj1MNcZUrJeZnWW-47" value="" style="whiteSpace=wrap;html=1;aspect=fixed;strokeWidth=0.5;strokeColor=#808080;fillColor=#000000;fontColor=#000099;" vertex="1" parent="1">
          <mxGeometry x="120" y="220" width="10" height="10" as="geometry" />
        </mxCell>
        <mxCell id="WxkMXaj1MNcZUrJeZnWW-48" value="" style="whiteSpace=wrap;html=1;aspect=fixed;strokeWidth=0.5;strokeColor=#808080;fillColor=#000000;fontColor=#000099;" vertex="1" parent="1">
          <mxGeometry x="130" y="220" width="10" height="10" as="geometry" />
        </mxCell>
        <mxCell id="WxkMXaj1MNcZUrJeZnWW-49" value="" style="whiteSpace=wrap;html=1;aspect=fixed;strokeWidth=0.5;strokeColor=#808080;fillColor=#000000;fontColor=#000099;" vertex="1" parent="1">
          <mxGeometry x="140" y="220" width="10" height="10" as="geometry" />
        </mxCell>
        <mxCell id="WxkMXaj1MNcZUrJeZnWW-50" value="" style="whiteSpace=wrap;html=1;aspect=fixed;strokeWidth=0.5;strokeColor=#808080;fillColor=#000000;fontColor=#000099;" vertex="1" parent="1">
          <mxGeometry x="150" y="160" width="10" height="10" as="geometry" />
        </mxCell>
        <mxCell id="WxkMXaj1MNcZUrJeZnWW-51" value="" style="whiteSpace=wrap;html=1;aspect=fixed;strokeWidth=0.5;strokeColor=#808080;fillColor=#000000;fontColor=#000099;" vertex="1" parent="1">
          <mxGeometry x="150" y="170" width="10" height="10" as="geometry" />
        </mxCell>
        <mxCell id="WxkMXaj1MNcZUrJeZnWW-52" value="" style="whiteSpace=wrap;html=1;aspect=fixed;strokeWidth=0.5;strokeColor=#808080;fillColor=#000000;fontColor=#000099;" vertex="1" parent="1">
          <mxGeometry x="150" y="180" width="10" height="10" as="geometry" />
        </mxCell>
        <mxCell id="WxkMXaj1MNcZUrJeZnWW-53" value="" style="whiteSpace=wrap;html=1;aspect=fixed;strokeWidth=0.5;strokeColor=#808080;fillColor=#000000;fontColor=#000099;" vertex="1" parent="1">
          <mxGeometry x="150" y="190" width="10" height="10" as="geometry" />
        </mxCell>
        <mxCell id="WxkMXaj1MNcZUrJeZnWW-54" value="" style="whiteSpace=wrap;html=1;aspect=fixed;strokeWidth=0.5;strokeColor=#808080;fillColor=#000000;fontColor=#000099;" vertex="1" parent="1">
          <mxGeometry x="150" y="200" width="10" height="10" as="geometry" />
        </mxCell>
        <mxCell id="WxkMXaj1MNcZUrJeZnWW-55" value="" style="whiteSpace=wrap;html=1;aspect=fixed;strokeWidth=0.5;strokeColor=#808080;fillColor=#000000;fontColor=#000099;" vertex="1" parent="1">
          <mxGeometry x="150" y="210" width="10" height="10" as="geometry" />
        </mxCell>
        <mxCell id="WxkMXaj1MNcZUrJeZnWW-56" value="" style="whiteSpace=wrap;html=1;aspect=fixed;strokeWidth=0.5;strokeColor=#808080;fillColor=#000000;fontColor=#000099;" vertex="1" parent="1">
          <mxGeometry x="150" y="220" width="10" height="10" as="geometry" />
        </mxCell>
        <mxCell id="WxkMXaj1MNcZUrJeZnWW-57" value="" style="whiteSpace=wrap;html=1;aspect=fixed;strokeWidth=0.5;strokeColor=#808080;fillColor=#000000;fontColor=#000099;" vertex="1" parent="1">
          <mxGeometry x="160" y="160" width="10" height="10" as="geometry" />
        </mxCell>
        <mxCell id="WxkMXaj1MNcZUrJeZnWW-58" value="" style="whiteSpace=wrap;html=1;aspect=fixed;strokeWidth=0.5;strokeColor=#808080;fillColor=#000000;fontColor=#000099;" vertex="1" parent="1">
          <mxGeometry x="160" y="170" width="10" height="10" as="geometry" />
        </mxCell>
        <mxCell id="WxkMXaj1MNcZUrJeZnWW-59" value="" style="whiteSpace=wrap;html=1;aspect=fixed;strokeWidth=0.5;strokeColor=#808080;fillColor=#000000;fontColor=#000099;" vertex="1" parent="1">
          <mxGeometry x="160" y="180" width="10" height="10" as="geometry" />
        </mxCell>
        <mxCell id="WxkMXaj1MNcZUrJeZnWW-60" value="" style="whiteSpace=wrap;html=1;aspect=fixed;strokeWidth=0.5;strokeColor=#808080;fillColor=#000000;fontColor=#000099;" vertex="1" parent="1">
          <mxGeometry x="160" y="190" width="10" height="10" as="geometry" />
        </mxCell>
        <mxCell id="WxkMXaj1MNcZUrJeZnWW-61" value="" style="whiteSpace=wrap;html=1;aspect=fixed;strokeWidth=0.5;strokeColor=#808080;fillColor=#000000;fontColor=#000099;" vertex="1" parent="1">
          <mxGeometry x="160" y="200" width="10" height="10" as="geometry" />
        </mxCell>
        <mxCell id="WxkMXaj1MNcZUrJeZnWW-62" value="" style="whiteSpace=wrap;html=1;aspect=fixed;strokeWidth=0.5;strokeColor=#808080;fillColor=#000000;fontColor=#000099;" vertex="1" parent="1">
          <mxGeometry x="160" y="210" width="10" height="10" as="geometry" />
        </mxCell>
        <mxCell id="WxkMXaj1MNcZUrJeZnWW-63" value="" style="whiteSpace=wrap;html=1;aspect=fixed;strokeWidth=0.5;strokeColor=#808080;fillColor=#000000;fontColor=#000099;" vertex="1" parent="1">
          <mxGeometry x="160" y="220" width="10" height="10" as="geometry" />
        </mxCell>
        <mxCell id="WxkMXaj1MNcZUrJeZnWW-64" value="" style="whiteSpace=wrap;html=1;aspect=fixed;strokeWidth=0.5;strokeColor=#808080;fillColor=#000000;fontColor=#000099;" vertex="1" parent="1">
          <mxGeometry x="80" y="240" width="10" height="10" as="geometry" />
        </mxCell>
        <mxCell id="WxkMXaj1MNcZUrJeZnWW-65" value="" style="whiteSpace=wrap;html=1;aspect=fixed;strokeWidth=0.5;strokeColor=#808080;fillColor=#000000;fontColor=#000099;" vertex="1" parent="1">
          <mxGeometry x="90" y="240" width="10" height="10" as="geometry" />
        </mxCell>
        <mxCell id="WxkMXaj1MNcZUrJeZnWW-66" value="" style="whiteSpace=wrap;html=1;aspect=fixed;strokeWidth=0.5;strokeColor=#808080;fillColor=#000000;fontColor=#000099;" vertex="1" parent="1">
          <mxGeometry x="100" y="240" width="10" height="10" as="geometry" />
        </mxCell>
        <mxCell id="WxkMXaj1MNcZUrJeZnWW-67" value="" style="whiteSpace=wrap;html=1;aspect=fixed;strokeWidth=0.5;strokeColor=#808080;fillColor=#000000;fontColor=#000099;" vertex="1" parent="1">
          <mxGeometry x="110" y="240" width="10" height="10" as="geometry" />
        </mxCell>
        <mxCell id="WxkMXaj1MNcZUrJeZnWW-68" value="" style="whiteSpace=wrap;html=1;aspect=fixed;strokeWidth=0.5;strokeColor=#808080;fillColor=#000000;fontColor=#000099;" vertex="1" parent="1">
          <mxGeometry x="120" y="240" width="10" height="10" as="geometry" />
        </mxCell>
        <mxCell id="WxkMXaj1MNcZUrJeZnWW-69" value="" style="whiteSpace=wrap;html=1;aspect=fixed;strokeWidth=0.5;strokeColor=#808080;fillColor=#FFFFFF;fontColor=#000099;" vertex="1" parent="1">
          <mxGeometry x="130" y="240" width="10" height="10" as="geometry" />
        </mxCell>
        <mxCell id="WxkMXaj1MNcZUrJeZnWW-70" value="" style="whiteSpace=wrap;html=1;aspect=fixed;strokeWidth=0.5;strokeColor=#808080;fillColor=#CCCCCC;fontColor=#000099;" vertex="1" parent="1">
          <mxGeometry x="140" y="240" width="10" height="10" as="geometry" />
        </mxCell>
        <mxCell id="WxkMXaj1MNcZUrJeZnWW-71" value="" style="whiteSpace=wrap;html=1;aspect=fixed;strokeWidth=0.5;strokeColor=#808080;fillColor=#000000;fontColor=#000099;" vertex="1" parent="1">
          <mxGeometry x="80" y="250" width="10" height="10" as="geometry" />
        </mxCell>
        <mxCell id="WxkMXaj1MNcZUrJeZnWW-72" value="" style="whiteSpace=wrap;html=1;aspect=fixed;strokeWidth=0.5;strokeColor=#808080;fillColor=#000000;fontColor=#000099;" vertex="1" parent="1">
          <mxGeometry x="90" y="250" width="10" height="10" as="geometry" />
        </mxCell>
        <mxCell id="WxkMXaj1MNcZUrJeZnWW-73" value="" style="whiteSpace=wrap;html=1;aspect=fixed;strokeWidth=0.5;strokeColor=#808080;fillColor=#000000;fontColor=#000099;" vertex="1" parent="1">
          <mxGeometry x="100" y="250" width="10" height="10" as="geometry" />
        </mxCell>
        <mxCell id="WxkMXaj1MNcZUrJeZnWW-74" value="" style="whiteSpace=wrap;html=1;aspect=fixed;strokeWidth=0.5;strokeColor=#808080;fillColor=#000000;fontColor=#000099;" vertex="1" parent="1">
          <mxGeometry x="110" y="250" width="10" height="10" as="geometry" />
        </mxCell>
        <mxCell id="WxkMXaj1MNcZUrJeZnWW-75" value="" style="whiteSpace=wrap;html=1;aspect=fixed;strokeWidth=0.5;strokeColor=#808080;fillColor=#000000;fontColor=#000099;" vertex="1" parent="1">
          <mxGeometry x="120" y="250" width="10" height="10" as="geometry" />
        </mxCell>
        <mxCell id="WxkMXaj1MNcZUrJeZnWW-76" value="" style="whiteSpace=wrap;html=1;aspect=fixed;strokeWidth=0.5;strokeColor=#808080;fillColor=#000000;fontColor=#000099;" vertex="1" parent="1">
          <mxGeometry x="130" y="250" width="10" height="10" as="geometry" />
        </mxCell>
        <mxCell id="WxkMXaj1MNcZUrJeZnWW-77" value="" style="whiteSpace=wrap;html=1;aspect=fixed;strokeWidth=0.5;strokeColor=#808080;fillColor=#000000;fontColor=#000099;" vertex="1" parent="1">
          <mxGeometry x="140" y="250" width="10" height="10" as="geometry" />
        </mxCell>
        <mxCell id="WxkMXaj1MNcZUrJeZnWW-78" value="" style="whiteSpace=wrap;html=1;aspect=fixed;strokeWidth=0.5;strokeColor=#808080;fillColor=#999999;fontColor=#000099;" vertex="1" parent="1">
          <mxGeometry x="150" y="240" width="10" height="10" as="geometry" />
        </mxCell>
        <mxCell id="WxkMXaj1MNcZUrJeZnWW-79" value="" style="whiteSpace=wrap;html=1;aspect=fixed;strokeWidth=0.5;strokeColor=#808080;fillColor=#000000;fontColor=#000099;" vertex="1" parent="1">
          <mxGeometry x="150" y="250" width="10" height="10" as="geometry" />
        </mxCell>
        <mxCell id="WxkMXaj1MNcZUrJeZnWW-80" value="" style="whiteSpace=wrap;html=1;aspect=fixed;strokeWidth=0.5;strokeColor=#808080;fillColor=#666666;fontColor=#000099;" vertex="1" parent="1">
          <mxGeometry x="160" y="240" width="10" height="10" as="geometry" />
        </mxCell>
        <mxCell id="WxkMXaj1MNcZUrJeZnWW-81" value="" style="whiteSpace=wrap;html=1;aspect=fixed;strokeWidth=0.5;strokeColor=#808080;fillColor=#000000;fontColor=#000099;" vertex="1" parent="1">
          <mxGeometry x="160" y="250" width="10" height="10" as="geometry" />
        </mxCell>
        <mxCell id="WxkMXaj1MNcZUrJeZnWW-82" value="" style="whiteSpace=wrap;html=1;aspect=fixed;strokeWidth=0.5;strokeColor=#808080;fillColor=#000000;fontColor=#000099;" vertex="1" parent="1">
          <mxGeometry x="80" y="230" width="10" height="10" as="geometry" />
        </mxCell>
        <mxCell id="WxkMXaj1MNcZUrJeZnWW-83" value="" style="whiteSpace=wrap;html=1;aspect=fixed;strokeWidth=0.5;strokeColor=#808080;fillColor=#000000;fontColor=#000099;" vertex="1" parent="1">
          <mxGeometry x="90" y="230" width="10" height="10" as="geometry" />
        </mxCell>
        <mxCell id="WxkMXaj1MNcZUrJeZnWW-84" value="" style="whiteSpace=wrap;html=1;aspect=fixed;strokeWidth=0.5;strokeColor=#808080;fillColor=#000000;fontColor=#000099;" vertex="1" parent="1">
          <mxGeometry x="100" y="230" width="10" height="10" as="geometry" />
        </mxCell>
        <mxCell id="WxkMXaj1MNcZUrJeZnWW-85" value="" style="whiteSpace=wrap;html=1;aspect=fixed;strokeWidth=0.5;strokeColor=#808080;fillColor=#000000;fontColor=#000099;" vertex="1" parent="1">
          <mxGeometry x="110" y="230" width="10" height="10" as="geometry" />
        </mxCell>
        <mxCell id="WxkMXaj1MNcZUrJeZnWW-86" value="" style="whiteSpace=wrap;html=1;aspect=fixed;strokeWidth=0.5;strokeColor=#808080;fillColor=#000000;fontColor=#000099;" vertex="1" parent="1">
          <mxGeometry x="120" y="230" width="10" height="10" as="geometry" />
        </mxCell>
        <mxCell id="WxkMXaj1MNcZUrJeZnWW-87" value="" style="whiteSpace=wrap;html=1;aspect=fixed;strokeWidth=0.5;strokeColor=#808080;fillColor=#000000;fontColor=#000099;" vertex="1" parent="1">
          <mxGeometry x="130" y="230" width="10" height="10" as="geometry" />
        </mxCell>
        <mxCell id="WxkMXaj1MNcZUrJeZnWW-88" value="" style="whiteSpace=wrap;html=1;aspect=fixed;strokeWidth=0.5;strokeColor=#808080;fillColor=#000000;fontColor=#000099;" vertex="1" parent="1">
          <mxGeometry x="140" y="230" width="10" height="10" as="geometry" />
        </mxCell>
        <mxCell id="WxkMXaj1MNcZUrJeZnWW-89" value="" style="whiteSpace=wrap;html=1;aspect=fixed;strokeWidth=0.5;strokeColor=#808080;fillColor=#000000;fontColor=#000099;" vertex="1" parent="1">
          <mxGeometry x="150" y="230" width="10" height="10" as="geometry" />
        </mxCell>
        <mxCell id="WxkMXaj1MNcZUrJeZnWW-90" value="" style="whiteSpace=wrap;html=1;aspect=fixed;strokeWidth=0.5;strokeColor=#808080;fillColor=#000000;fontColor=#000099;" vertex="1" parent="1">
          <mxGeometry x="160" y="230" width="10" height="10" as="geometry" />
        </mxCell>
        <mxCell id="WxkMXaj1MNcZUrJeZnWW-101" value="" style="whiteSpace=wrap;html=1;aspect=fixed;strokeWidth=0.5;strokeColor=#808080;fillColor=#000000;fontColor=#000099;" vertex="1" parent="1">
          <mxGeometry x="170" y="160" width="10" height="10" as="geometry" />
        </mxCell>
        <mxCell id="WxkMXaj1MNcZUrJeZnWW-102" value="" style="whiteSpace=wrap;html=1;aspect=fixed;strokeWidth=0.5;strokeColor=#808080;fillColor=#000000;fontColor=#000099;" vertex="1" parent="1">
          <mxGeometry x="170" y="170" width="10" height="10" as="geometry" />
        </mxCell>
        <mxCell id="WxkMXaj1MNcZUrJeZnWW-103" value="" style="whiteSpace=wrap;html=1;aspect=fixed;strokeWidth=0.5;strokeColor=#808080;fillColor=#000000;fontColor=#000099;" vertex="1" parent="1">
          <mxGeometry x="170" y="180" width="10" height="10" as="geometry" />
        </mxCell>
        <mxCell id="WxkMXaj1MNcZUrJeZnWW-104" value="" style="whiteSpace=wrap;html=1;aspect=fixed;strokeWidth=0.5;strokeColor=#808080;fillColor=#000000;fontColor=#000099;" vertex="1" parent="1">
          <mxGeometry x="170" y="190" width="10" height="10" as="geometry" />
        </mxCell>
        <mxCell id="WxkMXaj1MNcZUrJeZnWW-105" value="" style="whiteSpace=wrap;html=1;aspect=fixed;strokeWidth=0.5;strokeColor=#808080;fillColor=#000000;fontColor=#000099;" vertex="1" parent="1">
          <mxGeometry x="170" y="200" width="10" height="10" as="geometry" />
        </mxCell>
        <mxCell id="WxkMXaj1MNcZUrJeZnWW-106" value="" style="whiteSpace=wrap;html=1;aspect=fixed;strokeWidth=0.5;strokeColor=#808080;fillColor=#000000;fontColor=#000099;" vertex="1" parent="1">
          <mxGeometry x="170" y="210" width="10" height="10" as="geometry" />
        </mxCell>
        <mxCell id="WxkMXaj1MNcZUrJeZnWW-107" value="" style="whiteSpace=wrap;html=1;aspect=fixed;strokeWidth=0.5;strokeColor=#808080;fillColor=#000000;fontColor=#000099;" vertex="1" parent="1">
          <mxGeometry x="170" y="220" width="10" height="10" as="geometry" />
        </mxCell>
        <mxCell id="WxkMXaj1MNcZUrJeZnWW-108" value="" style="whiteSpace=wrap;html=1;aspect=fixed;strokeWidth=0.5;strokeColor=#808080;fillColor=#333333;fontColor=#000099;" vertex="1" parent="1">
          <mxGeometry x="170" y="240" width="10" height="10" as="geometry" />
        </mxCell>
        <mxCell id="WxkMXaj1MNcZUrJeZnWW-109" value="" style="whiteSpace=wrap;html=1;aspect=fixed;strokeWidth=0.5;strokeColor=#808080;fillColor=#000000;fontColor=#000099;" vertex="1" parent="1">
          <mxGeometry x="170" y="250" width="10" height="10" as="geometry" />
        </mxCell>
        <mxCell id="WxkMXaj1MNcZUrJeZnWW-110" value="" style="whiteSpace=wrap;html=1;aspect=fixed;strokeWidth=0.5;strokeColor=#808080;fillColor=#000000;fontColor=#000099;" vertex="1" parent="1">
          <mxGeometry x="170" y="230" width="10" height="10" as="geometry" />
        </mxCell>
        <mxCell id="WxkMXaj1MNcZUrJeZnWW-115" value="" style="whiteSpace=wrap;html=1;aspect=fixed;strokeWidth=0.5;strokeColor=#808080;fillColor=#000000;fontColor=#000099;" vertex="1" parent="1">
          <mxGeometry x="100" y="20" width="10" height="10" as="geometry" />
        </mxCell>
        <mxCell id="WxkMXaj1MNcZUrJeZnWW-116" value="" style="whiteSpace=wrap;html=1;aspect=fixed;strokeWidth=0.5;strokeColor=#808080;fillColor=#000000;fontColor=#000099;" vertex="1" parent="1">
          <mxGeometry x="110" y="20" width="10" height="10" as="geometry" />
        </mxCell>
        <mxCell id="WxkMXaj1MNcZUrJeZnWW-117" value="" style="whiteSpace=wrap;html=1;aspect=fixed;strokeWidth=0.5;strokeColor=#808080;fillColor=#000000;fontColor=#000099;" vertex="1" parent="1">
          <mxGeometry x="120" y="20" width="10" height="10" as="geometry" />
        </mxCell>
        <mxCell id="WxkMXaj1MNcZUrJeZnWW-122" value="" style="whiteSpace=wrap;html=1;aspect=fixed;strokeWidth=0.5;strokeColor=#808080;fillColor=#FFFFFF;fontColor=#000099;" vertex="1" parent="1">
          <mxGeometry x="100" y="30" width="10" height="10" as="geometry" />
        </mxCell>
        <mxCell id="WxkMXaj1MNcZUrJeZnWW-123" value="" style="whiteSpace=wrap;html=1;aspect=fixed;strokeWidth=0.5;strokeColor=#808080;fillColor=#000000;fontColor=#000099;" vertex="1" parent="1">
          <mxGeometry x="110" y="30" width="10" height="10" as="geometry" />
        </mxCell>
        <mxCell id="WxkMXaj1MNcZUrJeZnWW-124" value="" style="whiteSpace=wrap;html=1;aspect=fixed;strokeWidth=0.5;strokeColor=#808080;fillColor=#000000;fontColor=#000099;" vertex="1" parent="1">
          <mxGeometry x="120" y="30" width="10" height="10" as="geometry" />
        </mxCell>
        <mxCell id="WxkMXaj1MNcZUrJeZnWW-129" value="" style="whiteSpace=wrap;html=1;aspect=fixed;strokeWidth=0.5;strokeColor=#808080;fillColor=#000000;fontColor=#000099;" vertex="1" parent="1">
          <mxGeometry x="100" y="40" width="10" height="10" as="geometry" />
        </mxCell>
        <mxCell id="WxkMXaj1MNcZUrJeZnWW-130" value="" style="whiteSpace=wrap;html=1;aspect=fixed;strokeWidth=0.5;strokeColor=#808080;fillColor=#000000;fontColor=#000099;" vertex="1" parent="1">
          <mxGeometry x="110" y="40" width="10" height="10" as="geometry" />
        </mxCell>
        <mxCell id="WxkMXaj1MNcZUrJeZnWW-131" value="" style="whiteSpace=wrap;html=1;aspect=fixed;strokeWidth=0.5;strokeColor=#808080;fillColor=#000000;fontColor=#000099;" vertex="1" parent="1">
          <mxGeometry x="120" y="40" width="10" height="10" as="geometry" />
        </mxCell>
        <mxCell id="WxkMXaj1MNcZUrJeZnWW-136" value="" style="whiteSpace=wrap;html=1;aspect=fixed;strokeWidth=0.5;strokeColor=#808080;fillColor=#000000;fontColor=#000099;" vertex="1" parent="1">
          <mxGeometry x="100" y="50" width="10" height="10" as="geometry" />
        </mxCell>
        <mxCell id="WxkMXaj1MNcZUrJeZnWW-137" value="" style="whiteSpace=wrap;html=1;aspect=fixed;strokeWidth=0.5;strokeColor=#808080;fillColor=#000000;fontColor=#000099;" vertex="1" parent="1">
          <mxGeometry x="110" y="50" width="10" height="10" as="geometry" />
        </mxCell>
        <mxCell id="WxkMXaj1MNcZUrJeZnWW-143" value="" style="whiteSpace=wrap;html=1;aspect=fixed;strokeWidth=0.5;strokeColor=#808080;fillColor=#000000;fontColor=#000099;" vertex="1" parent="1">
          <mxGeometry x="100" y="60" width="10" height="10" as="geometry" />
        </mxCell>
        <mxCell id="WxkMXaj1MNcZUrJeZnWW-144" value="" style="whiteSpace=wrap;html=1;aspect=fixed;strokeWidth=0.5;strokeColor=#808080;fillColor=#000000;fontColor=#000099;" vertex="1" parent="1">
          <mxGeometry x="110" y="60" width="10" height="10" as="geometry" />
        </mxCell>
        <mxCell id="WxkMXaj1MNcZUrJeZnWW-150" value="" style="whiteSpace=wrap;html=1;aspect=fixed;strokeWidth=0.5;strokeColor=#808080;fillColor=#000000;fontColor=#000099;" vertex="1" parent="1">
          <mxGeometry x="100" y="70" width="10" height="10" as="geometry" />
        </mxCell>
        <mxCell id="WxkMXaj1MNcZUrJeZnWW-151" value="" style="whiteSpace=wrap;html=1;aspect=fixed;strokeWidth=0.5;strokeColor=#808080;fillColor=#000000;fontColor=#000099;" vertex="1" parent="1">
          <mxGeometry x="110" y="70" width="10" height="10" as="geometry" />
        </mxCell>
        <mxCell id="WxkMXaj1MNcZUrJeZnWW-157" value="" style="whiteSpace=wrap;html=1;aspect=fixed;strokeWidth=0.5;strokeColor=#808080;fillColor=#000000;fontColor=#000099;" vertex="1" parent="1">
          <mxGeometry x="100" y="80" width="10" height="10" as="geometry" />
        </mxCell>
        <mxCell id="WxkMXaj1MNcZUrJeZnWW-158" value="" style="whiteSpace=wrap;html=1;aspect=fixed;strokeWidth=0.5;strokeColor=#808080;fillColor=#000000;fontColor=#000099;" vertex="1" parent="1">
          <mxGeometry x="110" y="80" width="10" height="10" as="geometry" />
        </mxCell>
        <mxCell id="WxkMXaj1MNcZUrJeZnWW-160" value="" style="whiteSpace=wrap;html=1;aspect=fixed;strokeWidth=0.5;strokeColor=#808080;fillColor=#000000;fontColor=#000099;" vertex="1" parent="1">
          <mxGeometry x="130" y="20" width="10" height="10" as="geometry" />
        </mxCell>
        <mxCell id="WxkMXaj1MNcZUrJeZnWW-161" value="" style="whiteSpace=wrap;html=1;aspect=fixed;strokeWidth=0.5;strokeColor=#808080;fillColor=#000000;fontColor=#000099;" vertex="1" parent="1">
          <mxGeometry x="130" y="30" width="10" height="10" as="geometry" />
        </mxCell>
        <mxCell id="WxkMXaj1MNcZUrJeZnWW-162" value="" style="whiteSpace=wrap;html=1;aspect=fixed;strokeWidth=0.5;strokeColor=#808080;fillColor=#000000;fontColor=#000099;" vertex="1" parent="1">
          <mxGeometry x="130" y="40" width="10" height="10" as="geometry" />
        </mxCell>
        <mxCell id="WxkMXaj1MNcZUrJeZnWW-176" value="" style="whiteSpace=wrap;html=1;aspect=fixed;strokeWidth=0.5;strokeColor=#808080;fillColor=#000000;fontColor=#000099;" vertex="1" parent="1">
          <mxGeometry x="80" y="100" width="10" height="10" as="geometry" />
        </mxCell>
        <mxCell id="WxkMXaj1MNcZUrJeZnWW-177" value="" style="whiteSpace=wrap;html=1;aspect=fixed;strokeWidth=0.5;strokeColor=#808080;fillColor=#000000;fontColor=#000099;" vertex="1" parent="1">
          <mxGeometry x="90" y="100" width="10" height="10" as="geometry" />
        </mxCell>
        <mxCell id="WxkMXaj1MNcZUrJeZnWW-178" value="" style="whiteSpace=wrap;html=1;aspect=fixed;strokeWidth=0.5;strokeColor=#808080;fillColor=#000000;fontColor=#000099;" vertex="1" parent="1">
          <mxGeometry x="100" y="100" width="10" height="10" as="geometry" />
        </mxCell>
        <mxCell id="WxkMXaj1MNcZUrJeZnWW-179" value="" style="whiteSpace=wrap;html=1;aspect=fixed;strokeWidth=0.5;strokeColor=#808080;fillColor=#FFFFFF;fontColor=#000099;" vertex="1" parent="1">
          <mxGeometry x="110" y="100" width="10" height="10" as="geometry" />
        </mxCell>
        <mxCell id="WxkMXaj1MNcZUrJeZnWW-183" value="" style="whiteSpace=wrap;html=1;aspect=fixed;strokeWidth=0.5;strokeColor=#808080;fillColor=#000000;fontColor=#000099;" vertex="1" parent="1">
          <mxGeometry x="80" y="110" width="10" height="10" as="geometry" />
        </mxCell>
        <mxCell id="WxkMXaj1MNcZUrJeZnWW-184" value="" style="whiteSpace=wrap;html=1;aspect=fixed;strokeWidth=0.5;strokeColor=#808080;fillColor=#000000;fontColor=#000099;" vertex="1" parent="1">
          <mxGeometry x="90" y="110" width="10" height="10" as="geometry" />
        </mxCell>
        <mxCell id="WxkMXaj1MNcZUrJeZnWW-185" value="" style="whiteSpace=wrap;html=1;aspect=fixed;strokeWidth=0.5;strokeColor=#808080;fillColor=#000000;fontColor=#000099;" vertex="1" parent="1">
          <mxGeometry x="100" y="110" width="10" height="10" as="geometry" />
        </mxCell>
        <mxCell id="WxkMXaj1MNcZUrJeZnWW-186" value="" style="whiteSpace=wrap;html=1;aspect=fixed;strokeWidth=0.5;strokeColor=#808080;fillColor=#000000;fontColor=#000099;" vertex="1" parent="1">
          <mxGeometry x="110" y="110" width="10" height="10" as="geometry" />
        </mxCell>
        <mxCell id="WxkMXaj1MNcZUrJeZnWW-196" value="" style="whiteSpace=wrap;html=1;aspect=fixed;strokeWidth=0.5;strokeColor=#808080;fillColor=#000000;fontColor=#000099;" vertex="1" parent="1">
          <mxGeometry x="100" y="90" width="10" height="10" as="geometry" />
        </mxCell>
        <mxCell id="WxkMXaj1MNcZUrJeZnWW-197" value="" style="whiteSpace=wrap;html=1;aspect=fixed;strokeWidth=0.5;strokeColor=#808080;fillColor=#000000;fontColor=#000099;" vertex="1" parent="1">
          <mxGeometry x="110" y="90" width="10" height="10" as="geometry" />
        </mxCell>
        <mxCell id="WxkMXaj1MNcZUrJeZnWW-211" value="" style="whiteSpace=wrap;html=1;aspect=fixed;strokeWidth=0.5;strokeColor=#808080;fillColor=#000000;fontColor=#000099;" vertex="1" parent="1">
          <mxGeometry x="90" y="20" width="10" height="10" as="geometry" />
        </mxCell>
        <mxCell id="WxkMXaj1MNcZUrJeZnWW-212" value="" style="whiteSpace=wrap;html=1;aspect=fixed;strokeWidth=0.5;strokeColor=#808080;fillColor=#000000;fontColor=#000099;" vertex="1" parent="1">
          <mxGeometry x="90" y="30" width="10" height="10" as="geometry" />
        </mxCell>
        <mxCell id="WxkMXaj1MNcZUrJeZnWW-213" value="" style="whiteSpace=wrap;html=1;aspect=fixed;strokeWidth=0.5;strokeColor=#808080;fillColor=#000000;fontColor=#000099;" vertex="1" parent="1">
          <mxGeometry x="90" y="40" width="10" height="10" as="geometry" />
        </mxCell>
        <mxCell id="WxkMXaj1MNcZUrJeZnWW-214" value="" style="whiteSpace=wrap;html=1;aspect=fixed;strokeWidth=0.5;strokeColor=#808080;fillColor=#000000;fontColor=#000099;" vertex="1" parent="1">
          <mxGeometry x="90" y="50" width="10" height="10" as="geometry" />
        </mxCell>
        <mxCell id="WxkMXaj1MNcZUrJeZnWW-215" value="" style="whiteSpace=wrap;html=1;aspect=fixed;strokeWidth=0.5;strokeColor=#808080;fillColor=#000000;fontColor=#000099;" vertex="1" parent="1">
          <mxGeometry x="90" y="60" width="10" height="10" as="geometry" />
        </mxCell>
        <mxCell id="WxkMXaj1MNcZUrJeZnWW-216" value="" style="whiteSpace=wrap;html=1;aspect=fixed;strokeWidth=0.5;strokeColor=#808080;fillColor=#000000;fontColor=#000099;" vertex="1" parent="1">
          <mxGeometry x="90" y="70" width="10" height="10" as="geometry" />
        </mxCell>
        <mxCell id="WxkMXaj1MNcZUrJeZnWW-217" value="" style="whiteSpace=wrap;html=1;aspect=fixed;strokeWidth=0.5;strokeColor=#808080;fillColor=#000000;fontColor=#000099;" vertex="1" parent="1">
          <mxGeometry x="90" y="80" width="10" height="10" as="geometry" />
        </mxCell>
        <mxCell id="WxkMXaj1MNcZUrJeZnWW-218" value="" style="whiteSpace=wrap;html=1;aspect=fixed;strokeWidth=0.5;strokeColor=#808080;fillColor=#000000;fontColor=#000099;" vertex="1" parent="1">
          <mxGeometry x="90" y="90" width="10" height="10" as="geometry" />
        </mxCell>
        <mxCell id="WxkMXaj1MNcZUrJeZnWW-219" value="" style="whiteSpace=wrap;html=1;aspect=fixed;strokeWidth=0.5;strokeColor=#808080;fillColor=#000000;fontColor=#000099;" vertex="1" parent="1">
          <mxGeometry x="80" y="20" width="10" height="10" as="geometry" />
        </mxCell>
        <mxCell id="WxkMXaj1MNcZUrJeZnWW-220" value="" style="whiteSpace=wrap;html=1;aspect=fixed;strokeWidth=0.5;strokeColor=#808080;fillColor=#000000;fontColor=#000099;" vertex="1" parent="1">
          <mxGeometry x="80" y="30" width="10" height="10" as="geometry" />
        </mxCell>
        <mxCell id="WxkMXaj1MNcZUrJeZnWW-221" value="" style="whiteSpace=wrap;html=1;aspect=fixed;strokeWidth=0.5;strokeColor=#808080;fillColor=#000000;fontColor=#000099;" vertex="1" parent="1">
          <mxGeometry x="80" y="40" width="10" height="10" as="geometry" />
        </mxCell>
        <mxCell id="WxkMXaj1MNcZUrJeZnWW-222" value="" style="whiteSpace=wrap;html=1;aspect=fixed;strokeWidth=0.5;strokeColor=#808080;fillColor=#000000;fontColor=#000099;" vertex="1" parent="1">
          <mxGeometry x="80" y="50" width="10" height="10" as="geometry" />
        </mxCell>
        <mxCell id="WxkMXaj1MNcZUrJeZnWW-223" value="" style="whiteSpace=wrap;html=1;aspect=fixed;strokeWidth=0.5;strokeColor=#808080;fillColor=#000000;fontColor=#000099;" vertex="1" parent="1">
          <mxGeometry x="80" y="60" width="10" height="10" as="geometry" />
        </mxCell>
        <mxCell id="WxkMXaj1MNcZUrJeZnWW-224" value="" style="whiteSpace=wrap;html=1;aspect=fixed;strokeWidth=0.5;strokeColor=#808080;fillColor=#000000;fontColor=#000099;" vertex="1" parent="1">
          <mxGeometry x="80" y="70" width="10" height="10" as="geometry" />
        </mxCell>
        <mxCell id="WxkMXaj1MNcZUrJeZnWW-225" value="" style="whiteSpace=wrap;html=1;aspect=fixed;strokeWidth=0.5;strokeColor=#808080;fillColor=#000000;fontColor=#000099;" vertex="1" parent="1">
          <mxGeometry x="80" y="80" width="10" height="10" as="geometry" />
        </mxCell>
        <mxCell id="WxkMXaj1MNcZUrJeZnWW-226" value="" style="whiteSpace=wrap;html=1;aspect=fixed;strokeWidth=0.5;strokeColor=#808080;fillColor=#000000;fontColor=#000099;" vertex="1" parent="1">
          <mxGeometry x="80" y="90" width="10" height="10" as="geometry" />
        </mxCell>
        <mxCell id="WxkMXaj1MNcZUrJeZnWW-227" value="" style="whiteSpace=wrap;html=1;aspect=fixed;strokeWidth=0.5;strokeColor=#808080;fillColor=#000000;fontColor=#000099;" vertex="1" parent="1">
          <mxGeometry x="130" y="50" width="10" height="10" as="geometry" />
        </mxCell>
        <mxCell id="WxkMXaj1MNcZUrJeZnWW-228" value="" style="whiteSpace=wrap;html=1;aspect=fixed;strokeWidth=0.5;strokeColor=#808080;fillColor=#000000;fontColor=#000099;" vertex="1" parent="1">
          <mxGeometry x="130" y="60" width="10" height="10" as="geometry" />
        </mxCell>
        <mxCell id="WxkMXaj1MNcZUrJeZnWW-229" value="" style="whiteSpace=wrap;html=1;aspect=fixed;strokeWidth=0.5;strokeColor=#808080;fillColor=#000000;fontColor=#000099;" vertex="1" parent="1">
          <mxGeometry x="130" y="70" width="10" height="10" as="geometry" />
        </mxCell>
        <mxCell id="WxkMXaj1MNcZUrJeZnWW-230" value="" style="whiteSpace=wrap;html=1;aspect=fixed;strokeWidth=0.5;strokeColor=#808080;fillColor=#000000;fontColor=#000099;" vertex="1" parent="1">
          <mxGeometry x="130" y="80" width="10" height="10" as="geometry" />
        </mxCell>
        <mxCell id="WxkMXaj1MNcZUrJeZnWW-231" value="" style="whiteSpace=wrap;html=1;aspect=fixed;strokeWidth=0.5;strokeColor=#808080;fillColor=#000000;fontColor=#000099;" vertex="1" parent="1">
          <mxGeometry x="130" y="90" width="10" height="10" as="geometry" />
        </mxCell>
        <mxCell id="WxkMXaj1MNcZUrJeZnWW-232" value="" style="whiteSpace=wrap;html=1;aspect=fixed;strokeWidth=0.5;strokeColor=#808080;fillColor=#000000;fontColor=#000099;" vertex="1" parent="1">
          <mxGeometry x="130" y="100" width="10" height="10" as="geometry" />
        </mxCell>
        <mxCell id="WxkMXaj1MNcZUrJeZnWW-233" value="" style="whiteSpace=wrap;html=1;aspect=fixed;strokeWidth=0.5;strokeColor=#808080;fillColor=#000000;fontColor=#000099;" vertex="1" parent="1">
          <mxGeometry x="130" y="110" width="10" height="10" as="geometry" />
        </mxCell>
        <mxCell id="WxkMXaj1MNcZUrJeZnWW-248" value="" style="whiteSpace=wrap;html=1;aspect=fixed;strokeWidth=0.5;strokeColor=#808080;fillColor=#000000;fontColor=#000099;" vertex="1" parent="1">
          <mxGeometry x="120" y="50" width="10" height="10" as="geometry" />
        </mxCell>
        <mxCell id="WxkMXaj1MNcZUrJeZnWW-249" value="" style="whiteSpace=wrap;html=1;aspect=fixed;strokeWidth=0.5;strokeColor=#808080;fillColor=#000000;fontColor=#000099;" vertex="1" parent="1">
          <mxGeometry x="120" y="60" width="10" height="10" as="geometry" />
        </mxCell>
        <mxCell id="WxkMXaj1MNcZUrJeZnWW-250" value="" style="whiteSpace=wrap;html=1;aspect=fixed;strokeWidth=0.5;strokeColor=#808080;fillColor=#000000;fontColor=#000099;" vertex="1" parent="1">
          <mxGeometry x="120" y="70" width="10" height="10" as="geometry" />
        </mxCell>
        <mxCell id="WxkMXaj1MNcZUrJeZnWW-251" value="" style="whiteSpace=wrap;html=1;aspect=fixed;strokeWidth=0.5;strokeColor=#808080;fillColor=#000000;fontColor=#000099;" vertex="1" parent="1">
          <mxGeometry x="120" y="80" width="10" height="10" as="geometry" />
        </mxCell>
        <mxCell id="WxkMXaj1MNcZUrJeZnWW-252" value="" style="whiteSpace=wrap;html=1;aspect=fixed;strokeWidth=0.5;strokeColor=#808080;fillColor=#000000;fontColor=#000099;" vertex="1" parent="1">
          <mxGeometry x="120" y="90" width="10" height="10" as="geometry" />
        </mxCell>
        <mxCell id="WxkMXaj1MNcZUrJeZnWW-253" value="" style="whiteSpace=wrap;html=1;aspect=fixed;strokeWidth=0.5;strokeColor=#808080;fillColor=#000000;fontColor=#000099;" vertex="1" parent="1">
          <mxGeometry x="120" y="100" width="10" height="10" as="geometry" />
        </mxCell>
        <mxCell id="WxkMXaj1MNcZUrJeZnWW-254" value="" style="whiteSpace=wrap;html=1;aspect=fixed;strokeWidth=0.5;strokeColor=#808080;fillColor=#000000;fontColor=#000099;" vertex="1" parent="1">
          <mxGeometry x="120" y="110" width="10" height="10" as="geometry" />
        </mxCell>
        <mxCell id="WxkMXaj1MNcZUrJeZnWW-255" value="0" style="text;html=1;strokeColor=none;fillColor=none;align=center;verticalAlign=middle;whiteSpace=wrap;rounded=0;fontColor=#000099;fontSize=6;" vertex="1" parent="1">
          <mxGeometry x="70" y="240" width="10" height="10" as="geometry" />
        </mxCell>
        <mxCell id="WxkMXaj1MNcZUrJeZnWW-256" value="1" style="text;html=1;strokeColor=none;fillColor=none;align=center;verticalAlign=middle;whiteSpace=wrap;rounded=0;fontColor=#000099;fontSize=6;" vertex="1" parent="1">
          <mxGeometry x="70" y="230" width="10" height="10" as="geometry" />
        </mxCell>
        <mxCell id="WxkMXaj1MNcZUrJeZnWW-257" value="2" style="text;html=1;strokeColor=none;fillColor=none;align=center;verticalAlign=middle;whiteSpace=wrap;rounded=0;fontColor=#000099;fontSize=6;" vertex="1" parent="1">
          <mxGeometry x="70" y="220" width="10" height="10" as="geometry" />
        </mxCell>
        <mxCell id="WxkMXaj1MNcZUrJeZnWW-258" value="3" style="text;html=1;strokeColor=none;fillColor=none;align=center;verticalAlign=middle;whiteSpace=wrap;rounded=0;fontColor=#000099;fontSize=6;" vertex="1" parent="1">
          <mxGeometry x="70" y="210" width="10" height="10" as="geometry" />
        </mxCell>
        <mxCell id="WxkMXaj1MNcZUrJeZnWW-259" value="4" style="text;html=1;strokeColor=none;fillColor=none;align=center;verticalAlign=middle;whiteSpace=wrap;rounded=0;fontColor=#000099;fontSize=6;" vertex="1" parent="1">
          <mxGeometry x="70" y="200" width="10" height="10" as="geometry" />
        </mxCell>
        <mxCell id="WxkMXaj1MNcZUrJeZnWW-260" value="5" style="text;html=1;strokeColor=none;fillColor=none;align=center;verticalAlign=middle;whiteSpace=wrap;rounded=0;fontColor=#000099;fontSize=6;" vertex="1" parent="1">
          <mxGeometry x="70" y="190" width="10" height="10" as="geometry" />
        </mxCell>
        <mxCell id="WxkMXaj1MNcZUrJeZnWW-261" value="6" style="text;html=1;strokeColor=none;fillColor=none;align=center;verticalAlign=middle;whiteSpace=wrap;rounded=0;fontColor=#000099;fontSize=6;" vertex="1" parent="1">
          <mxGeometry x="70" y="180" width="10" height="10" as="geometry" />
        </mxCell>
        <mxCell id="WxkMXaj1MNcZUrJeZnWW-262" value="7" style="text;html=1;strokeColor=none;fillColor=none;align=center;verticalAlign=middle;whiteSpace=wrap;rounded=0;fontColor=#000099;fontSize=6;" vertex="1" parent="1">
          <mxGeometry x="70" y="170" width="10" height="10" as="geometry" />
        </mxCell>
        <mxCell id="WxkMXaj1MNcZUrJeZnWW-265" value="0" style="text;html=1;strokeColor=none;fillColor=none;align=center;verticalAlign=middle;whiteSpace=wrap;rounded=0;fontColor=#000099;fontSize=6;" vertex="1" parent="1">
          <mxGeometry x="70" y="100" width="10" height="10" as="geometry" />
        </mxCell>
        <mxCell id="WxkMXaj1MNcZUrJeZnWW-266" value="1" style="text;html=1;strokeColor=none;fillColor=none;align=center;verticalAlign=middle;whiteSpace=wrap;rounded=0;fontColor=#000099;fontSize=6;" vertex="1" parent="1">
          <mxGeometry x="70" y="90" width="10" height="10" as="geometry" />
        </mxCell>
        <mxCell id="WxkMXaj1MNcZUrJeZnWW-267" value="2" style="text;html=1;strokeColor=none;fillColor=none;align=center;verticalAlign=middle;whiteSpace=wrap;rounded=0;fontColor=#000099;fontSize=6;" vertex="1" parent="1">
          <mxGeometry x="70" y="80" width="10" height="10" as="geometry" />
        </mxCell>
        <mxCell id="WxkMXaj1MNcZUrJeZnWW-268" value="3" style="text;html=1;strokeColor=none;fillColor=none;align=center;verticalAlign=middle;whiteSpace=wrap;rounded=0;fontColor=#000099;fontSize=6;" vertex="1" parent="1">
          <mxGeometry x="70" y="70" width="10" height="10" as="geometry" />
        </mxCell>
        <mxCell id="WxkMXaj1MNcZUrJeZnWW-269" value="4" style="text;html=1;strokeColor=none;fillColor=none;align=center;verticalAlign=middle;whiteSpace=wrap;rounded=0;fontColor=#000099;fontSize=6;" vertex="1" parent="1">
          <mxGeometry x="70" y="60" width="10" height="10" as="geometry" />
        </mxCell>
        <mxCell id="WxkMXaj1MNcZUrJeZnWW-270" value="5" style="text;html=1;strokeColor=none;fillColor=none;align=center;verticalAlign=middle;whiteSpace=wrap;rounded=0;fontColor=#000099;fontSize=6;" vertex="1" parent="1">
          <mxGeometry x="70" y="50" width="10" height="10" as="geometry" />
        </mxCell>
        <mxCell id="WxkMXaj1MNcZUrJeZnWW-271" value="6" style="text;html=1;strokeColor=none;fillColor=none;align=center;verticalAlign=middle;whiteSpace=wrap;rounded=0;fontColor=#000099;fontSize=6;" vertex="1" parent="1">
          <mxGeometry x="70" y="40" width="10" height="10" as="geometry" />
        </mxCell>
        <mxCell id="WxkMXaj1MNcZUrJeZnWW-272" value="7" style="text;html=1;strokeColor=none;fillColor=none;align=center;verticalAlign=middle;whiteSpace=wrap;rounded=0;fontColor=#000099;fontSize=6;" vertex="1" parent="1">
          <mxGeometry x="70" y="30" width="10" height="10" as="geometry" />
        </mxCell>
        <mxCell id="WxkMXaj1MNcZUrJeZnWW-274" value="" style="whiteSpace=wrap;html=1;aspect=fixed;strokeWidth=0.5;strokeColor=#808080;fillColor=#000000;fontColor=#000099;" vertex="1" parent="1">
          <mxGeometry x="240" y="160" width="10" height="10" as="geometry" />
        </mxCell>
        <mxCell id="WxkMXaj1MNcZUrJeZnWW-275" value="" style="whiteSpace=wrap;html=1;aspect=fixed;strokeWidth=0.5;strokeColor=#808080;fillColor=#000000;fontColor=#000099;" vertex="1" parent="1">
          <mxGeometry x="250" y="160" width="10" height="10" as="geometry" />
        </mxCell>
        <mxCell id="WxkMXaj1MNcZUrJeZnWW-276" value="" style="whiteSpace=wrap;html=1;aspect=fixed;strokeWidth=0.5;strokeColor=#808080;fillColor=#000000;fontColor=#000099;" vertex="1" parent="1">
          <mxGeometry x="260" y="160" width="10" height="10" as="geometry" />
        </mxCell>
        <mxCell id="WxkMXaj1MNcZUrJeZnWW-277" value="" style="whiteSpace=wrap;html=1;aspect=fixed;strokeWidth=0.5;strokeColor=#808080;fillColor=#000000;fontColor=#000099;" vertex="1" parent="1">
          <mxGeometry x="270" y="160" width="10" height="10" as="geometry" />
        </mxCell>
        <mxCell id="WxkMXaj1MNcZUrJeZnWW-278" value="" style="whiteSpace=wrap;html=1;aspect=fixed;strokeWidth=0.5;strokeColor=#808080;fillColor=#000000;fontColor=#000099;" vertex="1" parent="1">
          <mxGeometry x="280" y="160" width="10" height="10" as="geometry" />
        </mxCell>
        <mxCell id="WxkMXaj1MNcZUrJeZnWW-279" value="" style="whiteSpace=wrap;html=1;aspect=fixed;strokeWidth=0.5;strokeColor=#808080;fillColor=#000000;fontColor=#000099;" vertex="1" parent="1">
          <mxGeometry x="290" y="160" width="10" height="10" as="geometry" />
        </mxCell>
        <mxCell id="WxkMXaj1MNcZUrJeZnWW-280" value="" style="whiteSpace=wrap;html=1;aspect=fixed;strokeWidth=0.5;strokeColor=#808080;fillColor=#000000;fontColor=#000099;" vertex="1" parent="1">
          <mxGeometry x="300" y="160" width="10" height="10" as="geometry" />
        </mxCell>
        <mxCell id="WxkMXaj1MNcZUrJeZnWW-281" value="" style="whiteSpace=wrap;html=1;aspect=fixed;strokeWidth=0.5;strokeColor=#808080;fillColor=#333333;fontColor=#000099;" vertex="1" parent="1">
          <mxGeometry x="240" y="170" width="10" height="10" as="geometry" />
        </mxCell>
        <mxCell id="WxkMXaj1MNcZUrJeZnWW-282" value="" style="whiteSpace=wrap;html=1;aspect=fixed;strokeWidth=0.5;strokeColor=#808080;fillColor=#666666;fontColor=#000099;" vertex="1" parent="1">
          <mxGeometry x="250" y="170" width="10" height="10" as="geometry" />
        </mxCell>
        <mxCell id="WxkMXaj1MNcZUrJeZnWW-283" value="" style="whiteSpace=wrap;html=1;aspect=fixed;strokeWidth=0.5;strokeColor=#808080;fillColor=#999999;fontColor=#000099;" vertex="1" parent="1">
          <mxGeometry x="260" y="170" width="10" height="10" as="geometry" />
        </mxCell>
        <mxCell id="WxkMXaj1MNcZUrJeZnWW-284" value="" style="whiteSpace=wrap;html=1;aspect=fixed;strokeWidth=0.5;strokeColor=#808080;fillColor=#CCCCCC;fontColor=#000099;" vertex="1" parent="1">
          <mxGeometry x="270" y="170" width="10" height="10" as="geometry" />
        </mxCell>
        <mxCell id="WxkMXaj1MNcZUrJeZnWW-285" value="" style="whiteSpace=wrap;html=1;aspect=fixed;strokeWidth=0.5;strokeColor=#808080;fillColor=#FFFFFF;fontColor=#000099;" vertex="1" parent="1">
          <mxGeometry x="280" y="170" width="10" height="10" as="geometry" />
        </mxCell>
        <mxCell id="WxkMXaj1MNcZUrJeZnWW-286" value="" style="whiteSpace=wrap;html=1;aspect=fixed;strokeWidth=0.5;strokeColor=#808080;fillColor=#000000;fontColor=#000099;" vertex="1" parent="1">
          <mxGeometry x="290" y="170" width="10" height="10" as="geometry" />
        </mxCell>
        <mxCell id="WxkMXaj1MNcZUrJeZnWW-287" value="" style="whiteSpace=wrap;html=1;aspect=fixed;strokeWidth=0.5;strokeColor=#808080;fillColor=#000000;fontColor=#000099;" vertex="1" parent="1">
          <mxGeometry x="300" y="170" width="10" height="10" as="geometry" />
        </mxCell>
        <mxCell id="WxkMXaj1MNcZUrJeZnWW-288" value="" style="whiteSpace=wrap;html=1;aspect=fixed;strokeWidth=0.5;strokeColor=#808080;fillColor=#000000;fontColor=#000099;" vertex="1" parent="1">
          <mxGeometry x="240" y="180" width="10" height="10" as="geometry" />
        </mxCell>
        <mxCell id="WxkMXaj1MNcZUrJeZnWW-289" value="" style="whiteSpace=wrap;html=1;aspect=fixed;strokeWidth=0.5;strokeColor=#808080;fillColor=#000000;fontColor=#000099;" vertex="1" parent="1">
          <mxGeometry x="250" y="180" width="10" height="10" as="geometry" />
        </mxCell>
        <mxCell id="WxkMXaj1MNcZUrJeZnWW-290" value="" style="whiteSpace=wrap;html=1;aspect=fixed;strokeWidth=0.5;strokeColor=#808080;fillColor=#000000;fontColor=#000099;" vertex="1" parent="1">
          <mxGeometry x="260" y="180" width="10" height="10" as="geometry" />
        </mxCell>
        <mxCell id="WxkMXaj1MNcZUrJeZnWW-291" value="" style="whiteSpace=wrap;html=1;aspect=fixed;strokeWidth=0.5;strokeColor=#808080;fillColor=#000000;fontColor=#000099;" vertex="1" parent="1">
          <mxGeometry x="270" y="180" width="10" height="10" as="geometry" />
        </mxCell>
        <mxCell id="WxkMXaj1MNcZUrJeZnWW-292" value="" style="whiteSpace=wrap;html=1;aspect=fixed;strokeWidth=0.5;strokeColor=#808080;fillColor=#000000;fontColor=#000099;" vertex="1" parent="1">
          <mxGeometry x="280" y="180" width="10" height="10" as="geometry" />
        </mxCell>
        <mxCell id="WxkMXaj1MNcZUrJeZnWW-293" value="" style="whiteSpace=wrap;html=1;aspect=fixed;strokeWidth=0.5;strokeColor=#808080;fillColor=#000000;fontColor=#000099;" vertex="1" parent="1">
          <mxGeometry x="290" y="180" width="10" height="10" as="geometry" />
        </mxCell>
        <mxCell id="WxkMXaj1MNcZUrJeZnWW-294" value="" style="whiteSpace=wrap;html=1;aspect=fixed;strokeWidth=0.5;strokeColor=#808080;fillColor=#000000;fontColor=#000099;" vertex="1" parent="1">
          <mxGeometry x="300" y="180" width="10" height="10" as="geometry" />
        </mxCell>
        <mxCell id="WxkMXaj1MNcZUrJeZnWW-295" value="" style="whiteSpace=wrap;html=1;aspect=fixed;strokeWidth=0.5;strokeColor=#808080;fillColor=#000000;fontColor=#000099;" vertex="1" parent="1">
          <mxGeometry x="240" y="190" width="10" height="10" as="geometry" />
        </mxCell>
        <mxCell id="WxkMXaj1MNcZUrJeZnWW-296" value="" style="whiteSpace=wrap;html=1;aspect=fixed;strokeWidth=0.5;strokeColor=#808080;fillColor=#000000;fontColor=#000099;" vertex="1" parent="1">
          <mxGeometry x="250" y="190" width="10" height="10" as="geometry" />
        </mxCell>
        <mxCell id="WxkMXaj1MNcZUrJeZnWW-297" value="" style="whiteSpace=wrap;html=1;aspect=fixed;strokeWidth=0.5;strokeColor=#808080;fillColor=#000000;fontColor=#000099;" vertex="1" parent="1">
          <mxGeometry x="260" y="190" width="10" height="10" as="geometry" />
        </mxCell>
        <mxCell id="WxkMXaj1MNcZUrJeZnWW-298" value="" style="whiteSpace=wrap;html=1;aspect=fixed;strokeWidth=0.5;strokeColor=#808080;fillColor=#000000;fontColor=#000099;" vertex="1" parent="1">
          <mxGeometry x="270" y="190" width="10" height="10" as="geometry" />
        </mxCell>
        <mxCell id="WxkMXaj1MNcZUrJeZnWW-299" value="" style="whiteSpace=wrap;html=1;aspect=fixed;strokeWidth=0.5;strokeColor=#808080;fillColor=#000000;fontColor=#000099;" vertex="1" parent="1">
          <mxGeometry x="280" y="190" width="10" height="10" as="geometry" />
        </mxCell>
        <mxCell id="WxkMXaj1MNcZUrJeZnWW-300" value="" style="whiteSpace=wrap;html=1;aspect=fixed;strokeWidth=0.5;strokeColor=#808080;fillColor=#000000;fontColor=#000099;" vertex="1" parent="1">
          <mxGeometry x="290" y="190" width="10" height="10" as="geometry" />
        </mxCell>
        <mxCell id="WxkMXaj1MNcZUrJeZnWW-301" value="" style="whiteSpace=wrap;html=1;aspect=fixed;strokeWidth=0.5;strokeColor=#808080;fillColor=#000000;fontColor=#000099;" vertex="1" parent="1">
          <mxGeometry x="300" y="190" width="10" height="10" as="geometry" />
        </mxCell>
        <mxCell id="WxkMXaj1MNcZUrJeZnWW-316" value="" style="whiteSpace=wrap;html=1;aspect=fixed;strokeWidth=0.5;strokeColor=#808080;fillColor=#000000;fontColor=#000099;" vertex="1" parent="1">
          <mxGeometry x="240" y="200" width="10" height="10" as="geometry" />
        </mxCell>
        <mxCell id="WxkMXaj1MNcZUrJeZnWW-317" value="" style="whiteSpace=wrap;html=1;aspect=fixed;strokeWidth=0.5;strokeColor=#808080;fillColor=#000000;fontColor=#000099;" vertex="1" parent="1">
          <mxGeometry x="250" y="200" width="10" height="10" as="geometry" />
        </mxCell>
        <mxCell id="WxkMXaj1MNcZUrJeZnWW-318" value="" style="whiteSpace=wrap;html=1;aspect=fixed;strokeWidth=0.5;strokeColor=#808080;fillColor=#000000;fontColor=#000099;" vertex="1" parent="1">
          <mxGeometry x="260" y="200" width="10" height="10" as="geometry" />
        </mxCell>
        <mxCell id="WxkMXaj1MNcZUrJeZnWW-319" value="" style="whiteSpace=wrap;html=1;aspect=fixed;strokeWidth=0.5;strokeColor=#808080;fillColor=#000000;fontColor=#000099;" vertex="1" parent="1">
          <mxGeometry x="270" y="200" width="10" height="10" as="geometry" />
        </mxCell>
        <mxCell id="WxkMXaj1MNcZUrJeZnWW-320" value="" style="whiteSpace=wrap;html=1;aspect=fixed;strokeWidth=0.5;strokeColor=#808080;fillColor=#000000;fontColor=#000099;" vertex="1" parent="1">
          <mxGeometry x="280" y="200" width="10" height="10" as="geometry" />
        </mxCell>
        <mxCell id="WxkMXaj1MNcZUrJeZnWW-321" value="" style="whiteSpace=wrap;html=1;aspect=fixed;strokeWidth=0.5;strokeColor=#808080;fillColor=#000000;fontColor=#000099;" vertex="1" parent="1">
          <mxGeometry x="290" y="200" width="10" height="10" as="geometry" />
        </mxCell>
        <mxCell id="WxkMXaj1MNcZUrJeZnWW-322" value="" style="whiteSpace=wrap;html=1;aspect=fixed;strokeWidth=0.5;strokeColor=#808080;fillColor=#000000;fontColor=#000099;" vertex="1" parent="1">
          <mxGeometry x="300" y="200" width="10" height="10" as="geometry" />
        </mxCell>
        <mxCell id="WxkMXaj1MNcZUrJeZnWW-323" value="" style="whiteSpace=wrap;html=1;aspect=fixed;strokeWidth=0.5;strokeColor=#808080;fillColor=#000000;fontColor=#000099;" vertex="1" parent="1">
          <mxGeometry x="310" y="160" width="10" height="10" as="geometry" />
        </mxCell>
        <mxCell id="WxkMXaj1MNcZUrJeZnWW-324" value="" style="whiteSpace=wrap;html=1;aspect=fixed;strokeWidth=0.5;strokeColor=#808080;fillColor=#000000;fontColor=#000099;" vertex="1" parent="1">
          <mxGeometry x="310" y="170" width="10" height="10" as="geometry" />
        </mxCell>
        <mxCell id="WxkMXaj1MNcZUrJeZnWW-325" value="" style="whiteSpace=wrap;html=1;aspect=fixed;strokeWidth=0.5;strokeColor=#808080;fillColor=#000000;fontColor=#000099;" vertex="1" parent="1">
          <mxGeometry x="310" y="180" width="10" height="10" as="geometry" />
        </mxCell>
        <mxCell id="WxkMXaj1MNcZUrJeZnWW-326" value="" style="whiteSpace=wrap;html=1;aspect=fixed;strokeWidth=0.5;strokeColor=#808080;fillColor=#000000;fontColor=#000099;" vertex="1" parent="1">
          <mxGeometry x="310" y="190" width="10" height="10" as="geometry" />
        </mxCell>
        <mxCell id="WxkMXaj1MNcZUrJeZnWW-329" value="" style="whiteSpace=wrap;html=1;aspect=fixed;strokeWidth=0.5;strokeColor=#808080;fillColor=#000000;fontColor=#000099;" vertex="1" parent="1">
          <mxGeometry x="310" y="200" width="10" height="10" as="geometry" />
        </mxCell>
        <mxCell id="WxkMXaj1MNcZUrJeZnWW-330" value="" style="whiteSpace=wrap;html=1;aspect=fixed;strokeWidth=0.5;strokeColor=#808080;fillColor=#000000;fontColor=#000099;" vertex="1" parent="1">
          <mxGeometry x="320" y="160" width="10" height="10" as="geometry" />
        </mxCell>
        <mxCell id="WxkMXaj1MNcZUrJeZnWW-331" value="" style="whiteSpace=wrap;html=1;aspect=fixed;strokeWidth=0.5;strokeColor=#808080;fillColor=#000000;fontColor=#000099;" vertex="1" parent="1">
          <mxGeometry x="320" y="170" width="10" height="10" as="geometry" />
        </mxCell>
        <mxCell id="WxkMXaj1MNcZUrJeZnWW-332" value="" style="whiteSpace=wrap;html=1;aspect=fixed;strokeWidth=0.5;strokeColor=#808080;fillColor=#000000;fontColor=#000099;" vertex="1" parent="1">
          <mxGeometry x="320" y="180" width="10" height="10" as="geometry" />
        </mxCell>
        <mxCell id="WxkMXaj1MNcZUrJeZnWW-333" value="" style="whiteSpace=wrap;html=1;aspect=fixed;strokeWidth=0.5;strokeColor=#808080;fillColor=#000000;fontColor=#000099;" vertex="1" parent="1">
          <mxGeometry x="320" y="190" width="10" height="10" as="geometry" />
        </mxCell>
        <mxCell id="WxkMXaj1MNcZUrJeZnWW-336" value="" style="whiteSpace=wrap;html=1;aspect=fixed;strokeWidth=0.5;strokeColor=#808080;fillColor=#000000;fontColor=#000099;" vertex="1" parent="1">
          <mxGeometry x="320" y="200" width="10" height="10" as="geometry" />
        </mxCell>
        <mxCell id="WxkMXaj1MNcZUrJeZnWW-337" value="" style="whiteSpace=wrap;html=1;aspect=fixed;strokeWidth=0.5;strokeColor=#808080;fillColor=#000000;fontColor=#000099;" vertex="1" parent="1">
          <mxGeometry x="240" y="220" width="10" height="10" as="geometry" />
        </mxCell>
        <mxCell id="WxkMXaj1MNcZUrJeZnWW-338" value="" style="whiteSpace=wrap;html=1;aspect=fixed;strokeWidth=0.5;strokeColor=#808080;fillColor=#000000;fontColor=#000099;" vertex="1" parent="1">
          <mxGeometry x="250" y="220" width="10" height="10" as="geometry" />
        </mxCell>
        <mxCell id="WxkMXaj1MNcZUrJeZnWW-339" value="" style="whiteSpace=wrap;html=1;aspect=fixed;strokeWidth=0.5;strokeColor=#808080;fillColor=#000000;fontColor=#000099;" vertex="1" parent="1">
          <mxGeometry x="260" y="220" width="10" height="10" as="geometry" />
        </mxCell>
        <mxCell id="WxkMXaj1MNcZUrJeZnWW-340" value="" style="whiteSpace=wrap;html=1;aspect=fixed;strokeWidth=0.5;strokeColor=#808080;fillColor=#000000;fontColor=#000099;" vertex="1" parent="1">
          <mxGeometry x="270" y="220" width="10" height="10" as="geometry" />
        </mxCell>
        <mxCell id="WxkMXaj1MNcZUrJeZnWW-341" value="" style="whiteSpace=wrap;html=1;aspect=fixed;strokeWidth=0.5;strokeColor=#808080;fillColor=#000000;fontColor=#000099;" vertex="1" parent="1">
          <mxGeometry x="280" y="220" width="10" height="10" as="geometry" />
        </mxCell>
        <mxCell id="WxkMXaj1MNcZUrJeZnWW-342" value="" style="whiteSpace=wrap;html=1;aspect=fixed;strokeWidth=0.5;strokeColor=#808080;fillColor=#FFFFFF;fontColor=#000099;" vertex="1" parent="1">
          <mxGeometry x="290" y="220" width="10" height="10" as="geometry" />
        </mxCell>
        <mxCell id="WxkMXaj1MNcZUrJeZnWW-343" value="" style="whiteSpace=wrap;html=1;aspect=fixed;strokeWidth=0.5;strokeColor=#808080;fillColor=#CCCCCC;fontColor=#000099;" vertex="1" parent="1">
          <mxGeometry x="300" y="220" width="10" height="10" as="geometry" />
        </mxCell>
        <mxCell id="WxkMXaj1MNcZUrJeZnWW-344" value="" style="whiteSpace=wrap;html=1;aspect=fixed;strokeWidth=0.5;strokeColor=#808080;fillColor=#000000;fontColor=#000099;" vertex="1" parent="1">
          <mxGeometry x="240" y="230" width="10" height="10" as="geometry" />
        </mxCell>
        <mxCell id="WxkMXaj1MNcZUrJeZnWW-345" value="" style="whiteSpace=wrap;html=1;aspect=fixed;strokeWidth=0.5;strokeColor=#808080;fillColor=#000000;fontColor=#000099;" vertex="1" parent="1">
          <mxGeometry x="250" y="230" width="10" height="10" as="geometry" />
        </mxCell>
        <mxCell id="WxkMXaj1MNcZUrJeZnWW-346" value="" style="whiteSpace=wrap;html=1;aspect=fixed;strokeWidth=0.5;strokeColor=#808080;fillColor=#000000;fontColor=#000099;" vertex="1" parent="1">
          <mxGeometry x="260" y="230" width="10" height="10" as="geometry" />
        </mxCell>
        <mxCell id="WxkMXaj1MNcZUrJeZnWW-347" value="" style="whiteSpace=wrap;html=1;aspect=fixed;strokeWidth=0.5;strokeColor=#808080;fillColor=#000000;fontColor=#000099;" vertex="1" parent="1">
          <mxGeometry x="270" y="230" width="10" height="10" as="geometry" />
        </mxCell>
        <mxCell id="WxkMXaj1MNcZUrJeZnWW-348" value="" style="whiteSpace=wrap;html=1;aspect=fixed;strokeWidth=0.5;strokeColor=#808080;fillColor=#000000;fontColor=#000099;" vertex="1" parent="1">
          <mxGeometry x="280" y="230" width="10" height="10" as="geometry" />
        </mxCell>
        <mxCell id="WxkMXaj1MNcZUrJeZnWW-349" value="" style="whiteSpace=wrap;html=1;aspect=fixed;strokeWidth=0.5;strokeColor=#808080;fillColor=#000000;fontColor=#000099;" vertex="1" parent="1">
          <mxGeometry x="290" y="230" width="10" height="10" as="geometry" />
        </mxCell>
        <mxCell id="WxkMXaj1MNcZUrJeZnWW-350" value="" style="whiteSpace=wrap;html=1;aspect=fixed;strokeWidth=0.5;strokeColor=#808080;fillColor=#000000;fontColor=#000099;" vertex="1" parent="1">
          <mxGeometry x="300" y="230" width="10" height="10" as="geometry" />
        </mxCell>
        <mxCell id="WxkMXaj1MNcZUrJeZnWW-351" value="" style="whiteSpace=wrap;html=1;aspect=fixed;strokeWidth=0.5;strokeColor=#808080;fillColor=#999999;fontColor=#000099;" vertex="1" parent="1">
          <mxGeometry x="310" y="220" width="10" height="10" as="geometry" />
        </mxCell>
        <mxCell id="WxkMXaj1MNcZUrJeZnWW-352" value="" style="whiteSpace=wrap;html=1;aspect=fixed;strokeWidth=0.5;strokeColor=#808080;fillColor=#000000;fontColor=#000099;" vertex="1" parent="1">
          <mxGeometry x="310" y="230" width="10" height="10" as="geometry" />
        </mxCell>
        <mxCell id="WxkMXaj1MNcZUrJeZnWW-353" value="" style="whiteSpace=wrap;html=1;aspect=fixed;strokeWidth=0.5;strokeColor=#808080;fillColor=#666666;fontColor=#000099;" vertex="1" parent="1">
          <mxGeometry x="320" y="220" width="10" height="10" as="geometry" />
        </mxCell>
        <mxCell id="WxkMXaj1MNcZUrJeZnWW-354" value="" style="whiteSpace=wrap;html=1;aspect=fixed;strokeWidth=0.5;strokeColor=#808080;fillColor=#000000;fontColor=#000099;" vertex="1" parent="1">
          <mxGeometry x="320" y="230" width="10" height="10" as="geometry" />
        </mxCell>
        <mxCell id="WxkMXaj1MNcZUrJeZnWW-355" value="" style="whiteSpace=wrap;html=1;aspect=fixed;strokeWidth=0.5;strokeColor=#808080;fillColor=#000000;fontColor=#000099;" vertex="1" parent="1">
          <mxGeometry x="240" y="210" width="10" height="10" as="geometry" />
        </mxCell>
        <mxCell id="WxkMXaj1MNcZUrJeZnWW-356" value="" style="whiteSpace=wrap;html=1;aspect=fixed;strokeWidth=0.5;strokeColor=#808080;fillColor=#000000;fontColor=#000099;" vertex="1" parent="1">
          <mxGeometry x="250" y="210" width="10" height="10" as="geometry" />
        </mxCell>
        <mxCell id="WxkMXaj1MNcZUrJeZnWW-357" value="" style="whiteSpace=wrap;html=1;aspect=fixed;strokeWidth=0.5;strokeColor=#808080;fillColor=#000000;fontColor=#000099;" vertex="1" parent="1">
          <mxGeometry x="260" y="210" width="10" height="10" as="geometry" />
        </mxCell>
        <mxCell id="WxkMXaj1MNcZUrJeZnWW-358" value="" style="whiteSpace=wrap;html=1;aspect=fixed;strokeWidth=0.5;strokeColor=#808080;fillColor=#000000;fontColor=#000099;" vertex="1" parent="1">
          <mxGeometry x="270" y="210" width="10" height="10" as="geometry" />
        </mxCell>
        <mxCell id="WxkMXaj1MNcZUrJeZnWW-359" value="" style="whiteSpace=wrap;html=1;aspect=fixed;strokeWidth=0.5;strokeColor=#808080;fillColor=#000000;fontColor=#000099;" vertex="1" parent="1">
          <mxGeometry x="280" y="210" width="10" height="10" as="geometry" />
        </mxCell>
        <mxCell id="WxkMXaj1MNcZUrJeZnWW-360" value="" style="whiteSpace=wrap;html=1;aspect=fixed;strokeWidth=0.5;strokeColor=#808080;fillColor=#000000;fontColor=#000099;" vertex="1" parent="1">
          <mxGeometry x="290" y="210" width="10" height="10" as="geometry" />
        </mxCell>
        <mxCell id="WxkMXaj1MNcZUrJeZnWW-361" value="" style="whiteSpace=wrap;html=1;aspect=fixed;strokeWidth=0.5;strokeColor=#808080;fillColor=#000000;fontColor=#000099;" vertex="1" parent="1">
          <mxGeometry x="300" y="210" width="10" height="10" as="geometry" />
        </mxCell>
        <mxCell id="WxkMXaj1MNcZUrJeZnWW-362" value="" style="whiteSpace=wrap;html=1;aspect=fixed;strokeWidth=0.5;strokeColor=#808080;fillColor=#000000;fontColor=#000099;" vertex="1" parent="1">
          <mxGeometry x="310" y="210" width="10" height="10" as="geometry" />
        </mxCell>
        <mxCell id="WxkMXaj1MNcZUrJeZnWW-363" value="" style="whiteSpace=wrap;html=1;aspect=fixed;strokeWidth=0.5;strokeColor=#808080;fillColor=#000000;fontColor=#000099;" vertex="1" parent="1">
          <mxGeometry x="320" y="210" width="10" height="10" as="geometry" />
        </mxCell>
        <mxCell id="WxkMXaj1MNcZUrJeZnWW-364" value="" style="whiteSpace=wrap;html=1;aspect=fixed;strokeWidth=0.5;strokeColor=#808080;fillColor=#000000;fontColor=#000099;" vertex="1" parent="1">
          <mxGeometry x="330" y="160" width="10" height="10" as="geometry" />
        </mxCell>
        <mxCell id="WxkMXaj1MNcZUrJeZnWW-365" value="" style="whiteSpace=wrap;html=1;aspect=fixed;strokeWidth=0.5;strokeColor=#808080;fillColor=#000000;fontColor=#000099;" vertex="1" parent="1">
          <mxGeometry x="330" y="170" width="10" height="10" as="geometry" />
        </mxCell>
        <mxCell id="WxkMXaj1MNcZUrJeZnWW-366" value="" style="whiteSpace=wrap;html=1;aspect=fixed;strokeWidth=0.5;strokeColor=#808080;fillColor=#000000;fontColor=#000099;" vertex="1" parent="1">
          <mxGeometry x="330" y="180" width="10" height="10" as="geometry" />
        </mxCell>
        <mxCell id="WxkMXaj1MNcZUrJeZnWW-367" value="" style="whiteSpace=wrap;html=1;aspect=fixed;strokeWidth=0.5;strokeColor=#808080;fillColor=#000000;fontColor=#000099;" vertex="1" parent="1">
          <mxGeometry x="330" y="190" width="10" height="10" as="geometry" />
        </mxCell>
        <mxCell id="WxkMXaj1MNcZUrJeZnWW-370" value="" style="whiteSpace=wrap;html=1;aspect=fixed;strokeWidth=0.5;strokeColor=#808080;fillColor=#000000;fontColor=#000099;" vertex="1" parent="1">
          <mxGeometry x="330" y="200" width="10" height="10" as="geometry" />
        </mxCell>
        <mxCell id="WxkMXaj1MNcZUrJeZnWW-371" value="" style="whiteSpace=wrap;html=1;aspect=fixed;strokeWidth=0.5;strokeColor=#808080;fillColor=#333333;fontColor=#000099;" vertex="1" parent="1">
          <mxGeometry x="330" y="220" width="10" height="10" as="geometry" />
        </mxCell>
        <mxCell id="WxkMXaj1MNcZUrJeZnWW-372" value="" style="whiteSpace=wrap;html=1;aspect=fixed;strokeWidth=0.5;strokeColor=#808080;fillColor=#000000;fontColor=#000099;" vertex="1" parent="1">
          <mxGeometry x="330" y="230" width="10" height="10" as="geometry" />
        </mxCell>
        <mxCell id="WxkMXaj1MNcZUrJeZnWW-373" value="" style="whiteSpace=wrap;html=1;aspect=fixed;strokeWidth=0.5;strokeColor=#808080;fillColor=#000000;fontColor=#000099;" vertex="1" parent="1">
          <mxGeometry x="330" y="210" width="10" height="10" as="geometry" />
        </mxCell>
        <mxCell id="WxkMXaj1MNcZUrJeZnWW-374" value="" style="whiteSpace=wrap;html=1;aspect=fixed;strokeWidth=0.5;strokeColor=#808080;fillColor=#000000;fontColor=#000099;" vertex="1" parent="1">
          <mxGeometry x="260" y="20" width="10" height="10" as="geometry" />
        </mxCell>
        <mxCell id="WxkMXaj1MNcZUrJeZnWW-375" value="" style="whiteSpace=wrap;html=1;aspect=fixed;strokeWidth=0.5;strokeColor=#808080;fillColor=#000000;fontColor=#000099;" vertex="1" parent="1">
          <mxGeometry x="270" y="20" width="10" height="10" as="geometry" />
        </mxCell>
        <mxCell id="WxkMXaj1MNcZUrJeZnWW-376" value="" style="whiteSpace=wrap;html=1;aspect=fixed;strokeWidth=0.5;strokeColor=#808080;fillColor=#000000;fontColor=#000099;" vertex="1" parent="1">
          <mxGeometry x="280" y="20" width="10" height="10" as="geometry" />
        </mxCell>
        <mxCell id="WxkMXaj1MNcZUrJeZnWW-377" value="" style="whiteSpace=wrap;html=1;aspect=fixed;strokeWidth=0.5;strokeColor=#808080;fillColor=#FFFFFF;fontColor=#000099;" vertex="1" parent="1">
          <mxGeometry x="260" y="30" width="10" height="10" as="geometry" />
        </mxCell>
        <mxCell id="WxkMXaj1MNcZUrJeZnWW-378" value="" style="whiteSpace=wrap;html=1;aspect=fixed;strokeWidth=0.5;strokeColor=#808080;fillColor=#000000;fontColor=#000099;" vertex="1" parent="1">
          <mxGeometry x="270" y="30" width="10" height="10" as="geometry" />
        </mxCell>
        <mxCell id="WxkMXaj1MNcZUrJeZnWW-379" value="" style="whiteSpace=wrap;html=1;aspect=fixed;strokeWidth=0.5;strokeColor=#808080;fillColor=#000000;fontColor=#000099;" vertex="1" parent="1">
          <mxGeometry x="280" y="30" width="10" height="10" as="geometry" />
        </mxCell>
        <mxCell id="WxkMXaj1MNcZUrJeZnWW-380" value="" style="whiteSpace=wrap;html=1;aspect=fixed;strokeWidth=0.5;strokeColor=#808080;fillColor=#000000;fontColor=#000099;" vertex="1" parent="1">
          <mxGeometry x="260" y="40" width="10" height="10" as="geometry" />
        </mxCell>
        <mxCell id="WxkMXaj1MNcZUrJeZnWW-381" value="" style="whiteSpace=wrap;html=1;aspect=fixed;strokeWidth=0.5;strokeColor=#808080;fillColor=#000000;fontColor=#000099;" vertex="1" parent="1">
          <mxGeometry x="270" y="40" width="10" height="10" as="geometry" />
        </mxCell>
        <mxCell id="WxkMXaj1MNcZUrJeZnWW-382" value="" style="whiteSpace=wrap;html=1;aspect=fixed;strokeWidth=0.5;strokeColor=#808080;fillColor=#000000;fontColor=#000099;" vertex="1" parent="1">
          <mxGeometry x="280" y="40" width="10" height="10" as="geometry" />
        </mxCell>
        <mxCell id="WxkMXaj1MNcZUrJeZnWW-383" value="" style="whiteSpace=wrap;html=1;aspect=fixed;strokeWidth=0.5;strokeColor=#808080;fillColor=#000000;fontColor=#000099;" vertex="1" parent="1">
          <mxGeometry x="260" y="50" width="10" height="10" as="geometry" />
        </mxCell>
        <mxCell id="WxkMXaj1MNcZUrJeZnWW-384" value="" style="whiteSpace=wrap;html=1;aspect=fixed;strokeWidth=0.5;strokeColor=#808080;fillColor=#000000;fontColor=#000099;" vertex="1" parent="1">
          <mxGeometry x="270" y="50" width="10" height="10" as="geometry" />
        </mxCell>
        <mxCell id="WxkMXaj1MNcZUrJeZnWW-389" value="" style="whiteSpace=wrap;html=1;aspect=fixed;strokeWidth=0.5;strokeColor=#808080;fillColor=#000000;fontColor=#000099;" vertex="1" parent="1">
          <mxGeometry x="260" y="60" width="10" height="10" as="geometry" />
        </mxCell>
        <mxCell id="WxkMXaj1MNcZUrJeZnWW-390" value="" style="whiteSpace=wrap;html=1;aspect=fixed;strokeWidth=0.5;strokeColor=#808080;fillColor=#000000;fontColor=#000099;" vertex="1" parent="1">
          <mxGeometry x="270" y="60" width="10" height="10" as="geometry" />
        </mxCell>
        <mxCell id="WxkMXaj1MNcZUrJeZnWW-391" value="" style="whiteSpace=wrap;html=1;aspect=fixed;strokeWidth=0.5;strokeColor=#808080;fillColor=#000000;fontColor=#000099;" vertex="1" parent="1">
          <mxGeometry x="290" y="20" width="10" height="10" as="geometry" />
        </mxCell>
        <mxCell id="WxkMXaj1MNcZUrJeZnWW-392" value="" style="whiteSpace=wrap;html=1;aspect=fixed;strokeWidth=0.5;strokeColor=#808080;fillColor=#000000;fontColor=#000099;" vertex="1" parent="1">
          <mxGeometry x="290" y="30" width="10" height="10" as="geometry" />
        </mxCell>
        <mxCell id="WxkMXaj1MNcZUrJeZnWW-393" value="" style="whiteSpace=wrap;html=1;aspect=fixed;strokeWidth=0.5;strokeColor=#808080;fillColor=#000000;fontColor=#000099;" vertex="1" parent="1">
          <mxGeometry x="290" y="40" width="10" height="10" as="geometry" />
        </mxCell>
        <mxCell id="WxkMXaj1MNcZUrJeZnWW-394" value="" style="whiteSpace=wrap;html=1;aspect=fixed;strokeWidth=0.5;strokeColor=#808080;fillColor=#000000;fontColor=#000099;" vertex="1" parent="1">
          <mxGeometry x="240" y="80" width="10" height="10" as="geometry" />
        </mxCell>
        <mxCell id="WxkMXaj1MNcZUrJeZnWW-395" value="" style="whiteSpace=wrap;html=1;aspect=fixed;strokeWidth=0.5;strokeColor=#808080;fillColor=#000000;fontColor=#000099;" vertex="1" parent="1">
          <mxGeometry x="250" y="80" width="10" height="10" as="geometry" />
        </mxCell>
        <mxCell id="WxkMXaj1MNcZUrJeZnWW-396" value="" style="whiteSpace=wrap;html=1;aspect=fixed;strokeWidth=0.5;strokeColor=#808080;fillColor=#000000;fontColor=#000099;" vertex="1" parent="1">
          <mxGeometry x="260" y="80" width="10" height="10" as="geometry" />
        </mxCell>
        <mxCell id="WxkMXaj1MNcZUrJeZnWW-397" value="" style="whiteSpace=wrap;html=1;aspect=fixed;strokeWidth=0.5;strokeColor=#808080;fillColor=#FFFFFF;fontColor=#000099;" vertex="1" parent="1">
          <mxGeometry x="270" y="80" width="10" height="10" as="geometry" />
        </mxCell>
        <mxCell id="WxkMXaj1MNcZUrJeZnWW-398" value="" style="whiteSpace=wrap;html=1;aspect=fixed;strokeWidth=0.5;strokeColor=#808080;fillColor=#000000;fontColor=#000099;" vertex="1" parent="1">
          <mxGeometry x="240" y="90" width="10" height="10" as="geometry" />
        </mxCell>
        <mxCell id="WxkMXaj1MNcZUrJeZnWW-399" value="" style="whiteSpace=wrap;html=1;aspect=fixed;strokeWidth=0.5;strokeColor=#808080;fillColor=#000000;fontColor=#000099;" vertex="1" parent="1">
          <mxGeometry x="250" y="90" width="10" height="10" as="geometry" />
        </mxCell>
        <mxCell id="WxkMXaj1MNcZUrJeZnWW-400" value="" style="whiteSpace=wrap;html=1;aspect=fixed;strokeWidth=0.5;strokeColor=#808080;fillColor=#000000;fontColor=#000099;" vertex="1" parent="1">
          <mxGeometry x="260" y="90" width="10" height="10" as="geometry" />
        </mxCell>
        <mxCell id="WxkMXaj1MNcZUrJeZnWW-401" value="" style="whiteSpace=wrap;html=1;aspect=fixed;strokeWidth=0.5;strokeColor=#808080;fillColor=#000000;fontColor=#000099;" vertex="1" parent="1">
          <mxGeometry x="270" y="90" width="10" height="10" as="geometry" />
        </mxCell>
        <mxCell id="WxkMXaj1MNcZUrJeZnWW-402" value="" style="whiteSpace=wrap;html=1;aspect=fixed;strokeWidth=0.5;strokeColor=#808080;fillColor=#000000;fontColor=#000099;" vertex="1" parent="1">
          <mxGeometry x="260" y="70" width="10" height="10" as="geometry" />
        </mxCell>
        <mxCell id="WxkMXaj1MNcZUrJeZnWW-403" value="" style="whiteSpace=wrap;html=1;aspect=fixed;strokeWidth=0.5;strokeColor=#808080;fillColor=#000000;fontColor=#000099;" vertex="1" parent="1">
          <mxGeometry x="270" y="70" width="10" height="10" as="geometry" />
        </mxCell>
        <mxCell id="WxkMXaj1MNcZUrJeZnWW-404" value="" style="whiteSpace=wrap;html=1;aspect=fixed;strokeWidth=0.5;strokeColor=#808080;fillColor=#000000;fontColor=#000099;" vertex="1" parent="1">
          <mxGeometry x="250" y="20" width="10" height="10" as="geometry" />
        </mxCell>
        <mxCell id="WxkMXaj1MNcZUrJeZnWW-405" value="" style="whiteSpace=wrap;html=1;aspect=fixed;strokeWidth=0.5;strokeColor=#808080;fillColor=#000000;fontColor=#000099;" vertex="1" parent="1">
          <mxGeometry x="250" y="30" width="10" height="10" as="geometry" />
        </mxCell>
        <mxCell id="WxkMXaj1MNcZUrJeZnWW-406" value="" style="whiteSpace=wrap;html=1;aspect=fixed;strokeWidth=0.5;strokeColor=#808080;fillColor=#000000;fontColor=#000099;" vertex="1" parent="1">
          <mxGeometry x="250" y="40" width="10" height="10" as="geometry" />
        </mxCell>
        <mxCell id="WxkMXaj1MNcZUrJeZnWW-407" value="" style="whiteSpace=wrap;html=1;aspect=fixed;strokeWidth=0.5;strokeColor=#808080;fillColor=#000000;fontColor=#000099;" vertex="1" parent="1">
          <mxGeometry x="250" y="50" width="10" height="10" as="geometry" />
        </mxCell>
        <mxCell id="WxkMXaj1MNcZUrJeZnWW-410" value="" style="whiteSpace=wrap;html=1;aspect=fixed;strokeWidth=0.5;strokeColor=#808080;fillColor=#000000;fontColor=#000099;" vertex="1" parent="1">
          <mxGeometry x="250" y="60" width="10" height="10" as="geometry" />
        </mxCell>
        <mxCell id="WxkMXaj1MNcZUrJeZnWW-411" value="" style="whiteSpace=wrap;html=1;aspect=fixed;strokeWidth=0.5;strokeColor=#808080;fillColor=#000000;fontColor=#000099;" vertex="1" parent="1">
          <mxGeometry x="250" y="70" width="10" height="10" as="geometry" />
        </mxCell>
        <mxCell id="WxkMXaj1MNcZUrJeZnWW-412" value="" style="whiteSpace=wrap;html=1;aspect=fixed;strokeWidth=0.5;strokeColor=#808080;fillColor=#000000;fontColor=#000099;" vertex="1" parent="1">
          <mxGeometry x="240" y="20" width="10" height="10" as="geometry" />
        </mxCell>
        <mxCell id="WxkMXaj1MNcZUrJeZnWW-413" value="" style="whiteSpace=wrap;html=1;aspect=fixed;strokeWidth=0.5;strokeColor=#808080;fillColor=#000000;fontColor=#000099;" vertex="1" parent="1">
          <mxGeometry x="240" y="30" width="10" height="10" as="geometry" />
        </mxCell>
        <mxCell id="WxkMXaj1MNcZUrJeZnWW-414" value="" style="whiteSpace=wrap;html=1;aspect=fixed;strokeWidth=0.5;strokeColor=#808080;fillColor=#000000;fontColor=#000099;" vertex="1" parent="1">
          <mxGeometry x="240" y="40" width="10" height="10" as="geometry" />
        </mxCell>
        <mxCell id="WxkMXaj1MNcZUrJeZnWW-415" value="" style="whiteSpace=wrap;html=1;aspect=fixed;strokeWidth=0.5;strokeColor=#808080;fillColor=#000000;fontColor=#000099;" vertex="1" parent="1">
          <mxGeometry x="240" y="50" width="10" height="10" as="geometry" />
        </mxCell>
        <mxCell id="WxkMXaj1MNcZUrJeZnWW-418" value="" style="whiteSpace=wrap;html=1;aspect=fixed;strokeWidth=0.5;strokeColor=#808080;fillColor=#000000;fontColor=#000099;" vertex="1" parent="1">
          <mxGeometry x="240" y="60" width="10" height="10" as="geometry" />
        </mxCell>
        <mxCell id="WxkMXaj1MNcZUrJeZnWW-419" value="" style="whiteSpace=wrap;html=1;aspect=fixed;strokeWidth=0.5;strokeColor=#808080;fillColor=#000000;fontColor=#000099;" vertex="1" parent="1">
          <mxGeometry x="240" y="70" width="10" height="10" as="geometry" />
        </mxCell>
        <mxCell id="WxkMXaj1MNcZUrJeZnWW-420" value="" style="whiteSpace=wrap;html=1;aspect=fixed;strokeWidth=0.5;strokeColor=#808080;fillColor=#000000;fontColor=#000099;" vertex="1" parent="1">
          <mxGeometry x="290" y="50" width="10" height="10" as="geometry" />
        </mxCell>
        <mxCell id="WxkMXaj1MNcZUrJeZnWW-423" value="" style="whiteSpace=wrap;html=1;aspect=fixed;strokeWidth=0.5;strokeColor=#808080;fillColor=#000000;fontColor=#000099;" vertex="1" parent="1">
          <mxGeometry x="290" y="60" width="10" height="10" as="geometry" />
        </mxCell>
        <mxCell id="WxkMXaj1MNcZUrJeZnWW-424" value="" style="whiteSpace=wrap;html=1;aspect=fixed;strokeWidth=0.5;strokeColor=#808080;fillColor=#000000;fontColor=#000099;" vertex="1" parent="1">
          <mxGeometry x="290" y="70" width="10" height="10" as="geometry" />
        </mxCell>
        <mxCell id="WxkMXaj1MNcZUrJeZnWW-425" value="" style="whiteSpace=wrap;html=1;aspect=fixed;strokeWidth=0.5;strokeColor=#808080;fillColor=#000000;fontColor=#000099;" vertex="1" parent="1">
          <mxGeometry x="290" y="80" width="10" height="10" as="geometry" />
        </mxCell>
        <mxCell id="WxkMXaj1MNcZUrJeZnWW-426" value="" style="whiteSpace=wrap;html=1;aspect=fixed;strokeWidth=0.5;strokeColor=#808080;fillColor=#000000;fontColor=#000099;" vertex="1" parent="1">
          <mxGeometry x="290" y="90" width="10" height="10" as="geometry" />
        </mxCell>
        <mxCell id="WxkMXaj1MNcZUrJeZnWW-427" value="" style="whiteSpace=wrap;html=1;aspect=fixed;strokeWidth=0.5;strokeColor=#808080;fillColor=#000000;fontColor=#000099;" vertex="1" parent="1">
          <mxGeometry x="280" y="50" width="10" height="10" as="geometry" />
        </mxCell>
        <mxCell id="WxkMXaj1MNcZUrJeZnWW-430" value="" style="whiteSpace=wrap;html=1;aspect=fixed;strokeWidth=0.5;strokeColor=#808080;fillColor=#000000;fontColor=#000099;" vertex="1" parent="1">
          <mxGeometry x="280" y="60" width="10" height="10" as="geometry" />
        </mxCell>
        <mxCell id="WxkMXaj1MNcZUrJeZnWW-431" value="" style="whiteSpace=wrap;html=1;aspect=fixed;strokeWidth=0.5;strokeColor=#808080;fillColor=#000000;fontColor=#000099;" vertex="1" parent="1">
          <mxGeometry x="280" y="70" width="10" height="10" as="geometry" />
        </mxCell>
        <mxCell id="WxkMXaj1MNcZUrJeZnWW-432" value="" style="whiteSpace=wrap;html=1;aspect=fixed;strokeWidth=0.5;strokeColor=#808080;fillColor=#000000;fontColor=#000099;" vertex="1" parent="1">
          <mxGeometry x="280" y="80" width="10" height="10" as="geometry" />
        </mxCell>
        <mxCell id="WxkMXaj1MNcZUrJeZnWW-433" value="" style="whiteSpace=wrap;html=1;aspect=fixed;strokeWidth=0.5;strokeColor=#808080;fillColor=#000000;fontColor=#000099;" vertex="1" parent="1">
          <mxGeometry x="280" y="90" width="10" height="10" as="geometry" />
        </mxCell>
        <mxCell id="WxkMXaj1MNcZUrJeZnWW-434" value="0" style="text;html=1;strokeColor=none;fillColor=none;align=center;verticalAlign=middle;whiteSpace=wrap;rounded=0;fontColor=#000099;fontSize=6;" vertex="1" parent="1">
          <mxGeometry x="230" y="220" width="10" height="10" as="geometry" />
        </mxCell>
        <mxCell id="WxkMXaj1MNcZUrJeZnWW-435" value="1" style="text;html=1;strokeColor=none;fillColor=none;align=center;verticalAlign=middle;whiteSpace=wrap;rounded=0;fontColor=#000099;fontSize=6;" vertex="1" parent="1">
          <mxGeometry x="230" y="210" width="10" height="10" as="geometry" />
        </mxCell>
        <mxCell id="WxkMXaj1MNcZUrJeZnWW-436" value="2" style="text;html=1;strokeColor=none;fillColor=none;align=center;verticalAlign=middle;whiteSpace=wrap;rounded=0;fontColor=#000099;fontSize=6;" vertex="1" parent="1">
          <mxGeometry x="230" y="200" width="10" height="10" as="geometry" />
        </mxCell>
        <mxCell id="WxkMXaj1MNcZUrJeZnWW-439" value="3" style="text;html=1;strokeColor=none;fillColor=none;align=center;verticalAlign=middle;whiteSpace=wrap;rounded=0;fontColor=#000099;fontSize=6;" vertex="1" parent="1">
          <mxGeometry x="230" y="190" width="10" height="10" as="geometry" />
        </mxCell>
        <mxCell id="WxkMXaj1MNcZUrJeZnWW-440" value="4" style="text;html=1;strokeColor=none;fillColor=none;align=center;verticalAlign=middle;whiteSpace=wrap;rounded=0;fontColor=#000099;fontSize=6;" vertex="1" parent="1">
          <mxGeometry x="230" y="180" width="10" height="10" as="geometry" />
        </mxCell>
        <mxCell id="WxkMXaj1MNcZUrJeZnWW-441" value="5" style="text;html=1;strokeColor=none;fillColor=none;align=center;verticalAlign=middle;whiteSpace=wrap;rounded=0;fontColor=#000099;fontSize=6;" vertex="1" parent="1">
          <mxGeometry x="230" y="170" width="10" height="10" as="geometry" />
        </mxCell>
        <mxCell id="WxkMXaj1MNcZUrJeZnWW-443" value="0" style="text;html=1;strokeColor=none;fillColor=none;align=center;verticalAlign=middle;whiteSpace=wrap;rounded=0;fontColor=#000099;fontSize=6;" vertex="1" parent="1">
          <mxGeometry x="230" y="80" width="10" height="10" as="geometry" />
        </mxCell>
        <mxCell id="WxkMXaj1MNcZUrJeZnWW-444" value="1" style="text;html=1;strokeColor=none;fillColor=none;align=center;verticalAlign=middle;whiteSpace=wrap;rounded=0;fontColor=#000099;fontSize=6;" vertex="1" parent="1">
          <mxGeometry x="230" y="70" width="10" height="10" as="geometry" />
        </mxCell>
        <mxCell id="WxkMXaj1MNcZUrJeZnWW-445" value="2" style="text;html=1;strokeColor=none;fillColor=none;align=center;verticalAlign=middle;whiteSpace=wrap;rounded=0;fontColor=#000099;fontSize=6;" vertex="1" parent="1">
          <mxGeometry x="230" y="60" width="10" height="10" as="geometry" />
        </mxCell>
        <mxCell id="WxkMXaj1MNcZUrJeZnWW-448" value="3" style="text;html=1;strokeColor=none;fillColor=none;align=center;verticalAlign=middle;whiteSpace=wrap;rounded=0;fontColor=#000099;fontSize=6;" vertex="1" parent="1">
          <mxGeometry x="230" y="50" width="10" height="10" as="geometry" />
        </mxCell>
        <mxCell id="WxkMXaj1MNcZUrJeZnWW-449" value="4" style="text;html=1;strokeColor=none;fillColor=none;align=center;verticalAlign=middle;whiteSpace=wrap;rounded=0;fontColor=#000099;fontSize=6;" vertex="1" parent="1">
          <mxGeometry x="230" y="40" width="10" height="10" as="geometry" />
        </mxCell>
        <mxCell id="WxkMXaj1MNcZUrJeZnWW-450" value="5" style="text;html=1;strokeColor=none;fillColor=none;align=center;verticalAlign=middle;whiteSpace=wrap;rounded=0;fontColor=#000099;fontSize=6;" vertex="1" parent="1">
          <mxGeometry x="230" y="30" width="10" height="10" as="geometry" />
        </mxCell>
        <mxCell id="WxkMXaj1MNcZUrJeZnWW-452" value="" style="whiteSpace=wrap;html=1;aspect=fixed;strokeWidth=0.5;strokeColor=#808080;fillColor=#000000;fontColor=#000099;" vertex="1" parent="1">
          <mxGeometry x="400" y="160" width="10" height="10" as="geometry" />
        </mxCell>
        <mxCell id="WxkMXaj1MNcZUrJeZnWW-453" value="" style="whiteSpace=wrap;html=1;aspect=fixed;strokeWidth=0.5;strokeColor=#808080;fillColor=#000000;fontColor=#000099;" vertex="1" parent="1">
          <mxGeometry x="410" y="160" width="10" height="10" as="geometry" />
        </mxCell>
        <mxCell id="WxkMXaj1MNcZUrJeZnWW-454" value="" style="whiteSpace=wrap;html=1;aspect=fixed;strokeWidth=0.5;strokeColor=#808080;fillColor=#000000;fontColor=#000099;" vertex="1" parent="1">
          <mxGeometry x="420" y="160" width="10" height="10" as="geometry" />
        </mxCell>
        <mxCell id="WxkMXaj1MNcZUrJeZnWW-455" value="" style="whiteSpace=wrap;html=1;aspect=fixed;strokeWidth=0.5;strokeColor=#808080;fillColor=#000000;fontColor=#000099;" vertex="1" parent="1">
          <mxGeometry x="430" y="160" width="10" height="10" as="geometry" />
        </mxCell>
        <mxCell id="WxkMXaj1MNcZUrJeZnWW-456" value="" style="whiteSpace=wrap;html=1;aspect=fixed;strokeWidth=0.5;strokeColor=#808080;fillColor=#000000;fontColor=#000099;" vertex="1" parent="1">
          <mxGeometry x="440" y="160" width="10" height="10" as="geometry" />
        </mxCell>
        <mxCell id="WxkMXaj1MNcZUrJeZnWW-457" value="" style="whiteSpace=wrap;html=1;aspect=fixed;strokeWidth=0.5;strokeColor=#808080;fillColor=#000000;fontColor=#000099;" vertex="1" parent="1">
          <mxGeometry x="450" y="160" width="10" height="10" as="geometry" />
        </mxCell>
        <mxCell id="WxkMXaj1MNcZUrJeZnWW-458" value="" style="whiteSpace=wrap;html=1;aspect=fixed;strokeWidth=0.5;strokeColor=#808080;fillColor=#000000;fontColor=#000099;" vertex="1" parent="1">
          <mxGeometry x="460" y="160" width="10" height="10" as="geometry" />
        </mxCell>
        <mxCell id="WxkMXaj1MNcZUrJeZnWW-459" value="" style="whiteSpace=wrap;html=1;aspect=fixed;strokeWidth=0.5;strokeColor=#808080;fillColor=#333333;fontColor=#000099;" vertex="1" parent="1">
          <mxGeometry x="400" y="170" width="10" height="10" as="geometry" />
        </mxCell>
        <mxCell id="WxkMXaj1MNcZUrJeZnWW-460" value="" style="whiteSpace=wrap;html=1;aspect=fixed;strokeWidth=0.5;strokeColor=#808080;fillColor=#666666;fontColor=#000099;" vertex="1" parent="1">
          <mxGeometry x="410" y="170" width="10" height="10" as="geometry" />
        </mxCell>
        <mxCell id="WxkMXaj1MNcZUrJeZnWW-461" value="" style="whiteSpace=wrap;html=1;aspect=fixed;strokeWidth=0.5;strokeColor=#808080;fillColor=#999999;fontColor=#000099;" vertex="1" parent="1">
          <mxGeometry x="420" y="170" width="10" height="10" as="geometry" />
        </mxCell>
        <mxCell id="WxkMXaj1MNcZUrJeZnWW-462" value="" style="whiteSpace=wrap;html=1;aspect=fixed;strokeWidth=0.5;strokeColor=#808080;fillColor=#CCCCCC;fontColor=#000099;" vertex="1" parent="1">
          <mxGeometry x="430" y="170" width="10" height="10" as="geometry" />
        </mxCell>
        <mxCell id="WxkMXaj1MNcZUrJeZnWW-463" value="" style="whiteSpace=wrap;html=1;aspect=fixed;strokeWidth=0.5;strokeColor=#808080;fillColor=#FFFFFF;fontColor=#000099;" vertex="1" parent="1">
          <mxGeometry x="440" y="170" width="10" height="10" as="geometry" />
        </mxCell>
        <mxCell id="WxkMXaj1MNcZUrJeZnWW-464" value="" style="whiteSpace=wrap;html=1;aspect=fixed;strokeWidth=0.5;strokeColor=#808080;fillColor=#000000;fontColor=#000099;" vertex="1" parent="1">
          <mxGeometry x="450" y="170" width="10" height="10" as="geometry" />
        </mxCell>
        <mxCell id="WxkMXaj1MNcZUrJeZnWW-465" value="" style="whiteSpace=wrap;html=1;aspect=fixed;strokeWidth=0.5;strokeColor=#808080;fillColor=#000000;fontColor=#000099;" vertex="1" parent="1">
          <mxGeometry x="460" y="170" width="10" height="10" as="geometry" />
        </mxCell>
        <mxCell id="WxkMXaj1MNcZUrJeZnWW-473" value="" style="whiteSpace=wrap;html=1;aspect=fixed;strokeWidth=0.5;strokeColor=#808080;fillColor=#000000;fontColor=#000099;" vertex="1" parent="1">
          <mxGeometry x="400" y="180" width="10" height="10" as="geometry" />
        </mxCell>
        <mxCell id="WxkMXaj1MNcZUrJeZnWW-474" value="" style="whiteSpace=wrap;html=1;aspect=fixed;strokeWidth=0.5;strokeColor=#808080;fillColor=#000000;fontColor=#000099;" vertex="1" parent="1">
          <mxGeometry x="410" y="180" width="10" height="10" as="geometry" />
        </mxCell>
        <mxCell id="WxkMXaj1MNcZUrJeZnWW-475" value="" style="whiteSpace=wrap;html=1;aspect=fixed;strokeWidth=0.5;strokeColor=#808080;fillColor=#000000;fontColor=#000099;" vertex="1" parent="1">
          <mxGeometry x="420" y="180" width="10" height="10" as="geometry" />
        </mxCell>
        <mxCell id="WxkMXaj1MNcZUrJeZnWW-476" value="" style="whiteSpace=wrap;html=1;aspect=fixed;strokeWidth=0.5;strokeColor=#808080;fillColor=#000000;fontColor=#000099;" vertex="1" parent="1">
          <mxGeometry x="430" y="180" width="10" height="10" as="geometry" />
        </mxCell>
        <mxCell id="WxkMXaj1MNcZUrJeZnWW-477" value="" style="whiteSpace=wrap;html=1;aspect=fixed;strokeWidth=0.5;strokeColor=#808080;fillColor=#000000;fontColor=#000099;" vertex="1" parent="1">
          <mxGeometry x="440" y="180" width="10" height="10" as="geometry" />
        </mxCell>
        <mxCell id="WxkMXaj1MNcZUrJeZnWW-478" value="" style="whiteSpace=wrap;html=1;aspect=fixed;strokeWidth=0.5;strokeColor=#808080;fillColor=#000000;fontColor=#000099;" vertex="1" parent="1">
          <mxGeometry x="450" y="180" width="10" height="10" as="geometry" />
        </mxCell>
        <mxCell id="WxkMXaj1MNcZUrJeZnWW-479" value="" style="whiteSpace=wrap;html=1;aspect=fixed;strokeWidth=0.5;strokeColor=#808080;fillColor=#000000;fontColor=#000099;" vertex="1" parent="1">
          <mxGeometry x="460" y="180" width="10" height="10" as="geometry" />
        </mxCell>
        <mxCell id="WxkMXaj1MNcZUrJeZnWW-480" value="" style="whiteSpace=wrap;html=1;aspect=fixed;strokeWidth=0.5;strokeColor=#808080;fillColor=#000000;fontColor=#000099;" vertex="1" parent="1">
          <mxGeometry x="400" y="190" width="10" height="10" as="geometry" />
        </mxCell>
        <mxCell id="WxkMXaj1MNcZUrJeZnWW-481" value="" style="whiteSpace=wrap;html=1;aspect=fixed;strokeWidth=0.5;strokeColor=#808080;fillColor=#000000;fontColor=#000099;" vertex="1" parent="1">
          <mxGeometry x="410" y="190" width="10" height="10" as="geometry" />
        </mxCell>
        <mxCell id="WxkMXaj1MNcZUrJeZnWW-482" value="" style="whiteSpace=wrap;html=1;aspect=fixed;strokeWidth=0.5;strokeColor=#808080;fillColor=#000000;fontColor=#000099;" vertex="1" parent="1">
          <mxGeometry x="420" y="190" width="10" height="10" as="geometry" />
        </mxCell>
        <mxCell id="WxkMXaj1MNcZUrJeZnWW-483" value="" style="whiteSpace=wrap;html=1;aspect=fixed;strokeWidth=0.5;strokeColor=#808080;fillColor=#000000;fontColor=#000099;" vertex="1" parent="1">
          <mxGeometry x="430" y="190" width="10" height="10" as="geometry" />
        </mxCell>
        <mxCell id="WxkMXaj1MNcZUrJeZnWW-484" value="" style="whiteSpace=wrap;html=1;aspect=fixed;strokeWidth=0.5;strokeColor=#808080;fillColor=#000000;fontColor=#000099;" vertex="1" parent="1">
          <mxGeometry x="440" y="190" width="10" height="10" as="geometry" />
        </mxCell>
        <mxCell id="WxkMXaj1MNcZUrJeZnWW-485" value="" style="whiteSpace=wrap;html=1;aspect=fixed;strokeWidth=0.5;strokeColor=#808080;fillColor=#000000;fontColor=#000099;" vertex="1" parent="1">
          <mxGeometry x="450" y="190" width="10" height="10" as="geometry" />
        </mxCell>
        <mxCell id="WxkMXaj1MNcZUrJeZnWW-486" value="" style="whiteSpace=wrap;html=1;aspect=fixed;strokeWidth=0.5;strokeColor=#808080;fillColor=#000000;fontColor=#000099;" vertex="1" parent="1">
          <mxGeometry x="460" y="190" width="10" height="10" as="geometry" />
        </mxCell>
        <mxCell id="WxkMXaj1MNcZUrJeZnWW-487" value="" style="whiteSpace=wrap;html=1;aspect=fixed;strokeWidth=0.5;strokeColor=#808080;fillColor=#000000;fontColor=#000099;" vertex="1" parent="1">
          <mxGeometry x="470" y="160" width="10" height="10" as="geometry" />
        </mxCell>
        <mxCell id="WxkMXaj1MNcZUrJeZnWW-488" value="" style="whiteSpace=wrap;html=1;aspect=fixed;strokeWidth=0.5;strokeColor=#808080;fillColor=#000000;fontColor=#000099;" vertex="1" parent="1">
          <mxGeometry x="470" y="170" width="10" height="10" as="geometry" />
        </mxCell>
        <mxCell id="WxkMXaj1MNcZUrJeZnWW-490" value="" style="whiteSpace=wrap;html=1;aspect=fixed;strokeWidth=0.5;strokeColor=#808080;fillColor=#000000;fontColor=#000099;" vertex="1" parent="1">
          <mxGeometry x="470" y="180" width="10" height="10" as="geometry" />
        </mxCell>
        <mxCell id="WxkMXaj1MNcZUrJeZnWW-491" value="" style="whiteSpace=wrap;html=1;aspect=fixed;strokeWidth=0.5;strokeColor=#808080;fillColor=#000000;fontColor=#000099;" vertex="1" parent="1">
          <mxGeometry x="470" y="190" width="10" height="10" as="geometry" />
        </mxCell>
        <mxCell id="WxkMXaj1MNcZUrJeZnWW-492" value="" style="whiteSpace=wrap;html=1;aspect=fixed;strokeWidth=0.5;strokeColor=#808080;fillColor=#000000;fontColor=#000099;" vertex="1" parent="1">
          <mxGeometry x="480" y="160" width="10" height="10" as="geometry" />
        </mxCell>
        <mxCell id="WxkMXaj1MNcZUrJeZnWW-493" value="" style="whiteSpace=wrap;html=1;aspect=fixed;strokeWidth=0.5;strokeColor=#808080;fillColor=#000000;fontColor=#000099;" vertex="1" parent="1">
          <mxGeometry x="480" y="170" width="10" height="10" as="geometry" />
        </mxCell>
        <mxCell id="WxkMXaj1MNcZUrJeZnWW-495" value="" style="whiteSpace=wrap;html=1;aspect=fixed;strokeWidth=0.5;strokeColor=#808080;fillColor=#000000;fontColor=#000099;" vertex="1" parent="1">
          <mxGeometry x="480" y="180" width="10" height="10" as="geometry" />
        </mxCell>
        <mxCell id="WxkMXaj1MNcZUrJeZnWW-496" value="" style="whiteSpace=wrap;html=1;aspect=fixed;strokeWidth=0.5;strokeColor=#808080;fillColor=#000000;fontColor=#000099;" vertex="1" parent="1">
          <mxGeometry x="480" y="190" width="10" height="10" as="geometry" />
        </mxCell>
        <mxCell id="WxkMXaj1MNcZUrJeZnWW-497" value="" style="whiteSpace=wrap;html=1;aspect=fixed;strokeWidth=0.5;strokeColor=#808080;fillColor=#000000;fontColor=#000099;" vertex="1" parent="1">
          <mxGeometry x="400" y="210" width="10" height="10" as="geometry" />
        </mxCell>
        <mxCell id="WxkMXaj1MNcZUrJeZnWW-498" value="" style="whiteSpace=wrap;html=1;aspect=fixed;strokeWidth=0.5;strokeColor=#808080;fillColor=#000000;fontColor=#000099;" vertex="1" parent="1">
          <mxGeometry x="410" y="210" width="10" height="10" as="geometry" />
        </mxCell>
        <mxCell id="WxkMXaj1MNcZUrJeZnWW-499" value="" style="whiteSpace=wrap;html=1;aspect=fixed;strokeWidth=0.5;strokeColor=#808080;fillColor=#000000;fontColor=#000099;" vertex="1" parent="1">
          <mxGeometry x="420" y="210" width="10" height="10" as="geometry" />
        </mxCell>
        <mxCell id="WxkMXaj1MNcZUrJeZnWW-500" value="" style="whiteSpace=wrap;html=1;aspect=fixed;strokeWidth=0.5;strokeColor=#808080;fillColor=#000000;fontColor=#000099;" vertex="1" parent="1">
          <mxGeometry x="430" y="210" width="10" height="10" as="geometry" />
        </mxCell>
        <mxCell id="WxkMXaj1MNcZUrJeZnWW-501" value="" style="whiteSpace=wrap;html=1;aspect=fixed;strokeWidth=0.5;strokeColor=#808080;fillColor=#000000;fontColor=#000099;" vertex="1" parent="1">
          <mxGeometry x="440" y="210" width="10" height="10" as="geometry" />
        </mxCell>
        <mxCell id="WxkMXaj1MNcZUrJeZnWW-502" value="" style="whiteSpace=wrap;html=1;aspect=fixed;strokeWidth=0.5;strokeColor=#808080;fillColor=#FFFFFF;fontColor=#000099;" vertex="1" parent="1">
          <mxGeometry x="450" y="210" width="10" height="10" as="geometry" />
        </mxCell>
        <mxCell id="WxkMXaj1MNcZUrJeZnWW-503" value="" style="whiteSpace=wrap;html=1;aspect=fixed;strokeWidth=0.5;strokeColor=#808080;fillColor=#CCCCCC;fontColor=#000099;" vertex="1" parent="1">
          <mxGeometry x="460" y="210" width="10" height="10" as="geometry" />
        </mxCell>
        <mxCell id="WxkMXaj1MNcZUrJeZnWW-504" value="" style="whiteSpace=wrap;html=1;aspect=fixed;strokeWidth=0.5;strokeColor=#808080;fillColor=#000000;fontColor=#000099;" vertex="1" parent="1">
          <mxGeometry x="400" y="220" width="10" height="10" as="geometry" />
        </mxCell>
        <mxCell id="WxkMXaj1MNcZUrJeZnWW-505" value="" style="whiteSpace=wrap;html=1;aspect=fixed;strokeWidth=0.5;strokeColor=#808080;fillColor=#000000;fontColor=#000099;" vertex="1" parent="1">
          <mxGeometry x="410" y="220" width="10" height="10" as="geometry" />
        </mxCell>
        <mxCell id="WxkMXaj1MNcZUrJeZnWW-506" value="" style="whiteSpace=wrap;html=1;aspect=fixed;strokeWidth=0.5;strokeColor=#808080;fillColor=#000000;fontColor=#000099;" vertex="1" parent="1">
          <mxGeometry x="420" y="220" width="10" height="10" as="geometry" />
        </mxCell>
        <mxCell id="WxkMXaj1MNcZUrJeZnWW-507" value="" style="whiteSpace=wrap;html=1;aspect=fixed;strokeWidth=0.5;strokeColor=#808080;fillColor=#000000;fontColor=#000099;" vertex="1" parent="1">
          <mxGeometry x="430" y="220" width="10" height="10" as="geometry" />
        </mxCell>
        <mxCell id="WxkMXaj1MNcZUrJeZnWW-508" value="" style="whiteSpace=wrap;html=1;aspect=fixed;strokeWidth=0.5;strokeColor=#808080;fillColor=#000000;fontColor=#000099;" vertex="1" parent="1">
          <mxGeometry x="440" y="220" width="10" height="10" as="geometry" />
        </mxCell>
        <mxCell id="WxkMXaj1MNcZUrJeZnWW-509" value="" style="whiteSpace=wrap;html=1;aspect=fixed;strokeWidth=0.5;strokeColor=#808080;fillColor=#000000;fontColor=#000099;" vertex="1" parent="1">
          <mxGeometry x="450" y="220" width="10" height="10" as="geometry" />
        </mxCell>
        <mxCell id="WxkMXaj1MNcZUrJeZnWW-510" value="" style="whiteSpace=wrap;html=1;aspect=fixed;strokeWidth=0.5;strokeColor=#808080;fillColor=#000000;fontColor=#000099;" vertex="1" parent="1">
          <mxGeometry x="460" y="220" width="10" height="10" as="geometry" />
        </mxCell>
        <mxCell id="WxkMXaj1MNcZUrJeZnWW-511" value="" style="whiteSpace=wrap;html=1;aspect=fixed;strokeWidth=0.5;strokeColor=#808080;fillColor=#999999;fontColor=#000099;" vertex="1" parent="1">
          <mxGeometry x="470" y="210" width="10" height="10" as="geometry" />
        </mxCell>
        <mxCell id="WxkMXaj1MNcZUrJeZnWW-512" value="" style="whiteSpace=wrap;html=1;aspect=fixed;strokeWidth=0.5;strokeColor=#808080;fillColor=#000000;fontColor=#000099;" vertex="1" parent="1">
          <mxGeometry x="470" y="220" width="10" height="10" as="geometry" />
        </mxCell>
        <mxCell id="WxkMXaj1MNcZUrJeZnWW-513" value="" style="whiteSpace=wrap;html=1;aspect=fixed;strokeWidth=0.5;strokeColor=#808080;fillColor=#666666;fontColor=#000099;" vertex="1" parent="1">
          <mxGeometry x="480" y="210" width="10" height="10" as="geometry" />
        </mxCell>
        <mxCell id="WxkMXaj1MNcZUrJeZnWW-514" value="" style="whiteSpace=wrap;html=1;aspect=fixed;strokeWidth=0.5;strokeColor=#808080;fillColor=#000000;fontColor=#000099;" vertex="1" parent="1">
          <mxGeometry x="480" y="220" width="10" height="10" as="geometry" />
        </mxCell>
        <mxCell id="WxkMXaj1MNcZUrJeZnWW-515" value="" style="whiteSpace=wrap;html=1;aspect=fixed;strokeWidth=0.5;strokeColor=#808080;fillColor=#000000;fontColor=#000099;" vertex="1" parent="1">
          <mxGeometry x="400" y="200" width="10" height="10" as="geometry" />
        </mxCell>
        <mxCell id="WxkMXaj1MNcZUrJeZnWW-516" value="" style="whiteSpace=wrap;html=1;aspect=fixed;strokeWidth=0.5;strokeColor=#808080;fillColor=#000000;fontColor=#000099;" vertex="1" parent="1">
          <mxGeometry x="410" y="200" width="10" height="10" as="geometry" />
        </mxCell>
        <mxCell id="WxkMXaj1MNcZUrJeZnWW-517" value="" style="whiteSpace=wrap;html=1;aspect=fixed;strokeWidth=0.5;strokeColor=#808080;fillColor=#000000;fontColor=#000099;" vertex="1" parent="1">
          <mxGeometry x="420" y="200" width="10" height="10" as="geometry" />
        </mxCell>
        <mxCell id="WxkMXaj1MNcZUrJeZnWW-518" value="" style="whiteSpace=wrap;html=1;aspect=fixed;strokeWidth=0.5;strokeColor=#808080;fillColor=#000000;fontColor=#000099;" vertex="1" parent="1">
          <mxGeometry x="430" y="200" width="10" height="10" as="geometry" />
        </mxCell>
        <mxCell id="WxkMXaj1MNcZUrJeZnWW-519" value="" style="whiteSpace=wrap;html=1;aspect=fixed;strokeWidth=0.5;strokeColor=#808080;fillColor=#000000;fontColor=#000099;" vertex="1" parent="1">
          <mxGeometry x="440" y="200" width="10" height="10" as="geometry" />
        </mxCell>
        <mxCell id="WxkMXaj1MNcZUrJeZnWW-520" value="" style="whiteSpace=wrap;html=1;aspect=fixed;strokeWidth=0.5;strokeColor=#808080;fillColor=#000000;fontColor=#000099;" vertex="1" parent="1">
          <mxGeometry x="450" y="200" width="10" height="10" as="geometry" />
        </mxCell>
        <mxCell id="WxkMXaj1MNcZUrJeZnWW-521" value="" style="whiteSpace=wrap;html=1;aspect=fixed;strokeWidth=0.5;strokeColor=#808080;fillColor=#000000;fontColor=#000099;" vertex="1" parent="1">
          <mxGeometry x="460" y="200" width="10" height="10" as="geometry" />
        </mxCell>
        <mxCell id="WxkMXaj1MNcZUrJeZnWW-522" value="" style="whiteSpace=wrap;html=1;aspect=fixed;strokeWidth=0.5;strokeColor=#808080;fillColor=#000000;fontColor=#000099;" vertex="1" parent="1">
          <mxGeometry x="470" y="200" width="10" height="10" as="geometry" />
        </mxCell>
        <mxCell id="WxkMXaj1MNcZUrJeZnWW-523" value="" style="whiteSpace=wrap;html=1;aspect=fixed;strokeWidth=0.5;strokeColor=#808080;fillColor=#000000;fontColor=#000099;" vertex="1" parent="1">
          <mxGeometry x="480" y="200" width="10" height="10" as="geometry" />
        </mxCell>
        <mxCell id="WxkMXaj1MNcZUrJeZnWW-524" value="" style="whiteSpace=wrap;html=1;aspect=fixed;strokeWidth=0.5;strokeColor=#808080;fillColor=#000000;fontColor=#000099;" vertex="1" parent="1">
          <mxGeometry x="490" y="160" width="10" height="10" as="geometry" />
        </mxCell>
        <mxCell id="WxkMXaj1MNcZUrJeZnWW-525" value="" style="whiteSpace=wrap;html=1;aspect=fixed;strokeWidth=0.5;strokeColor=#808080;fillColor=#000000;fontColor=#000099;" vertex="1" parent="1">
          <mxGeometry x="490" y="170" width="10" height="10" as="geometry" />
        </mxCell>
        <mxCell id="WxkMXaj1MNcZUrJeZnWW-527" value="" style="whiteSpace=wrap;html=1;aspect=fixed;strokeWidth=0.5;strokeColor=#808080;fillColor=#000000;fontColor=#000099;" vertex="1" parent="1">
          <mxGeometry x="490" y="180" width="10" height="10" as="geometry" />
        </mxCell>
        <mxCell id="WxkMXaj1MNcZUrJeZnWW-528" value="" style="whiteSpace=wrap;html=1;aspect=fixed;strokeWidth=0.5;strokeColor=#808080;fillColor=#000000;fontColor=#000099;" vertex="1" parent="1">
          <mxGeometry x="490" y="190" width="10" height="10" as="geometry" />
        </mxCell>
        <mxCell id="WxkMXaj1MNcZUrJeZnWW-529" value="" style="whiteSpace=wrap;html=1;aspect=fixed;strokeWidth=0.5;strokeColor=#808080;fillColor=#333333;fontColor=#000099;" vertex="1" parent="1">
          <mxGeometry x="490" y="210" width="10" height="10" as="geometry" />
        </mxCell>
        <mxCell id="WxkMXaj1MNcZUrJeZnWW-530" value="" style="whiteSpace=wrap;html=1;aspect=fixed;strokeWidth=0.5;strokeColor=#808080;fillColor=#000000;fontColor=#000099;" vertex="1" parent="1">
          <mxGeometry x="490" y="220" width="10" height="10" as="geometry" />
        </mxCell>
        <mxCell id="WxkMXaj1MNcZUrJeZnWW-531" value="" style="whiteSpace=wrap;html=1;aspect=fixed;strokeWidth=0.5;strokeColor=#808080;fillColor=#000000;fontColor=#000099;" vertex="1" parent="1">
          <mxGeometry x="490" y="200" width="10" height="10" as="geometry" />
        </mxCell>
        <mxCell id="WxkMXaj1MNcZUrJeZnWW-532" value="" style="whiteSpace=wrap;html=1;aspect=fixed;strokeWidth=0.5;strokeColor=#808080;fillColor=#000000;fontColor=#000099;" vertex="1" parent="1">
          <mxGeometry x="420" y="20" width="10" height="10" as="geometry" />
        </mxCell>
        <mxCell id="WxkMXaj1MNcZUrJeZnWW-533" value="" style="whiteSpace=wrap;html=1;aspect=fixed;strokeWidth=0.5;strokeColor=#808080;fillColor=#000000;fontColor=#000099;" vertex="1" parent="1">
          <mxGeometry x="430" y="20" width="10" height="10" as="geometry" />
        </mxCell>
        <mxCell id="WxkMXaj1MNcZUrJeZnWW-534" value="" style="whiteSpace=wrap;html=1;aspect=fixed;strokeWidth=0.5;strokeColor=#808080;fillColor=#000000;fontColor=#000099;" vertex="1" parent="1">
          <mxGeometry x="440" y="20" width="10" height="10" as="geometry" />
        </mxCell>
        <mxCell id="WxkMXaj1MNcZUrJeZnWW-535" value="" style="whiteSpace=wrap;html=1;aspect=fixed;strokeWidth=0.5;strokeColor=#808080;fillColor=#FFFFFF;fontColor=#000099;" vertex="1" parent="1">
          <mxGeometry x="420" y="30" width="10" height="10" as="geometry" />
        </mxCell>
        <mxCell id="WxkMXaj1MNcZUrJeZnWW-536" value="" style="whiteSpace=wrap;html=1;aspect=fixed;strokeWidth=0.5;strokeColor=#808080;fillColor=#000000;fontColor=#000099;" vertex="1" parent="1">
          <mxGeometry x="430" y="30" width="10" height="10" as="geometry" />
        </mxCell>
        <mxCell id="WxkMXaj1MNcZUrJeZnWW-537" value="" style="whiteSpace=wrap;html=1;aspect=fixed;strokeWidth=0.5;strokeColor=#808080;fillColor=#000000;fontColor=#000099;" vertex="1" parent="1">
          <mxGeometry x="440" y="30" width="10" height="10" as="geometry" />
        </mxCell>
        <mxCell id="WxkMXaj1MNcZUrJeZnWW-541" value="" style="whiteSpace=wrap;html=1;aspect=fixed;strokeWidth=0.5;strokeColor=#808080;fillColor=#000000;fontColor=#000099;" vertex="1" parent="1">
          <mxGeometry x="420" y="40" width="10" height="10" as="geometry" />
        </mxCell>
        <mxCell id="WxkMXaj1MNcZUrJeZnWW-542" value="" style="whiteSpace=wrap;html=1;aspect=fixed;strokeWidth=0.5;strokeColor=#808080;fillColor=#000000;fontColor=#000099;" vertex="1" parent="1">
          <mxGeometry x="430" y="40" width="10" height="10" as="geometry" />
        </mxCell>
        <mxCell id="WxkMXaj1MNcZUrJeZnWW-543" value="" style="whiteSpace=wrap;html=1;aspect=fixed;strokeWidth=0.5;strokeColor=#808080;fillColor=#000000;fontColor=#000099;" vertex="1" parent="1">
          <mxGeometry x="420" y="50" width="10" height="10" as="geometry" />
        </mxCell>
        <mxCell id="WxkMXaj1MNcZUrJeZnWW-544" value="" style="whiteSpace=wrap;html=1;aspect=fixed;strokeWidth=0.5;strokeColor=#808080;fillColor=#000000;fontColor=#000099;" vertex="1" parent="1">
          <mxGeometry x="430" y="50" width="10" height="10" as="geometry" />
        </mxCell>
        <mxCell id="WxkMXaj1MNcZUrJeZnWW-545" value="" style="whiteSpace=wrap;html=1;aspect=fixed;strokeWidth=0.5;strokeColor=#808080;fillColor=#000000;fontColor=#000099;" vertex="1" parent="1">
          <mxGeometry x="450" y="20" width="10" height="10" as="geometry" />
        </mxCell>
        <mxCell id="WxkMXaj1MNcZUrJeZnWW-546" value="" style="whiteSpace=wrap;html=1;aspect=fixed;strokeWidth=0.5;strokeColor=#808080;fillColor=#000000;fontColor=#000099;" vertex="1" parent="1">
          <mxGeometry x="450" y="30" width="10" height="10" as="geometry" />
        </mxCell>
        <mxCell id="WxkMXaj1MNcZUrJeZnWW-548" value="" style="whiteSpace=wrap;html=1;aspect=fixed;strokeWidth=0.5;strokeColor=#808080;fillColor=#000000;fontColor=#000099;" vertex="1" parent="1">
          <mxGeometry x="400" y="70" width="10" height="10" as="geometry" />
        </mxCell>
        <mxCell id="WxkMXaj1MNcZUrJeZnWW-549" value="" style="whiteSpace=wrap;html=1;aspect=fixed;strokeWidth=0.5;strokeColor=#808080;fillColor=#000000;fontColor=#000099;" vertex="1" parent="1">
          <mxGeometry x="410" y="70" width="10" height="10" as="geometry" />
        </mxCell>
        <mxCell id="WxkMXaj1MNcZUrJeZnWW-550" value="" style="whiteSpace=wrap;html=1;aspect=fixed;strokeWidth=0.5;strokeColor=#808080;fillColor=#000000;fontColor=#000099;" vertex="1" parent="1">
          <mxGeometry x="420" y="70" width="10" height="10" as="geometry" />
        </mxCell>
        <mxCell id="WxkMXaj1MNcZUrJeZnWW-551" value="" style="whiteSpace=wrap;html=1;aspect=fixed;strokeWidth=0.5;strokeColor=#808080;fillColor=#FFFFFF;fontColor=#000099;" vertex="1" parent="1">
          <mxGeometry x="430" y="70" width="10" height="10" as="geometry" />
        </mxCell>
        <mxCell id="WxkMXaj1MNcZUrJeZnWW-552" value="" style="whiteSpace=wrap;html=1;aspect=fixed;strokeWidth=0.5;strokeColor=#808080;fillColor=#000000;fontColor=#000099;" vertex="1" parent="1">
          <mxGeometry x="400" y="80" width="10" height="10" as="geometry" />
        </mxCell>
        <mxCell id="WxkMXaj1MNcZUrJeZnWW-553" value="" style="whiteSpace=wrap;html=1;aspect=fixed;strokeWidth=0.5;strokeColor=#808080;fillColor=#000000;fontColor=#000099;" vertex="1" parent="1">
          <mxGeometry x="410" y="80" width="10" height="10" as="geometry" />
        </mxCell>
        <mxCell id="WxkMXaj1MNcZUrJeZnWW-554" value="" style="whiteSpace=wrap;html=1;aspect=fixed;strokeWidth=0.5;strokeColor=#808080;fillColor=#000000;fontColor=#000099;" vertex="1" parent="1">
          <mxGeometry x="420" y="80" width="10" height="10" as="geometry" />
        </mxCell>
        <mxCell id="WxkMXaj1MNcZUrJeZnWW-555" value="" style="whiteSpace=wrap;html=1;aspect=fixed;strokeWidth=0.5;strokeColor=#808080;fillColor=#000000;fontColor=#000099;" vertex="1" parent="1">
          <mxGeometry x="430" y="80" width="10" height="10" as="geometry" />
        </mxCell>
        <mxCell id="WxkMXaj1MNcZUrJeZnWW-556" value="" style="whiteSpace=wrap;html=1;aspect=fixed;strokeWidth=0.5;strokeColor=#808080;fillColor=#000000;fontColor=#000099;" vertex="1" parent="1">
          <mxGeometry x="420" y="60" width="10" height="10" as="geometry" />
        </mxCell>
        <mxCell id="WxkMXaj1MNcZUrJeZnWW-557" value="" style="whiteSpace=wrap;html=1;aspect=fixed;strokeWidth=0.5;strokeColor=#808080;fillColor=#000000;fontColor=#000099;" vertex="1" parent="1">
          <mxGeometry x="430" y="60" width="10" height="10" as="geometry" />
        </mxCell>
        <mxCell id="WxkMXaj1MNcZUrJeZnWW-558" value="" style="whiteSpace=wrap;html=1;aspect=fixed;strokeWidth=0.5;strokeColor=#808080;fillColor=#000000;fontColor=#000099;" vertex="1" parent="1">
          <mxGeometry x="410" y="20" width="10" height="10" as="geometry" />
        </mxCell>
        <mxCell id="WxkMXaj1MNcZUrJeZnWW-559" value="" style="whiteSpace=wrap;html=1;aspect=fixed;strokeWidth=0.5;strokeColor=#808080;fillColor=#000000;fontColor=#000099;" vertex="1" parent="1">
          <mxGeometry x="410" y="30" width="10" height="10" as="geometry" />
        </mxCell>
        <mxCell id="WxkMXaj1MNcZUrJeZnWW-561" value="" style="whiteSpace=wrap;html=1;aspect=fixed;strokeWidth=0.5;strokeColor=#808080;fillColor=#000000;fontColor=#000099;" vertex="1" parent="1">
          <mxGeometry x="410" y="40" width="10" height="10" as="geometry" />
        </mxCell>
        <mxCell id="WxkMXaj1MNcZUrJeZnWW-562" value="" style="whiteSpace=wrap;html=1;aspect=fixed;strokeWidth=0.5;strokeColor=#808080;fillColor=#000000;fontColor=#000099;" vertex="1" parent="1">
          <mxGeometry x="410" y="50" width="10" height="10" as="geometry" />
        </mxCell>
        <mxCell id="WxkMXaj1MNcZUrJeZnWW-563" value="" style="whiteSpace=wrap;html=1;aspect=fixed;strokeWidth=0.5;strokeColor=#808080;fillColor=#000000;fontColor=#000099;" vertex="1" parent="1">
          <mxGeometry x="410" y="60" width="10" height="10" as="geometry" />
        </mxCell>
        <mxCell id="WxkMXaj1MNcZUrJeZnWW-564" value="" style="whiteSpace=wrap;html=1;aspect=fixed;strokeWidth=0.5;strokeColor=#808080;fillColor=#000000;fontColor=#000099;" vertex="1" parent="1">
          <mxGeometry x="400" y="20" width="10" height="10" as="geometry" />
        </mxCell>
        <mxCell id="WxkMXaj1MNcZUrJeZnWW-565" value="" style="whiteSpace=wrap;html=1;aspect=fixed;strokeWidth=0.5;strokeColor=#808080;fillColor=#000000;fontColor=#000099;" vertex="1" parent="1">
          <mxGeometry x="400" y="30" width="10" height="10" as="geometry" />
        </mxCell>
        <mxCell id="WxkMXaj1MNcZUrJeZnWW-567" value="" style="whiteSpace=wrap;html=1;aspect=fixed;strokeWidth=0.5;strokeColor=#808080;fillColor=#000000;fontColor=#000099;" vertex="1" parent="1">
          <mxGeometry x="400" y="40" width="10" height="10" as="geometry" />
        </mxCell>
        <mxCell id="WxkMXaj1MNcZUrJeZnWW-568" value="" style="whiteSpace=wrap;html=1;aspect=fixed;strokeWidth=0.5;strokeColor=#808080;fillColor=#000000;fontColor=#000099;" vertex="1" parent="1">
          <mxGeometry x="400" y="50" width="10" height="10" as="geometry" />
        </mxCell>
        <mxCell id="WxkMXaj1MNcZUrJeZnWW-569" value="" style="whiteSpace=wrap;html=1;aspect=fixed;strokeWidth=0.5;strokeColor=#808080;fillColor=#000000;fontColor=#000099;" vertex="1" parent="1">
          <mxGeometry x="400" y="60" width="10" height="10" as="geometry" />
        </mxCell>
        <mxCell id="WxkMXaj1MNcZUrJeZnWW-570" value="" style="whiteSpace=wrap;html=1;aspect=fixed;strokeWidth=0.5;strokeColor=#808080;fillColor=#000000;fontColor=#000099;" vertex="1" parent="1">
          <mxGeometry x="450" y="40" width="10" height="10" as="geometry" />
        </mxCell>
        <mxCell id="WxkMXaj1MNcZUrJeZnWW-571" value="" style="whiteSpace=wrap;html=1;aspect=fixed;strokeWidth=0.5;strokeColor=#808080;fillColor=#000000;fontColor=#000099;" vertex="1" parent="1">
          <mxGeometry x="450" y="50" width="10" height="10" as="geometry" />
        </mxCell>
        <mxCell id="WxkMXaj1MNcZUrJeZnWW-572" value="" style="whiteSpace=wrap;html=1;aspect=fixed;strokeWidth=0.5;strokeColor=#808080;fillColor=#000000;fontColor=#000099;" vertex="1" parent="1">
          <mxGeometry x="450" y="60" width="10" height="10" as="geometry" />
        </mxCell>
        <mxCell id="WxkMXaj1MNcZUrJeZnWW-573" value="" style="whiteSpace=wrap;html=1;aspect=fixed;strokeWidth=0.5;strokeColor=#808080;fillColor=#000000;fontColor=#000099;" vertex="1" parent="1">
          <mxGeometry x="450" y="70" width="10" height="10" as="geometry" />
        </mxCell>
        <mxCell id="WxkMXaj1MNcZUrJeZnWW-574" value="" style="whiteSpace=wrap;html=1;aspect=fixed;strokeWidth=0.5;strokeColor=#808080;fillColor=#000000;fontColor=#000099;" vertex="1" parent="1">
          <mxGeometry x="450" y="80" width="10" height="10" as="geometry" />
        </mxCell>
        <mxCell id="WxkMXaj1MNcZUrJeZnWW-575" value="" style="whiteSpace=wrap;html=1;aspect=fixed;strokeWidth=0.5;strokeColor=#808080;fillColor=#000000;fontColor=#000099;" vertex="1" parent="1">
          <mxGeometry x="440" y="40" width="10" height="10" as="geometry" />
        </mxCell>
        <mxCell id="WxkMXaj1MNcZUrJeZnWW-576" value="" style="whiteSpace=wrap;html=1;aspect=fixed;strokeWidth=0.5;strokeColor=#808080;fillColor=#000000;fontColor=#000099;" vertex="1" parent="1">
          <mxGeometry x="440" y="50" width="10" height="10" as="geometry" />
        </mxCell>
        <mxCell id="WxkMXaj1MNcZUrJeZnWW-577" value="" style="whiteSpace=wrap;html=1;aspect=fixed;strokeWidth=0.5;strokeColor=#808080;fillColor=#000000;fontColor=#000099;" vertex="1" parent="1">
          <mxGeometry x="440" y="60" width="10" height="10" as="geometry" />
        </mxCell>
        <mxCell id="WxkMXaj1MNcZUrJeZnWW-578" value="" style="whiteSpace=wrap;html=1;aspect=fixed;strokeWidth=0.5;strokeColor=#808080;fillColor=#000000;fontColor=#000099;" vertex="1" parent="1">
          <mxGeometry x="440" y="70" width="10" height="10" as="geometry" />
        </mxCell>
        <mxCell id="WxkMXaj1MNcZUrJeZnWW-579" value="" style="whiteSpace=wrap;html=1;aspect=fixed;strokeWidth=0.5;strokeColor=#808080;fillColor=#000000;fontColor=#000099;" vertex="1" parent="1">
          <mxGeometry x="440" y="80" width="10" height="10" as="geometry" />
        </mxCell>
        <mxCell id="WxkMXaj1MNcZUrJeZnWW-580" value="0" style="text;html=1;strokeColor=none;fillColor=none;align=center;verticalAlign=middle;whiteSpace=wrap;rounded=0;fontColor=#000099;fontSize=6;" vertex="1" parent="1">
          <mxGeometry x="390" y="210" width="10" height="10" as="geometry" />
        </mxCell>
        <mxCell id="WxkMXaj1MNcZUrJeZnWW-581" value="1" style="text;html=1;strokeColor=none;fillColor=none;align=center;verticalAlign=middle;whiteSpace=wrap;rounded=0;fontColor=#000099;fontSize=6;" vertex="1" parent="1">
          <mxGeometry x="390" y="200" width="10" height="10" as="geometry" />
        </mxCell>
        <mxCell id="WxkMXaj1MNcZUrJeZnWW-582" value="2" style="text;html=1;strokeColor=none;fillColor=none;align=center;verticalAlign=middle;whiteSpace=wrap;rounded=0;fontColor=#000099;fontSize=6;" vertex="1" parent="1">
          <mxGeometry x="390" y="190" width="10" height="10" as="geometry" />
        </mxCell>
        <mxCell id="WxkMXaj1MNcZUrJeZnWW-583" value="3" style="text;html=1;strokeColor=none;fillColor=none;align=center;verticalAlign=middle;whiteSpace=wrap;rounded=0;fontColor=#000099;fontSize=6;" vertex="1" parent="1">
          <mxGeometry x="390" y="180" width="10" height="10" as="geometry" />
        </mxCell>
        <mxCell id="WxkMXaj1MNcZUrJeZnWW-585" value="4" style="text;html=1;strokeColor=none;fillColor=none;align=center;verticalAlign=middle;whiteSpace=wrap;rounded=0;fontColor=#000099;fontSize=6;" vertex="1" parent="1">
          <mxGeometry x="390" y="170" width="10" height="10" as="geometry" />
        </mxCell>
        <mxCell id="WxkMXaj1MNcZUrJeZnWW-587" value="0" style="text;html=1;strokeColor=none;fillColor=none;align=center;verticalAlign=middle;whiteSpace=wrap;rounded=0;fontColor=#000099;fontSize=6;" vertex="1" parent="1">
          <mxGeometry x="390" y="70" width="10" height="10" as="geometry" />
        </mxCell>
        <mxCell id="WxkMXaj1MNcZUrJeZnWW-588" value="1" style="text;html=1;strokeColor=none;fillColor=none;align=center;verticalAlign=middle;whiteSpace=wrap;rounded=0;fontColor=#000099;fontSize=6;" vertex="1" parent="1">
          <mxGeometry x="390" y="60" width="10" height="10" as="geometry" />
        </mxCell>
        <mxCell id="WxkMXaj1MNcZUrJeZnWW-589" value="2" style="text;html=1;strokeColor=none;fillColor=none;align=center;verticalAlign=middle;whiteSpace=wrap;rounded=0;fontColor=#000099;fontSize=6;" vertex="1" parent="1">
          <mxGeometry x="390" y="50" width="10" height="10" as="geometry" />
        </mxCell>
        <mxCell id="WxkMXaj1MNcZUrJeZnWW-590" value="3" style="text;html=1;strokeColor=none;fillColor=none;align=center;verticalAlign=middle;whiteSpace=wrap;rounded=0;fontColor=#000099;fontSize=6;" vertex="1" parent="1">
          <mxGeometry x="390" y="40" width="10" height="10" as="geometry" />
        </mxCell>
        <mxCell id="WxkMXaj1MNcZUrJeZnWW-592" value="4" style="text;html=1;strokeColor=none;fillColor=none;align=center;verticalAlign=middle;whiteSpace=wrap;rounded=0;fontColor=#000099;fontSize=6;" vertex="1" parent="1">
          <mxGeometry x="390" y="30" width="10" height="10" as="geometry" />
        </mxCell>
        <mxCell id="WxkMXaj1MNcZUrJeZnWW-1038" value="" style="whiteSpace=wrap;html=1;aspect=fixed;strokeWidth=0.5;strokeColor=#808080;fillColor=#000000;fontColor=#000099;" vertex="1" parent="1">
          <mxGeometry x="80" y="300" width="10" height="10" as="geometry" />
        </mxCell>
        <mxCell id="WxkMXaj1MNcZUrJeZnWW-1039" value="" style="whiteSpace=wrap;html=1;aspect=fixed;strokeWidth=0.5;strokeColor=#808080;fillColor=#000000;fontColor=#000099;" vertex="1" parent="1">
          <mxGeometry x="90" y="300" width="10" height="10" as="geometry" />
        </mxCell>
        <mxCell id="WxkMXaj1MNcZUrJeZnWW-1040" value="" style="whiteSpace=wrap;html=1;aspect=fixed;strokeWidth=0.5;strokeColor=#808080;fillColor=#000000;fontColor=#000099;" vertex="1" parent="1">
          <mxGeometry x="100" y="300" width="10" height="10" as="geometry" />
        </mxCell>
        <mxCell id="WxkMXaj1MNcZUrJeZnWW-1041" value="" style="whiteSpace=wrap;html=1;aspect=fixed;strokeWidth=0.5;strokeColor=#808080;fillColor=#000000;fontColor=#000099;" vertex="1" parent="1">
          <mxGeometry x="110" y="300" width="10" height="10" as="geometry" />
        </mxCell>
        <mxCell id="WxkMXaj1MNcZUrJeZnWW-1042" value="" style="whiteSpace=wrap;html=1;aspect=fixed;strokeWidth=0.5;strokeColor=#808080;fillColor=#000000;fontColor=#000099;" vertex="1" parent="1">
          <mxGeometry x="120" y="300" width="10" height="10" as="geometry" />
        </mxCell>
        <mxCell id="WxkMXaj1MNcZUrJeZnWW-1043" value="" style="whiteSpace=wrap;html=1;aspect=fixed;strokeWidth=0.5;strokeColor=#808080;fillColor=#000000;fontColor=#000099;" vertex="1" parent="1">
          <mxGeometry x="130" y="300" width="10" height="10" as="geometry" />
        </mxCell>
        <mxCell id="WxkMXaj1MNcZUrJeZnWW-1044" value="" style="whiteSpace=wrap;html=1;aspect=fixed;strokeWidth=0.5;strokeColor=#808080;fillColor=#000000;fontColor=#000099;" vertex="1" parent="1">
          <mxGeometry x="140" y="300" width="10" height="10" as="geometry" />
        </mxCell>
        <mxCell id="WxkMXaj1MNcZUrJeZnWW-1050" value="" style="whiteSpace=wrap;html=1;aspect=fixed;strokeWidth=0.5;strokeColor=#808080;fillColor=#333333;fontColor=#000099;" vertex="1" parent="1">
          <mxGeometry x="130" y="310" width="10" height="10" as="geometry" />
        </mxCell>
        <mxCell id="WxkMXaj1MNcZUrJeZnWW-1051" value="" style="whiteSpace=wrap;html=1;aspect=fixed;strokeWidth=0.5;strokeColor=#808080;fillColor=#000000;fontColor=#000099;" vertex="1" parent="1">
          <mxGeometry x="140" y="310" width="10" height="10" as="geometry" />
        </mxCell>
        <mxCell id="WxkMXaj1MNcZUrJeZnWW-1052" value="" style="whiteSpace=wrap;html=1;aspect=fixed;strokeWidth=0.5;strokeColor=#808080;fillColor=#000000;fontColor=#000099;" vertex="1" parent="1">
          <mxGeometry x="80" y="320" width="10" height="10" as="geometry" />
        </mxCell>
        <mxCell id="WxkMXaj1MNcZUrJeZnWW-1053" value="" style="whiteSpace=wrap;html=1;aspect=fixed;strokeWidth=0.5;strokeColor=#808080;fillColor=#000000;fontColor=#000099;" vertex="1" parent="1">
          <mxGeometry x="90" y="320" width="10" height="10" as="geometry" />
        </mxCell>
        <mxCell id="WxkMXaj1MNcZUrJeZnWW-1054" value="" style="whiteSpace=wrap;html=1;aspect=fixed;strokeWidth=0.5;strokeColor=#808080;fillColor=#B3B3B3;fontColor=#000099;" vertex="1" parent="1">
          <mxGeometry x="100" y="320" width="10" height="10" as="geometry" />
        </mxCell>
        <mxCell id="WxkMXaj1MNcZUrJeZnWW-1055" value="" style="whiteSpace=wrap;html=1;aspect=fixed;strokeWidth=0.5;strokeColor=#808080;fillColor=#B3B3B3;fontColor=#000099;" vertex="1" parent="1">
          <mxGeometry x="110" y="320" width="10" height="10" as="geometry" />
        </mxCell>
        <mxCell id="WxkMXaj1MNcZUrJeZnWW-1056" value="" style="whiteSpace=wrap;html=1;aspect=fixed;strokeWidth=0.5;strokeColor=#808080;fillColor=#666666;fontColor=#000099;" vertex="1" parent="1">
          <mxGeometry x="120" y="320" width="10" height="10" as="geometry" />
        </mxCell>
        <mxCell id="WxkMXaj1MNcZUrJeZnWW-1057" value="" style="whiteSpace=wrap;html=1;aspect=fixed;strokeWidth=0.5;strokeColor=#808080;fillColor=#333333;fontColor=#000099;" vertex="1" parent="1">
          <mxGeometry x="130" y="320" width="10" height="10" as="geometry" />
        </mxCell>
        <mxCell id="WxkMXaj1MNcZUrJeZnWW-1058" value="" style="whiteSpace=wrap;html=1;aspect=fixed;strokeWidth=0.5;strokeColor=#808080;fillColor=#333333;fontColor=#000099;" vertex="1" parent="1">
          <mxGeometry x="140" y="320" width="10" height="10" as="geometry" />
        </mxCell>
        <mxCell id="WxkMXaj1MNcZUrJeZnWW-1059" value="" style="whiteSpace=wrap;html=1;aspect=fixed;strokeWidth=0.5;strokeColor=#808080;fillColor=#000000;fontColor=#000099;" vertex="1" parent="1">
          <mxGeometry x="80" y="330" width="10" height="10" as="geometry" />
        </mxCell>
        <mxCell id="WxkMXaj1MNcZUrJeZnWW-1060" value="" style="whiteSpace=wrap;html=1;aspect=fixed;strokeWidth=0.5;strokeColor=#808080;fillColor=#000000;fontColor=#000099;" vertex="1" parent="1">
          <mxGeometry x="90" y="330" width="10" height="10" as="geometry" />
        </mxCell>
        <mxCell id="WxkMXaj1MNcZUrJeZnWW-1061" value="" style="whiteSpace=wrap;html=1;aspect=fixed;strokeWidth=0.5;strokeColor=#808080;fillColor=#666666;fontColor=#000099;" vertex="1" parent="1">
          <mxGeometry x="100" y="330" width="10" height="10" as="geometry" />
        </mxCell>
        <mxCell id="WxkMXaj1MNcZUrJeZnWW-1062" value="" style="whiteSpace=wrap;html=1;aspect=fixed;strokeWidth=0.5;strokeColor=#808080;fillColor=#666666;fontColor=#000099;" vertex="1" parent="1">
          <mxGeometry x="110" y="330" width="10" height="10" as="geometry" />
        </mxCell>
        <mxCell id="WxkMXaj1MNcZUrJeZnWW-1063" value="" style="whiteSpace=wrap;html=1;aspect=fixed;strokeWidth=0.5;strokeColor=#808080;fillColor=#B3B3B3;fontColor=#000099;" vertex="1" parent="1">
          <mxGeometry x="120" y="330" width="10" height="10" as="geometry" />
        </mxCell>
        <mxCell id="WxkMXaj1MNcZUrJeZnWW-1064" value="" style="whiteSpace=wrap;html=1;aspect=fixed;strokeWidth=0.5;strokeColor=#808080;fillColor=#666666;fontColor=#000099;" vertex="1" parent="1">
          <mxGeometry x="130" y="330" width="10" height="10" as="geometry" />
        </mxCell>
        <mxCell id="WxkMXaj1MNcZUrJeZnWW-1065" value="" style="whiteSpace=wrap;html=1;aspect=fixed;strokeWidth=0.5;strokeColor=#808080;fillColor=#333333;fontColor=#000099;" vertex="1" parent="1">
          <mxGeometry x="140" y="330" width="10" height="10" as="geometry" />
        </mxCell>
        <mxCell id="WxkMXaj1MNcZUrJeZnWW-1066" value="" style="whiteSpace=wrap;html=1;aspect=fixed;strokeWidth=0.5;strokeColor=#808080;fillColor=#000000;fontColor=#000099;" vertex="1" parent="1">
          <mxGeometry x="80" y="340" width="10" height="10" as="geometry" />
        </mxCell>
        <mxCell id="WxkMXaj1MNcZUrJeZnWW-1067" value="" style="whiteSpace=wrap;html=1;aspect=fixed;strokeWidth=0.5;strokeColor=#808080;fillColor=#000000;fontColor=#000099;" vertex="1" parent="1">
          <mxGeometry x="90" y="340" width="10" height="10" as="geometry" />
        </mxCell>
        <mxCell id="WxkMXaj1MNcZUrJeZnWW-1068" value="" style="whiteSpace=wrap;html=1;aspect=fixed;strokeWidth=0.5;strokeColor=#808080;fillColor=#333333;fontColor=#000099;" vertex="1" parent="1">
          <mxGeometry x="100" y="340" width="10" height="10" as="geometry" />
        </mxCell>
        <mxCell id="WxkMXaj1MNcZUrJeZnWW-1069" value="" style="whiteSpace=wrap;html=1;aspect=fixed;strokeWidth=0.5;strokeColor=#808080;fillColor=#666666;fontColor=#000099;" vertex="1" parent="1">
          <mxGeometry x="110" y="340" width="10" height="10" as="geometry" />
        </mxCell>
        <mxCell id="WxkMXaj1MNcZUrJeZnWW-1070" value="" style="whiteSpace=wrap;html=1;aspect=fixed;strokeWidth=0.5;strokeColor=#808080;fillColor=#B3B3B3;fontColor=#000099;" vertex="1" parent="1">
          <mxGeometry x="120" y="340" width="10" height="10" as="geometry" />
        </mxCell>
        <mxCell id="WxkMXaj1MNcZUrJeZnWW-1071" value="" style="whiteSpace=wrap;html=1;aspect=fixed;strokeWidth=0.5;strokeColor=#808080;fillColor=#999999;fontColor=#000099;" vertex="1" parent="1">
          <mxGeometry x="130" y="340" width="10" height="10" as="geometry" />
        </mxCell>
        <mxCell id="WxkMXaj1MNcZUrJeZnWW-1072" value="" style="whiteSpace=wrap;html=1;aspect=fixed;strokeWidth=0.5;strokeColor=#808080;fillColor=#333333;fontColor=#000099;" vertex="1" parent="1">
          <mxGeometry x="140" y="340" width="10" height="10" as="geometry" />
        </mxCell>
        <mxCell id="WxkMXaj1MNcZUrJeZnWW-1073" value="" style="whiteSpace=wrap;html=1;aspect=fixed;strokeWidth=0.5;strokeColor=#808080;fillColor=#000000;fontColor=#000099;" vertex="1" parent="1">
          <mxGeometry x="80" y="350" width="10" height="10" as="geometry" />
        </mxCell>
        <mxCell id="WxkMXaj1MNcZUrJeZnWW-1074" value="" style="whiteSpace=wrap;html=1;aspect=fixed;strokeWidth=0.5;strokeColor=#808080;fillColor=#000000;fontColor=#000099;" vertex="1" parent="1">
          <mxGeometry x="90" y="350" width="10" height="10" as="geometry" />
        </mxCell>
        <mxCell id="WxkMXaj1MNcZUrJeZnWW-1075" value="" style="whiteSpace=wrap;html=1;aspect=fixed;strokeWidth=0.5;strokeColor=#808080;fillColor=#333333;fontColor=#000099;" vertex="1" parent="1">
          <mxGeometry x="100" y="350" width="10" height="10" as="geometry" />
        </mxCell>
        <mxCell id="WxkMXaj1MNcZUrJeZnWW-1076" value="" style="whiteSpace=wrap;html=1;aspect=fixed;strokeWidth=0.5;strokeColor=#808080;fillColor=#333333;fontColor=#000099;" vertex="1" parent="1">
          <mxGeometry x="110" y="350" width="10" height="10" as="geometry" />
        </mxCell>
        <mxCell id="WxkMXaj1MNcZUrJeZnWW-1077" value="" style="whiteSpace=wrap;html=1;aspect=fixed;strokeWidth=0.5;strokeColor=#808080;fillColor=#999999;fontColor=#000099;" vertex="1" parent="1">
          <mxGeometry x="120" y="350" width="10" height="10" as="geometry" />
        </mxCell>
        <mxCell id="WxkMXaj1MNcZUrJeZnWW-1078" value="" style="whiteSpace=wrap;html=1;aspect=fixed;strokeWidth=0.5;strokeColor=#808080;fillColor=#B3B3B3;fontColor=#000099;" vertex="1" parent="1">
          <mxGeometry x="130" y="350" width="10" height="10" as="geometry" />
        </mxCell>
        <mxCell id="WxkMXaj1MNcZUrJeZnWW-1079" value="" style="whiteSpace=wrap;html=1;aspect=fixed;strokeWidth=0.5;strokeColor=#808080;fillColor=#666666;fontColor=#000099;" vertex="1" parent="1">
          <mxGeometry x="140" y="350" width="10" height="10" as="geometry" />
        </mxCell>
        <mxCell id="WxkMXaj1MNcZUrJeZnWW-1080" value="" style="whiteSpace=wrap;html=1;aspect=fixed;strokeWidth=0.5;strokeColor=#808080;fillColor=#000000;fontColor=#000099;" vertex="1" parent="1">
          <mxGeometry x="80" y="360" width="10" height="10" as="geometry" />
        </mxCell>
        <mxCell id="WxkMXaj1MNcZUrJeZnWW-1081" value="" style="whiteSpace=wrap;html=1;aspect=fixed;strokeWidth=0.5;strokeColor=#808080;fillColor=#000000;fontColor=#000099;" vertex="1" parent="1">
          <mxGeometry x="90" y="360" width="10" height="10" as="geometry" />
        </mxCell>
        <mxCell id="WxkMXaj1MNcZUrJeZnWW-1082" value="" style="whiteSpace=wrap;html=1;aspect=fixed;strokeWidth=0.5;strokeColor=#808080;fillColor=#000000;fontColor=#000099;" vertex="1" parent="1">
          <mxGeometry x="100" y="360" width="10" height="10" as="geometry" />
        </mxCell>
        <mxCell id="WxkMXaj1MNcZUrJeZnWW-1083" value="" style="whiteSpace=wrap;html=1;aspect=fixed;strokeWidth=0.5;strokeColor=#808080;fillColor=#333333;fontColor=#000099;" vertex="1" parent="1">
          <mxGeometry x="110" y="360" width="10" height="10" as="geometry" />
        </mxCell>
        <mxCell id="WxkMXaj1MNcZUrJeZnWW-1084" value="" style="whiteSpace=wrap;html=1;aspect=fixed;strokeWidth=0.5;strokeColor=#808080;fillColor=#666666;fontColor=#000099;" vertex="1" parent="1">
          <mxGeometry x="120" y="360" width="10" height="10" as="geometry" />
        </mxCell>
        <mxCell id="WxkMXaj1MNcZUrJeZnWW-1085" value="" style="whiteSpace=wrap;html=1;aspect=fixed;strokeWidth=0.5;strokeColor=#808080;fillColor=#B3B3B3;fontColor=#000099;" vertex="1" parent="1">
          <mxGeometry x="130" y="360" width="10" height="10" as="geometry" />
        </mxCell>
        <mxCell id="WxkMXaj1MNcZUrJeZnWW-1086" value="" style="whiteSpace=wrap;html=1;aspect=fixed;strokeWidth=0.5;strokeColor=#808080;fillColor=#666666;fontColor=#000099;" vertex="1" parent="1">
          <mxGeometry x="140" y="360" width="10" height="10" as="geometry" />
        </mxCell>
        <mxCell id="WxkMXaj1MNcZUrJeZnWW-1087" value="" style="whiteSpace=wrap;html=1;aspect=fixed;strokeWidth=0.5;strokeColor=#808080;fillColor=#000000;fontColor=#000099;" vertex="1" parent="1">
          <mxGeometry x="150" y="300" width="10" height="10" as="geometry" />
        </mxCell>
        <mxCell id="WxkMXaj1MNcZUrJeZnWW-1088" value="" style="whiteSpace=wrap;html=1;aspect=fixed;strokeWidth=0.5;strokeColor=#808080;fillColor=#000000;fontColor=#000099;" vertex="1" parent="1">
          <mxGeometry x="150" y="310" width="10" height="10" as="geometry" />
        </mxCell>
        <mxCell id="WxkMXaj1MNcZUrJeZnWW-1089" value="" style="whiteSpace=wrap;html=1;aspect=fixed;strokeWidth=0.5;strokeColor=#808080;fillColor=#000000;fontColor=#000099;" vertex="1" parent="1">
          <mxGeometry x="150" y="320" width="10" height="10" as="geometry" />
        </mxCell>
        <mxCell id="WxkMXaj1MNcZUrJeZnWW-1090" value="" style="whiteSpace=wrap;html=1;aspect=fixed;strokeWidth=0.5;strokeColor=#808080;fillColor=#000000;fontColor=#000099;" vertex="1" parent="1">
          <mxGeometry x="150" y="330" width="10" height="10" as="geometry" />
        </mxCell>
        <mxCell id="WxkMXaj1MNcZUrJeZnWW-1091" value="" style="whiteSpace=wrap;html=1;aspect=fixed;strokeWidth=0.5;strokeColor=#808080;fillColor=#333333;fontColor=#000099;" vertex="1" parent="1">
          <mxGeometry x="150" y="340" width="10" height="10" as="geometry" />
        </mxCell>
        <mxCell id="WxkMXaj1MNcZUrJeZnWW-1092" value="" style="whiteSpace=wrap;html=1;aspect=fixed;strokeWidth=0.5;strokeColor=#808080;fillColor=#333333;fontColor=#000099;" vertex="1" parent="1">
          <mxGeometry x="150" y="350" width="10" height="10" as="geometry" />
        </mxCell>
        <mxCell id="WxkMXaj1MNcZUrJeZnWW-1093" value="" style="whiteSpace=wrap;html=1;aspect=fixed;strokeWidth=0.5;strokeColor=#808080;fillColor=#666666;fontColor=#000099;" vertex="1" parent="1">
          <mxGeometry x="150" y="360" width="10" height="10" as="geometry" />
        </mxCell>
        <mxCell id="WxkMXaj1MNcZUrJeZnWW-1094" value="" style="whiteSpace=wrap;html=1;aspect=fixed;strokeWidth=0.5;strokeColor=#808080;fillColor=#000000;fontColor=#000099;" vertex="1" parent="1">
          <mxGeometry x="160" y="300" width="10" height="10" as="geometry" />
        </mxCell>
        <mxCell id="WxkMXaj1MNcZUrJeZnWW-1095" value="" style="whiteSpace=wrap;html=1;aspect=fixed;strokeWidth=0.5;strokeColor=#808080;fillColor=#000000;fontColor=#000099;" vertex="1" parent="1">
          <mxGeometry x="160" y="310" width="10" height="10" as="geometry" />
        </mxCell>
        <mxCell id="WxkMXaj1MNcZUrJeZnWW-1096" value="" style="whiteSpace=wrap;html=1;aspect=fixed;strokeWidth=0.5;strokeColor=#808080;fillColor=#000000;fontColor=#000099;" vertex="1" parent="1">
          <mxGeometry x="160" y="320" width="10" height="10" as="geometry" />
        </mxCell>
        <mxCell id="WxkMXaj1MNcZUrJeZnWW-1097" value="" style="whiteSpace=wrap;html=1;aspect=fixed;strokeWidth=0.5;strokeColor=#808080;fillColor=#000000;fontColor=#000099;" vertex="1" parent="1">
          <mxGeometry x="160" y="330" width="10" height="10" as="geometry" />
        </mxCell>
        <mxCell id="WxkMXaj1MNcZUrJeZnWW-1098" value="" style="whiteSpace=wrap;html=1;aspect=fixed;strokeWidth=0.5;strokeColor=#808080;fillColor=#000000;fontColor=#000099;" vertex="1" parent="1">
          <mxGeometry x="160" y="340" width="10" height="10" as="geometry" />
        </mxCell>
        <mxCell id="WxkMXaj1MNcZUrJeZnWW-1099" value="" style="whiteSpace=wrap;html=1;aspect=fixed;strokeWidth=0.5;strokeColor=#808080;fillColor=#000000;fontColor=#000099;" vertex="1" parent="1">
          <mxGeometry x="160" y="350" width="10" height="10" as="geometry" />
        </mxCell>
        <mxCell id="WxkMXaj1MNcZUrJeZnWW-1100" value="" style="whiteSpace=wrap;html=1;aspect=fixed;strokeWidth=0.5;strokeColor=#808080;fillColor=#000000;fontColor=#000099;" vertex="1" parent="1">
          <mxGeometry x="160" y="360" width="10" height="10" as="geometry" />
        </mxCell>
        <mxCell id="WxkMXaj1MNcZUrJeZnWW-1101" value="" style="whiteSpace=wrap;html=1;aspect=fixed;strokeWidth=0.5;strokeColor=#808080;fillColor=#000000;fontColor=#000099;" vertex="1" parent="1">
          <mxGeometry x="80" y="380" width="10" height="10" as="geometry" />
        </mxCell>
        <mxCell id="WxkMXaj1MNcZUrJeZnWW-1102" value="" style="whiteSpace=wrap;html=1;aspect=fixed;strokeWidth=0.5;strokeColor=#808080;fillColor=#000000;fontColor=#000099;" vertex="1" parent="1">
          <mxGeometry x="90" y="380" width="10" height="10" as="geometry" />
        </mxCell>
        <mxCell id="WxkMXaj1MNcZUrJeZnWW-1103" value="" style="whiteSpace=wrap;html=1;aspect=fixed;strokeWidth=0.5;strokeColor=#808080;fillColor=#000000;fontColor=#000099;" vertex="1" parent="1">
          <mxGeometry x="100" y="380" width="10" height="10" as="geometry" />
        </mxCell>
        <mxCell id="WxkMXaj1MNcZUrJeZnWW-1104" value="" style="whiteSpace=wrap;html=1;aspect=fixed;strokeWidth=0.5;strokeColor=#808080;fillColor=#000000;fontColor=#000099;" vertex="1" parent="1">
          <mxGeometry x="110" y="380" width="10" height="10" as="geometry" />
        </mxCell>
        <mxCell id="WxkMXaj1MNcZUrJeZnWW-1105" value="" style="whiteSpace=wrap;html=1;aspect=fixed;strokeWidth=0.5;strokeColor=#808080;fillColor=#333333;fontColor=#000099;" vertex="1" parent="1">
          <mxGeometry x="120" y="380" width="10" height="10" as="geometry" />
        </mxCell>
        <mxCell id="WxkMXaj1MNcZUrJeZnWW-1108" value="" style="whiteSpace=wrap;html=1;aspect=fixed;strokeWidth=0.5;strokeColor=#808080;fillColor=#000000;fontColor=#000099;" vertex="1" parent="1">
          <mxGeometry x="80" y="390" width="10" height="10" as="geometry" />
        </mxCell>
        <mxCell id="WxkMXaj1MNcZUrJeZnWW-1109" value="" style="whiteSpace=wrap;html=1;aspect=fixed;strokeWidth=0.5;strokeColor=#808080;fillColor=#000000;fontColor=#000099;" vertex="1" parent="1">
          <mxGeometry x="90" y="390" width="10" height="10" as="geometry" />
        </mxCell>
        <mxCell id="WxkMXaj1MNcZUrJeZnWW-1110" value="" style="whiteSpace=wrap;html=1;aspect=fixed;strokeWidth=0.5;strokeColor=#808080;fillColor=#000000;fontColor=#000099;" vertex="1" parent="1">
          <mxGeometry x="100" y="390" width="10" height="10" as="geometry" />
        </mxCell>
        <mxCell id="WxkMXaj1MNcZUrJeZnWW-1111" value="" style="whiteSpace=wrap;html=1;aspect=fixed;strokeWidth=0.5;strokeColor=#808080;fillColor=#000000;fontColor=#000099;" vertex="1" parent="1">
          <mxGeometry x="110" y="390" width="10" height="10" as="geometry" />
        </mxCell>
        <mxCell id="WxkMXaj1MNcZUrJeZnWW-1112" value="" style="whiteSpace=wrap;html=1;aspect=fixed;strokeWidth=0.5;strokeColor=#808080;fillColor=#000000;fontColor=#000099;" vertex="1" parent="1">
          <mxGeometry x="120" y="390" width="10" height="10" as="geometry" />
        </mxCell>
        <mxCell id="WxkMXaj1MNcZUrJeZnWW-1113" value="" style="whiteSpace=wrap;html=1;aspect=fixed;strokeWidth=0.5;strokeColor=#808080;fillColor=#000000;fontColor=#000099;" vertex="1" parent="1">
          <mxGeometry x="130" y="390" width="10" height="10" as="geometry" />
        </mxCell>
        <mxCell id="WxkMXaj1MNcZUrJeZnWW-1114" value="" style="whiteSpace=wrap;html=1;aspect=fixed;strokeWidth=0.5;strokeColor=#808080;fillColor=#000000;fontColor=#000099;" vertex="1" parent="1">
          <mxGeometry x="140" y="390" width="10" height="10" as="geometry" />
        </mxCell>
        <mxCell id="WxkMXaj1MNcZUrJeZnWW-1116" value="" style="whiteSpace=wrap;html=1;aspect=fixed;strokeWidth=0.5;strokeColor=#808080;fillColor=#000000;fontColor=#000099;" vertex="1" parent="1">
          <mxGeometry x="150" y="390" width="10" height="10" as="geometry" />
        </mxCell>
        <mxCell id="WxkMXaj1MNcZUrJeZnWW-1118" value="" style="whiteSpace=wrap;html=1;aspect=fixed;strokeWidth=0.5;strokeColor=#808080;fillColor=#000000;fontColor=#000099;" vertex="1" parent="1">
          <mxGeometry x="160" y="390" width="10" height="10" as="geometry" />
        </mxCell>
        <mxCell id="WxkMXaj1MNcZUrJeZnWW-1119" value="" style="whiteSpace=wrap;html=1;aspect=fixed;strokeWidth=0.5;strokeColor=#808080;fillColor=#000000;fontColor=#000099;" vertex="1" parent="1">
          <mxGeometry x="80" y="370" width="10" height="10" as="geometry" />
        </mxCell>
        <mxCell id="WxkMXaj1MNcZUrJeZnWW-1120" value="" style="whiteSpace=wrap;html=1;aspect=fixed;strokeWidth=0.5;strokeColor=#808080;fillColor=#000000;fontColor=#000099;" vertex="1" parent="1">
          <mxGeometry x="90" y="370" width="10" height="10" as="geometry" />
        </mxCell>
        <mxCell id="WxkMXaj1MNcZUrJeZnWW-1121" value="" style="whiteSpace=wrap;html=1;aspect=fixed;strokeWidth=0.5;strokeColor=#808080;fillColor=#000000;fontColor=#000099;" vertex="1" parent="1">
          <mxGeometry x="100" y="370" width="10" height="10" as="geometry" />
        </mxCell>
        <mxCell id="WxkMXaj1MNcZUrJeZnWW-1122" value="" style="whiteSpace=wrap;html=1;aspect=fixed;strokeWidth=0.5;strokeColor=#808080;fillColor=#333333;fontColor=#000099;" vertex="1" parent="1">
          <mxGeometry x="110" y="370" width="10" height="10" as="geometry" />
        </mxCell>
        <mxCell id="WxkMXaj1MNcZUrJeZnWW-1123" value="" style="whiteSpace=wrap;html=1;aspect=fixed;strokeWidth=0.5;strokeColor=#808080;fillColor=#333333;fontColor=#000099;" vertex="1" parent="1">
          <mxGeometry x="120" y="370" width="10" height="10" as="geometry" />
        </mxCell>
        <mxCell id="WxkMXaj1MNcZUrJeZnWW-1124" value="" style="whiteSpace=wrap;html=1;aspect=fixed;strokeWidth=0.5;strokeColor=#808080;fillColor=#666666;fontColor=#000099;" vertex="1" parent="1">
          <mxGeometry x="130" y="370" width="10" height="10" as="geometry" />
        </mxCell>
        <mxCell id="WxkMXaj1MNcZUrJeZnWW-1125" value="" style="whiteSpace=wrap;html=1;aspect=fixed;strokeWidth=0.5;strokeColor=#808080;fillColor=#B3B3B3;fontColor=#000099;" vertex="1" parent="1">
          <mxGeometry x="140" y="370" width="10" height="10" as="geometry" />
        </mxCell>
        <mxCell id="WxkMXaj1MNcZUrJeZnWW-1126" value="" style="whiteSpace=wrap;html=1;aspect=fixed;strokeWidth=0.5;strokeColor=#808080;fillColor=#B3B3B3;fontColor=#000099;" vertex="1" parent="1">
          <mxGeometry x="150" y="370" width="10" height="10" as="geometry" />
        </mxCell>
        <mxCell id="WxkMXaj1MNcZUrJeZnWW-1127" value="" style="whiteSpace=wrap;html=1;aspect=fixed;strokeWidth=0.5;strokeColor=#808080;fillColor=#000000;fontColor=#000099;" vertex="1" parent="1">
          <mxGeometry x="160" y="370" width="10" height="10" as="geometry" />
        </mxCell>
        <mxCell id="WxkMXaj1MNcZUrJeZnWW-1128" value="" style="whiteSpace=wrap;html=1;aspect=fixed;strokeWidth=0.5;strokeColor=#808080;fillColor=#000000;fontColor=#000099;" vertex="1" parent="1">
          <mxGeometry x="170" y="300" width="10" height="10" as="geometry" />
        </mxCell>
        <mxCell id="WxkMXaj1MNcZUrJeZnWW-1129" value="" style="whiteSpace=wrap;html=1;aspect=fixed;strokeWidth=0.5;strokeColor=#808080;fillColor=#000000;fontColor=#000099;" vertex="1" parent="1">
          <mxGeometry x="170" y="310" width="10" height="10" as="geometry" />
        </mxCell>
        <mxCell id="WxkMXaj1MNcZUrJeZnWW-1130" value="" style="whiteSpace=wrap;html=1;aspect=fixed;strokeWidth=0.5;strokeColor=#808080;fillColor=#000000;fontColor=#000099;" vertex="1" parent="1">
          <mxGeometry x="170" y="320" width="10" height="10" as="geometry" />
        </mxCell>
        <mxCell id="WxkMXaj1MNcZUrJeZnWW-1131" value="" style="whiteSpace=wrap;html=1;aspect=fixed;strokeWidth=0.5;strokeColor=#808080;fillColor=#000000;fontColor=#000099;" vertex="1" parent="1">
          <mxGeometry x="170" y="330" width="10" height="10" as="geometry" />
        </mxCell>
        <mxCell id="WxkMXaj1MNcZUrJeZnWW-1132" value="" style="whiteSpace=wrap;html=1;aspect=fixed;strokeWidth=0.5;strokeColor=#808080;fillColor=#000000;fontColor=#000099;" vertex="1" parent="1">
          <mxGeometry x="170" y="340" width="10" height="10" as="geometry" />
        </mxCell>
        <mxCell id="WxkMXaj1MNcZUrJeZnWW-1133" value="" style="whiteSpace=wrap;html=1;aspect=fixed;strokeWidth=0.5;strokeColor=#808080;fillColor=#000000;fontColor=#000099;" vertex="1" parent="1">
          <mxGeometry x="170" y="350" width="10" height="10" as="geometry" />
        </mxCell>
        <mxCell id="WxkMXaj1MNcZUrJeZnWW-1134" value="" style="whiteSpace=wrap;html=1;aspect=fixed;strokeWidth=0.5;strokeColor=#808080;fillColor=#000000;fontColor=#000099;" vertex="1" parent="1">
          <mxGeometry x="170" y="360" width="10" height="10" as="geometry" />
        </mxCell>
        <mxCell id="WxkMXaj1MNcZUrJeZnWW-1136" value="" style="whiteSpace=wrap;html=1;aspect=fixed;strokeWidth=0.5;strokeColor=#808080;fillColor=#000000;fontColor=#000099;" vertex="1" parent="1">
          <mxGeometry x="170" y="390" width="10" height="10" as="geometry" />
        </mxCell>
        <mxCell id="WxkMXaj1MNcZUrJeZnWW-1137" value="" style="whiteSpace=wrap;html=1;aspect=fixed;strokeWidth=0.5;strokeColor=#808080;fillColor=#000000;fontColor=#000099;" vertex="1" parent="1">
          <mxGeometry x="170" y="370" width="10" height="10" as="geometry" />
        </mxCell>
        <mxCell id="WxkMXaj1MNcZUrJeZnWW-1138" value="0" style="text;html=1;strokeColor=none;fillColor=none;align=center;verticalAlign=middle;whiteSpace=wrap;rounded=0;fontColor=#000099;fontSize=6;" vertex="1" parent="1">
          <mxGeometry x="70" y="380" width="10" height="10" as="geometry" />
        </mxCell>
        <mxCell id="WxkMXaj1MNcZUrJeZnWW-1139" value="1" style="text;html=1;strokeColor=none;fillColor=none;align=center;verticalAlign=middle;whiteSpace=wrap;rounded=0;fontColor=#000099;fontSize=6;" vertex="1" parent="1">
          <mxGeometry x="70" y="370" width="10" height="10" as="geometry" />
        </mxCell>
        <mxCell id="WxkMXaj1MNcZUrJeZnWW-1140" value="2" style="text;html=1;strokeColor=none;fillColor=none;align=center;verticalAlign=middle;whiteSpace=wrap;rounded=0;fontColor=#000099;fontSize=6;" vertex="1" parent="1">
          <mxGeometry x="70" y="360" width="10" height="10" as="geometry" />
        </mxCell>
        <mxCell id="WxkMXaj1MNcZUrJeZnWW-1141" value="3" style="text;html=1;strokeColor=none;fillColor=none;align=center;verticalAlign=middle;whiteSpace=wrap;rounded=0;fontColor=#000099;fontSize=6;" vertex="1" parent="1">
          <mxGeometry x="70" y="350" width="10" height="10" as="geometry" />
        </mxCell>
        <mxCell id="WxkMXaj1MNcZUrJeZnWW-1142" value="4" style="text;html=1;strokeColor=none;fillColor=none;align=center;verticalAlign=middle;whiteSpace=wrap;rounded=0;fontColor=#000099;fontSize=6;" vertex="1" parent="1">
          <mxGeometry x="70" y="340" width="10" height="10" as="geometry" />
        </mxCell>
        <mxCell id="WxkMXaj1MNcZUrJeZnWW-1143" value="5" style="text;html=1;strokeColor=none;fillColor=none;align=center;verticalAlign=middle;whiteSpace=wrap;rounded=0;fontColor=#000099;fontSize=6;" vertex="1" parent="1">
          <mxGeometry x="70" y="330" width="10" height="10" as="geometry" />
        </mxCell>
        <mxCell id="WxkMXaj1MNcZUrJeZnWW-1144" value="6" style="text;html=1;strokeColor=none;fillColor=none;align=center;verticalAlign=middle;whiteSpace=wrap;rounded=0;fontColor=#000099;fontSize=6;" vertex="1" parent="1">
          <mxGeometry x="70" y="320" width="10" height="10" as="geometry" />
        </mxCell>
        <mxCell id="WxkMXaj1MNcZUrJeZnWW-1145" value="7" style="text;html=1;strokeColor=none;fillColor=none;align=center;verticalAlign=middle;whiteSpace=wrap;rounded=0;fontColor=#000099;fontSize=6;" vertex="1" parent="1">
          <mxGeometry x="70" y="310" width="10" height="10" as="geometry" />
        </mxCell>
        <mxCell id="WxkMXaj1MNcZUrJeZnWW-1148" value="" style="whiteSpace=wrap;html=1;aspect=fixed;strokeWidth=0.5;strokeColor=#808080;fillColor=#333333;fontColor=#000099;" vertex="1" parent="1">
          <mxGeometry x="120" y="310" width="10" height="10" as="geometry" />
        </mxCell>
        <mxCell id="WxkMXaj1MNcZUrJeZnWW-1149" value="" style="whiteSpace=wrap;html=1;aspect=fixed;strokeWidth=0.5;strokeColor=#808080;fillColor=#666666;fontColor=#000099;" vertex="1" parent="1">
          <mxGeometry x="110" y="310" width="10" height="10" as="geometry" />
        </mxCell>
        <mxCell id="WxkMXaj1MNcZUrJeZnWW-1150" value="" style="whiteSpace=wrap;html=1;aspect=fixed;strokeWidth=0.5;strokeColor=#808080;fillColor=#666666;fontColor=#000099;" vertex="1" parent="1">
          <mxGeometry x="100" y="310" width="10" height="10" as="geometry" />
        </mxCell>
        <mxCell id="WxkMXaj1MNcZUrJeZnWW-1151" value="" style="whiteSpace=wrap;html=1;aspect=fixed;strokeWidth=0.5;strokeColor=#808080;fillColor=#000000;fontColor=#000099;" vertex="1" parent="1">
          <mxGeometry x="80" y="310" width="10" height="10" as="geometry" />
        </mxCell>
        <mxCell id="WxkMXaj1MNcZUrJeZnWW-1152" value="" style="whiteSpace=wrap;html=1;aspect=fixed;strokeWidth=0.5;strokeColor=#808080;fillColor=#666666;fontColor=#000099;" vertex="1" parent="1">
          <mxGeometry x="150" y="380" width="10" height="10" as="geometry" />
        </mxCell>
        <mxCell id="WxkMXaj1MNcZUrJeZnWW-1153" value="" style="whiteSpace=wrap;html=1;aspect=fixed;strokeWidth=0.5;strokeColor=#808080;fillColor=#666666;fontColor=#000099;" vertex="1" parent="1">
          <mxGeometry x="140" y="380" width="10" height="10" as="geometry" />
        </mxCell>
        <mxCell id="WxkMXaj1MNcZUrJeZnWW-1154" value="" style="whiteSpace=wrap;html=1;aspect=fixed;strokeWidth=0.5;strokeColor=#808080;fillColor=#333333;fontColor=#000099;" vertex="1" parent="1">
          <mxGeometry x="130" y="380" width="10" height="10" as="geometry" />
        </mxCell>
        <mxCell id="WxkMXaj1MNcZUrJeZnWW-1155" value="" style="whiteSpace=wrap;html=1;aspect=fixed;strokeWidth=0.5;strokeColor=#808080;fillColor=#000000;fontColor=#000099;" vertex="1" parent="1">
          <mxGeometry x="170" y="380" width="10" height="10" as="geometry" />
        </mxCell>
        <mxCell id="WxkMXaj1MNcZUrJeZnWW-1046" value="" style="whiteSpace=wrap;html=1;aspect=fixed;strokeWidth=0.5;strokeColor=#808080;fillColor=#FFFFFF;fontColor=#000099;" vertex="1" parent="1">
          <mxGeometry x="90" y="310" width="10" height="10" as="geometry" />
        </mxCell>
        <mxCell id="WxkMXaj1MNcZUrJeZnWW-1117" value="" style="whiteSpace=wrap;html=1;aspect=fixed;strokeWidth=0.5;strokeColor=#808080;fillColor=#FFFFFF;fontColor=#000099;" vertex="1" parent="1">
          <mxGeometry x="160" y="380" width="10" height="10" as="geometry" />
        </mxCell>
        <mxCell id="WxkMXaj1MNcZUrJeZnWW-1265" value="" style="whiteSpace=wrap;html=1;aspect=fixed;strokeWidth=0.5;strokeColor=#808080;fillColor=#000000;fontColor=#000099;" vertex="1" parent="1">
          <mxGeometry x="240" y="300" width="10" height="10" as="geometry" />
        </mxCell>
        <mxCell id="WxkMXaj1MNcZUrJeZnWW-1266" value="" style="whiteSpace=wrap;html=1;aspect=fixed;strokeWidth=0.5;strokeColor=#808080;fillColor=#000000;fontColor=#000099;" vertex="1" parent="1">
          <mxGeometry x="250" y="300" width="10" height="10" as="geometry" />
        </mxCell>
        <mxCell id="WxkMXaj1MNcZUrJeZnWW-1267" value="" style="whiteSpace=wrap;html=1;aspect=fixed;strokeWidth=0.5;strokeColor=#808080;fillColor=#000000;fontColor=#000099;" vertex="1" parent="1">
          <mxGeometry x="260" y="300" width="10" height="10" as="geometry" />
        </mxCell>
        <mxCell id="WxkMXaj1MNcZUrJeZnWW-1268" value="" style="whiteSpace=wrap;html=1;aspect=fixed;strokeWidth=0.5;strokeColor=#808080;fillColor=#000000;fontColor=#000099;" vertex="1" parent="1">
          <mxGeometry x="270" y="300" width="10" height="10" as="geometry" />
        </mxCell>
        <mxCell id="WxkMXaj1MNcZUrJeZnWW-1269" value="" style="whiteSpace=wrap;html=1;aspect=fixed;strokeWidth=0.5;strokeColor=#808080;fillColor=#000000;fontColor=#000099;" vertex="1" parent="1">
          <mxGeometry x="280" y="300" width="10" height="10" as="geometry" />
        </mxCell>
        <mxCell id="WxkMXaj1MNcZUrJeZnWW-1270" value="" style="whiteSpace=wrap;html=1;aspect=fixed;strokeWidth=0.5;strokeColor=#808080;fillColor=#000000;fontColor=#000099;" vertex="1" parent="1">
          <mxGeometry x="290" y="300" width="10" height="10" as="geometry" />
        </mxCell>
        <mxCell id="WxkMXaj1MNcZUrJeZnWW-1273" value="" style="whiteSpace=wrap;html=1;aspect=fixed;strokeWidth=0.5;strokeColor=#808080;fillColor=#FFFFFF;fontColor=#000099;" vertex="1" parent="1">
          <mxGeometry x="250" y="310" width="10" height="10" as="geometry" />
        </mxCell>
        <mxCell id="WxkMXaj1MNcZUrJeZnWW-1276" value="" style="whiteSpace=wrap;html=1;aspect=fixed;strokeWidth=0.5;strokeColor=#808080;fillColor=#333333;fontColor=#000099;" vertex="1" parent="1">
          <mxGeometry x="280" y="310" width="10" height="10" as="geometry" />
        </mxCell>
        <mxCell id="WxkMXaj1MNcZUrJeZnWW-1277" value="" style="whiteSpace=wrap;html=1;aspect=fixed;strokeWidth=0.5;strokeColor=#808080;fillColor=#000000;fontColor=#000099;" vertex="1" parent="1">
          <mxGeometry x="290" y="310" width="10" height="10" as="geometry" />
        </mxCell>
        <mxCell id="WxkMXaj1MNcZUrJeZnWW-1279" value="" style="whiteSpace=wrap;html=1;aspect=fixed;strokeWidth=0.5;strokeColor=#808080;fillColor=#000000;fontColor=#000099;" vertex="1" parent="1">
          <mxGeometry x="240" y="320" width="10" height="10" as="geometry" />
        </mxCell>
        <mxCell id="WxkMXaj1MNcZUrJeZnWW-1280" value="" style="whiteSpace=wrap;html=1;aspect=fixed;strokeWidth=0.5;strokeColor=#808080;fillColor=#000000;fontColor=#000099;" vertex="1" parent="1">
          <mxGeometry x="250" y="320" width="10" height="10" as="geometry" />
        </mxCell>
        <mxCell id="WxkMXaj1MNcZUrJeZnWW-1281" value="" style="whiteSpace=wrap;html=1;aspect=fixed;strokeWidth=0.5;strokeColor=#808080;fillColor=#B3B3B3;fontColor=#000099;" vertex="1" parent="1">
          <mxGeometry x="260" y="320" width="10" height="10" as="geometry" />
        </mxCell>
        <mxCell id="WxkMXaj1MNcZUrJeZnWW-1282" value="" style="whiteSpace=wrap;html=1;aspect=fixed;strokeWidth=0.5;strokeColor=#808080;fillColor=#999999;fontColor=#000099;" vertex="1" parent="1">
          <mxGeometry x="270" y="320" width="10" height="10" as="geometry" />
        </mxCell>
        <mxCell id="WxkMXaj1MNcZUrJeZnWW-1283" value="" style="whiteSpace=wrap;html=1;aspect=fixed;strokeWidth=0.5;strokeColor=#808080;fillColor=#666666;fontColor=#000099;" vertex="1" parent="1">
          <mxGeometry x="280" y="320" width="10" height="10" as="geometry" />
        </mxCell>
        <mxCell id="WxkMXaj1MNcZUrJeZnWW-1284" value="" style="whiteSpace=wrap;html=1;aspect=fixed;strokeWidth=0.5;strokeColor=#808080;fillColor=#333333;fontColor=#000099;" vertex="1" parent="1">
          <mxGeometry x="290" y="320" width="10" height="10" as="geometry" />
        </mxCell>
        <mxCell id="WxkMXaj1MNcZUrJeZnWW-1286" value="" style="whiteSpace=wrap;html=1;aspect=fixed;strokeWidth=0.5;strokeColor=#808080;fillColor=#000000;fontColor=#000099;" vertex="1" parent="1">
          <mxGeometry x="240" y="330" width="10" height="10" as="geometry" />
        </mxCell>
        <mxCell id="WxkMXaj1MNcZUrJeZnWW-1287" value="" style="whiteSpace=wrap;html=1;aspect=fixed;strokeWidth=0.5;strokeColor=#808080;fillColor=#000000;fontColor=#000099;" vertex="1" parent="1">
          <mxGeometry x="250" y="330" width="10" height="10" as="geometry" />
        </mxCell>
        <mxCell id="WxkMXaj1MNcZUrJeZnWW-1288" value="" style="whiteSpace=wrap;html=1;aspect=fixed;strokeWidth=0.5;strokeColor=#808080;fillColor=#808080;fontColor=#000099;" vertex="1" parent="1">
          <mxGeometry x="260" y="330" width="10" height="10" as="geometry" />
        </mxCell>
        <mxCell id="WxkMXaj1MNcZUrJeZnWW-1289" value="" style="whiteSpace=wrap;html=1;aspect=fixed;strokeWidth=0.5;strokeColor=#808080;fillColor=#B3B3B3;fontColor=#000099;" vertex="1" parent="1">
          <mxGeometry x="270" y="330" width="10" height="10" as="geometry" />
        </mxCell>
        <mxCell id="WxkMXaj1MNcZUrJeZnWW-1290" value="" style="whiteSpace=wrap;html=1;aspect=fixed;strokeWidth=0.5;strokeColor=#808080;fillColor=#808080;fontColor=#000099;" vertex="1" parent="1">
          <mxGeometry x="280" y="330" width="10" height="10" as="geometry" />
        </mxCell>
        <mxCell id="WxkMXaj1MNcZUrJeZnWW-1291" value="" style="whiteSpace=wrap;html=1;aspect=fixed;strokeWidth=0.5;strokeColor=#808080;fillColor=#666666;fontColor=#000099;" vertex="1" parent="1">
          <mxGeometry x="290" y="330" width="10" height="10" as="geometry" />
        </mxCell>
        <mxCell id="WxkMXaj1MNcZUrJeZnWW-1293" value="" style="whiteSpace=wrap;html=1;aspect=fixed;strokeWidth=0.5;strokeColor=#808080;fillColor=#000000;fontColor=#000099;" vertex="1" parent="1">
          <mxGeometry x="240" y="340" width="10" height="10" as="geometry" />
        </mxCell>
        <mxCell id="WxkMXaj1MNcZUrJeZnWW-1294" value="" style="whiteSpace=wrap;html=1;aspect=fixed;strokeWidth=0.5;strokeColor=#808080;fillColor=#000000;fontColor=#000099;" vertex="1" parent="1">
          <mxGeometry x="250" y="340" width="10" height="10" as="geometry" />
        </mxCell>
        <mxCell id="WxkMXaj1MNcZUrJeZnWW-1295" value="" style="whiteSpace=wrap;html=1;aspect=fixed;strokeWidth=0.5;strokeColor=#808080;fillColor=#666666;fontColor=#000099;" vertex="1" parent="1">
          <mxGeometry x="260" y="340" width="10" height="10" as="geometry" />
        </mxCell>
        <mxCell id="WxkMXaj1MNcZUrJeZnWW-1296" value="" style="whiteSpace=wrap;html=1;aspect=fixed;strokeWidth=0.5;strokeColor=#808080;fillColor=#808080;fontColor=#000099;" vertex="1" parent="1">
          <mxGeometry x="270" y="340" width="10" height="10" as="geometry" />
        </mxCell>
        <mxCell id="WxkMXaj1MNcZUrJeZnWW-1297" value="" style="whiteSpace=wrap;html=1;aspect=fixed;strokeWidth=0.5;strokeColor=#808080;fillColor=#B3B3B3;fontColor=#000099;" vertex="1" parent="1">
          <mxGeometry x="280" y="340" width="10" height="10" as="geometry" />
        </mxCell>
        <mxCell id="WxkMXaj1MNcZUrJeZnWW-1298" value="" style="whiteSpace=wrap;html=1;aspect=fixed;strokeWidth=0.5;strokeColor=#808080;fillColor=#808080;fontColor=#000099;" vertex="1" parent="1">
          <mxGeometry x="290" y="340" width="10" height="10" as="geometry" />
        </mxCell>
        <mxCell id="WxkMXaj1MNcZUrJeZnWW-1299" value="" style="whiteSpace=wrap;html=1;aspect=fixed;strokeWidth=0.5;strokeColor=#808080;fillColor=#000000;fontColor=#000099;" vertex="1" parent="1">
          <mxGeometry x="300" y="300" width="10" height="10" as="geometry" />
        </mxCell>
        <mxCell id="WxkMXaj1MNcZUrJeZnWW-1300" value="" style="whiteSpace=wrap;html=1;aspect=fixed;strokeWidth=0.5;strokeColor=#808080;fillColor=#000000;fontColor=#000099;" vertex="1" parent="1">
          <mxGeometry x="300" y="310" width="10" height="10" as="geometry" />
        </mxCell>
        <mxCell id="WxkMXaj1MNcZUrJeZnWW-1301" value="" style="whiteSpace=wrap;html=1;aspect=fixed;strokeWidth=0.5;strokeColor=#808080;fillColor=#000000;fontColor=#000099;" vertex="1" parent="1">
          <mxGeometry x="300" y="320" width="10" height="10" as="geometry" />
        </mxCell>
        <mxCell id="WxkMXaj1MNcZUrJeZnWW-1302" value="" style="whiteSpace=wrap;html=1;aspect=fixed;strokeWidth=0.5;strokeColor=#808080;fillColor=#000000;fontColor=#000099;" vertex="1" parent="1">
          <mxGeometry x="300" y="330" width="10" height="10" as="geometry" />
        </mxCell>
        <mxCell id="WxkMXaj1MNcZUrJeZnWW-1303" value="" style="whiteSpace=wrap;html=1;aspect=fixed;strokeWidth=0.5;strokeColor=#808080;fillColor=#000000;fontColor=#000099;" vertex="1" parent="1">
          <mxGeometry x="300" y="340" width="10" height="10" as="geometry" />
        </mxCell>
        <mxCell id="WxkMXaj1MNcZUrJeZnWW-1304" value="" style="whiteSpace=wrap;html=1;aspect=fixed;strokeWidth=0.5;strokeColor=#808080;fillColor=#000000;fontColor=#000099;" vertex="1" parent="1">
          <mxGeometry x="310" y="300" width="10" height="10" as="geometry" />
        </mxCell>
        <mxCell id="WxkMXaj1MNcZUrJeZnWW-1305" value="" style="whiteSpace=wrap;html=1;aspect=fixed;strokeWidth=0.5;strokeColor=#808080;fillColor=#000000;fontColor=#000099;" vertex="1" parent="1">
          <mxGeometry x="310" y="310" width="10" height="10" as="geometry" />
        </mxCell>
        <mxCell id="WxkMXaj1MNcZUrJeZnWW-1306" value="" style="whiteSpace=wrap;html=1;aspect=fixed;strokeWidth=0.5;strokeColor=#808080;fillColor=#000000;fontColor=#000099;" vertex="1" parent="1">
          <mxGeometry x="310" y="320" width="10" height="10" as="geometry" />
        </mxCell>
        <mxCell id="WxkMXaj1MNcZUrJeZnWW-1307" value="" style="whiteSpace=wrap;html=1;aspect=fixed;strokeWidth=0.5;strokeColor=#808080;fillColor=#000000;fontColor=#000099;" vertex="1" parent="1">
          <mxGeometry x="310" y="330" width="10" height="10" as="geometry" />
        </mxCell>
        <mxCell id="WxkMXaj1MNcZUrJeZnWW-1308" value="" style="whiteSpace=wrap;html=1;aspect=fixed;strokeWidth=0.5;strokeColor=#808080;fillColor=#000000;fontColor=#000099;" vertex="1" parent="1">
          <mxGeometry x="310" y="340" width="10" height="10" as="geometry" />
        </mxCell>
        <mxCell id="WxkMXaj1MNcZUrJeZnWW-1310" value="" style="whiteSpace=wrap;html=1;aspect=fixed;strokeWidth=0.5;strokeColor=#808080;fillColor=#000000;fontColor=#000099;" vertex="1" parent="1">
          <mxGeometry x="240" y="360" width="10" height="10" as="geometry" />
        </mxCell>
        <mxCell id="WxkMXaj1MNcZUrJeZnWW-1311" value="" style="whiteSpace=wrap;html=1;aspect=fixed;strokeWidth=0.5;strokeColor=#808080;fillColor=#000000;fontColor=#000099;" vertex="1" parent="1">
          <mxGeometry x="250" y="360" width="10" height="10" as="geometry" />
        </mxCell>
        <mxCell id="WxkMXaj1MNcZUrJeZnWW-1312" value="" style="whiteSpace=wrap;html=1;aspect=fixed;strokeWidth=0.5;strokeColor=#808080;fillColor=#000000;fontColor=#000099;" vertex="1" parent="1">
          <mxGeometry x="260" y="360" width="10" height="10" as="geometry" />
        </mxCell>
        <mxCell id="WxkMXaj1MNcZUrJeZnWW-1313" value="" style="whiteSpace=wrap;html=1;aspect=fixed;strokeWidth=0.5;strokeColor=#808080;fillColor=#333333;fontColor=#000099;" vertex="1" parent="1">
          <mxGeometry x="270" y="360" width="10" height="10" as="geometry" />
        </mxCell>
        <mxCell id="WxkMXaj1MNcZUrJeZnWW-1317" value="" style="whiteSpace=wrap;html=1;aspect=fixed;strokeWidth=0.5;strokeColor=#808080;fillColor=#000000;fontColor=#000099;" vertex="1" parent="1">
          <mxGeometry x="240" y="370" width="10" height="10" as="geometry" />
        </mxCell>
        <mxCell id="WxkMXaj1MNcZUrJeZnWW-1318" value="" style="whiteSpace=wrap;html=1;aspect=fixed;strokeWidth=0.5;strokeColor=#808080;fillColor=#000000;fontColor=#000099;" vertex="1" parent="1">
          <mxGeometry x="250" y="370" width="10" height="10" as="geometry" />
        </mxCell>
        <mxCell id="WxkMXaj1MNcZUrJeZnWW-1319" value="" style="whiteSpace=wrap;html=1;aspect=fixed;strokeWidth=0.5;strokeColor=#808080;fillColor=#000000;fontColor=#000099;" vertex="1" parent="1">
          <mxGeometry x="260" y="370" width="10" height="10" as="geometry" />
        </mxCell>
        <mxCell id="WxkMXaj1MNcZUrJeZnWW-1320" value="" style="whiteSpace=wrap;html=1;aspect=fixed;strokeWidth=0.5;strokeColor=#808080;fillColor=#000000;fontColor=#000099;" vertex="1" parent="1">
          <mxGeometry x="270" y="370" width="10" height="10" as="geometry" />
        </mxCell>
        <mxCell id="WxkMXaj1MNcZUrJeZnWW-1321" value="" style="whiteSpace=wrap;html=1;aspect=fixed;strokeWidth=0.5;strokeColor=#808080;fillColor=#000000;fontColor=#000099;" vertex="1" parent="1">
          <mxGeometry x="280" y="370" width="10" height="10" as="geometry" />
        </mxCell>
        <mxCell id="WxkMXaj1MNcZUrJeZnWW-1322" value="" style="whiteSpace=wrap;html=1;aspect=fixed;strokeWidth=0.5;strokeColor=#808080;fillColor=#000000;fontColor=#000099;" vertex="1" parent="1">
          <mxGeometry x="290" y="370" width="10" height="10" as="geometry" />
        </mxCell>
        <mxCell id="WxkMXaj1MNcZUrJeZnWW-1323" value="" style="whiteSpace=wrap;html=1;aspect=fixed;strokeWidth=0.5;strokeColor=#808080;fillColor=#FFFFFF;fontColor=#000099;" vertex="1" parent="1">
          <mxGeometry x="300" y="360" width="10" height="10" as="geometry" />
        </mxCell>
        <mxCell id="WxkMXaj1MNcZUrJeZnWW-1324" value="" style="whiteSpace=wrap;html=1;aspect=fixed;strokeWidth=0.5;strokeColor=#808080;fillColor=#000000;fontColor=#000099;" vertex="1" parent="1">
          <mxGeometry x="300" y="370" width="10" height="10" as="geometry" />
        </mxCell>
        <mxCell id="WxkMXaj1MNcZUrJeZnWW-1326" value="" style="whiteSpace=wrap;html=1;aspect=fixed;strokeWidth=0.5;strokeColor=#808080;fillColor=#000000;fontColor=#000099;" vertex="1" parent="1">
          <mxGeometry x="310" y="370" width="10" height="10" as="geometry" />
        </mxCell>
        <mxCell id="WxkMXaj1MNcZUrJeZnWW-1328" value="" style="whiteSpace=wrap;html=1;aspect=fixed;strokeWidth=0.5;strokeColor=#808080;fillColor=#000000;fontColor=#000099;" vertex="1" parent="1">
          <mxGeometry x="240" y="350" width="10" height="10" as="geometry" />
        </mxCell>
        <mxCell id="WxkMXaj1MNcZUrJeZnWW-1329" value="" style="whiteSpace=wrap;html=1;aspect=fixed;strokeWidth=0.5;strokeColor=#808080;fillColor=#000000;fontColor=#000099;" vertex="1" parent="1">
          <mxGeometry x="250" y="350" width="10" height="10" as="geometry" />
        </mxCell>
        <mxCell id="WxkMXaj1MNcZUrJeZnWW-1330" value="" style="whiteSpace=wrap;html=1;aspect=fixed;strokeWidth=0.5;strokeColor=#808080;fillColor=#333333;fontColor=#000099;" vertex="1" parent="1">
          <mxGeometry x="260" y="350" width="10" height="10" as="geometry" />
        </mxCell>
        <mxCell id="WxkMXaj1MNcZUrJeZnWW-1331" value="" style="whiteSpace=wrap;html=1;aspect=fixed;strokeWidth=0.5;strokeColor=#808080;fillColor=#666666;fontColor=#000099;" vertex="1" parent="1">
          <mxGeometry x="270" y="350" width="10" height="10" as="geometry" />
        </mxCell>
        <mxCell id="WxkMXaj1MNcZUrJeZnWW-1332" value="" style="whiteSpace=wrap;html=1;aspect=fixed;strokeWidth=0.5;strokeColor=#808080;fillColor=#999999;fontColor=#000099;" vertex="1" parent="1">
          <mxGeometry x="280" y="350" width="10" height="10" as="geometry" />
        </mxCell>
        <mxCell id="WxkMXaj1MNcZUrJeZnWW-1333" value="" style="whiteSpace=wrap;html=1;aspect=fixed;strokeWidth=0.5;strokeColor=#808080;fillColor=#B3B3B3;fontColor=#000099;" vertex="1" parent="1">
          <mxGeometry x="290" y="350" width="10" height="10" as="geometry" />
        </mxCell>
        <mxCell id="WxkMXaj1MNcZUrJeZnWW-1334" value="" style="whiteSpace=wrap;html=1;aspect=fixed;strokeWidth=0.5;strokeColor=#808080;fillColor=#000000;fontColor=#000099;" vertex="1" parent="1">
          <mxGeometry x="300" y="350" width="10" height="10" as="geometry" />
        </mxCell>
        <mxCell id="WxkMXaj1MNcZUrJeZnWW-1335" value="" style="whiteSpace=wrap;html=1;aspect=fixed;strokeWidth=0.5;strokeColor=#808080;fillColor=#000000;fontColor=#000099;" vertex="1" parent="1">
          <mxGeometry x="310" y="350" width="10" height="10" as="geometry" />
        </mxCell>
        <mxCell id="WxkMXaj1MNcZUrJeZnWW-1344" value="0" style="text;html=1;strokeColor=none;fillColor=none;align=center;verticalAlign=middle;whiteSpace=wrap;rounded=0;fontColor=#000099;fontSize=6;" vertex="1" parent="1">
          <mxGeometry x="230" y="360" width="10" height="10" as="geometry" />
        </mxCell>
        <mxCell id="WxkMXaj1MNcZUrJeZnWW-1345" value="1" style="text;html=1;strokeColor=none;fillColor=none;align=center;verticalAlign=middle;whiteSpace=wrap;rounded=0;fontColor=#000099;fontSize=6;" vertex="1" parent="1">
          <mxGeometry x="230" y="350" width="10" height="10" as="geometry" />
        </mxCell>
        <mxCell id="WxkMXaj1MNcZUrJeZnWW-1346" value="2" style="text;html=1;strokeColor=none;fillColor=none;align=center;verticalAlign=middle;whiteSpace=wrap;rounded=0;fontColor=#000099;fontSize=6;" vertex="1" parent="1">
          <mxGeometry x="230" y="340" width="10" height="10" as="geometry" />
        </mxCell>
        <mxCell id="WxkMXaj1MNcZUrJeZnWW-1347" value="3" style="text;html=1;strokeColor=none;fillColor=none;align=center;verticalAlign=middle;whiteSpace=wrap;rounded=0;fontColor=#000099;fontSize=6;" vertex="1" parent="1">
          <mxGeometry x="230" y="330" width="10" height="10" as="geometry" />
        </mxCell>
        <mxCell id="WxkMXaj1MNcZUrJeZnWW-1348" value="4" style="text;html=1;strokeColor=none;fillColor=none;align=center;verticalAlign=middle;whiteSpace=wrap;rounded=0;fontColor=#000099;fontSize=6;" vertex="1" parent="1">
          <mxGeometry x="230" y="320" width="10" height="10" as="geometry" />
        </mxCell>
        <mxCell id="WxkMXaj1MNcZUrJeZnWW-1349" value="5" style="text;html=1;strokeColor=none;fillColor=none;align=center;verticalAlign=middle;whiteSpace=wrap;rounded=0;fontColor=#000099;fontSize=6;" vertex="1" parent="1">
          <mxGeometry x="230" y="310" width="10" height="10" as="geometry" />
        </mxCell>
        <mxCell id="WxkMXaj1MNcZUrJeZnWW-1350" value="" style="whiteSpace=wrap;html=1;aspect=fixed;strokeWidth=0.5;strokeColor=#808080;fillColor=#000000;fontColor=#000099;" vertex="1" parent="1">
          <mxGeometry x="310" y="360" width="10" height="10" as="geometry" />
        </mxCell>
        <mxCell id="WxkMXaj1MNcZUrJeZnWW-1351" value="" style="whiteSpace=wrap;html=1;aspect=fixed;strokeWidth=0.5;strokeColor=#808080;fillColor=#666666;fontColor=#000099;" vertex="1" parent="1">
          <mxGeometry x="290" y="360" width="10" height="10" as="geometry" />
        </mxCell>
        <mxCell id="WxkMXaj1MNcZUrJeZnWW-1352" value="" style="whiteSpace=wrap;html=1;aspect=fixed;strokeWidth=0.5;strokeColor=#808080;fillColor=#666666;fontColor=#000099;" vertex="1" parent="1">
          <mxGeometry x="280" y="360" width="10" height="10" as="geometry" />
        </mxCell>
        <mxCell id="WxkMXaj1MNcZUrJeZnWW-1353" value="" style="whiteSpace=wrap;html=1;aspect=fixed;strokeWidth=0.5;strokeColor=#808080;fillColor=#000000;fontColor=#000099;" vertex="1" parent="1">
          <mxGeometry x="240" y="310" width="10" height="10" as="geometry" />
        </mxCell>
        <mxCell id="WxkMXaj1MNcZUrJeZnWW-1354" value="" style="whiteSpace=wrap;html=1;aspect=fixed;strokeWidth=0.5;strokeColor=#808080;fillColor=#666666;fontColor=#000099;" vertex="1" parent="1">
          <mxGeometry x="270" y="310" width="10" height="10" as="geometry" />
        </mxCell>
        <mxCell id="WxkMXaj1MNcZUrJeZnWW-1355" value="" style="whiteSpace=wrap;html=1;aspect=fixed;strokeWidth=0.5;strokeColor=#808080;fillColor=#666666;fontColor=#000099;" vertex="1" parent="1">
          <mxGeometry x="260" y="310" width="10" height="10" as="geometry" />
        </mxCell>
        <mxCell id="WxkMXaj1MNcZUrJeZnWW-1356" value="&lt;p style=&quot;line-height: 100%; font-size: 10px;&quot;&gt;&lt;font style=&quot;font-size: 10px;&quot;&gt;perfect fifth descending in 1 count&lt;/font&gt;&lt;/p&gt;" style="text;html=1;strokeColor=none;fillColor=none;align=center;verticalAlign=middle;whiteSpace=wrap;rounded=0;fontColor=#000099;" vertex="1" parent="1">
          <mxGeometry x="80" y="120" width="60" height="30" as="geometry" />
        </mxCell>
        <mxCell id="WxkMXaj1MNcZUrJeZnWW-1357" value="&lt;p style=&quot;line-height: 100%; font-size: 10px;&quot;&gt;perfect fourth descending in 1 count&lt;br&gt;&lt;/p&gt;" style="text;html=1;strokeColor=none;fillColor=none;align=center;verticalAlign=middle;whiteSpace=wrap;rounded=0;fontColor=#000099;" vertex="1" parent="1">
          <mxGeometry x="235" y="100" width="70" height="30" as="geometry" />
        </mxCell>
        <mxCell id="WxkMXaj1MNcZUrJeZnWW-1358" value="&lt;p style=&quot;line-height: 100%; font-size: 10px;&quot;&gt;major third descending in 1 count&lt;br&gt;&lt;/p&gt;" style="text;html=1;strokeColor=none;fillColor=none;align=center;verticalAlign=middle;whiteSpace=wrap;rounded=0;fontColor=#000099;" vertex="1" parent="1">
          <mxGeometry x="395" y="90" width="70" height="30" as="geometry" />
        </mxCell>
        <mxCell id="WxkMXaj1MNcZUrJeZnWW-1359" value="&lt;p style=&quot;line-height: 100%; font-size: 10px;&quot;&gt;&lt;font style=&quot;font-size: 10px;&quot;&gt;perfect fifth descending near 1 count&lt;/font&gt;&lt;/p&gt;" style="text;html=1;strokeColor=none;fillColor=none;align=center;verticalAlign=middle;whiteSpace=wrap;rounded=0;fontColor=#000099;" vertex="1" parent="1">
          <mxGeometry x="100" y="260" width="60" height="30" as="geometry" />
        </mxCell>
        <mxCell id="WxkMXaj1MNcZUrJeZnWW-1360" value="&lt;p style=&quot;line-height: 100%; font-size: 10px;&quot;&gt;&lt;font style=&quot;font-size: 10px;&quot;&gt;perfect fourth descending near 1 count&lt;/font&gt;&lt;/p&gt;" style="text;html=1;strokeColor=none;fillColor=none;align=center;verticalAlign=middle;whiteSpace=wrap;rounded=0;fontColor=#000099;" vertex="1" parent="1">
          <mxGeometry x="255" y="240" width="70" height="30" as="geometry" />
        </mxCell>
        <mxCell id="WxkMXaj1MNcZUrJeZnWW-1361" value="&lt;p style=&quot;line-height: 100%; font-size: 10px;&quot;&gt;&lt;font style=&quot;font-size: 10px;&quot;&gt;major third descending near 1 count&lt;/font&gt;&lt;/p&gt;" style="text;html=1;strokeColor=none;fillColor=none;align=center;verticalAlign=middle;whiteSpace=wrap;rounded=0;fontColor=#000099;" vertex="1" parent="1">
          <mxGeometry x="425" y="230" width="60" height="30" as="geometry" />
        </mxCell>
        <mxCell id="WxkMXaj1MNcZUrJeZnWW-1362" value="&lt;p style=&quot;line-height: 100%; font-size: 10px;&quot;&gt;&lt;font style=&quot;font-size: 10px;&quot;&gt;vague perfect cadence in 8 count bar&lt;/font&gt;&lt;/p&gt;" style="text;html=1;strokeColor=none;fillColor=none;align=center;verticalAlign=middle;whiteSpace=wrap;rounded=0;fontColor=#000099;" vertex="1" parent="1">
          <mxGeometry x="95" y="400" width="70" height="30" as="geometry" />
        </mxCell>
        <mxCell id="WxkMXaj1MNcZUrJeZnWW-1363" value="&lt;p style=&quot;line-height: 100%; font-size: 10px;&quot;&gt;&lt;font style=&quot;font-size: 10px;&quot;&gt;vague half cadence in 8 count bar&lt;/font&gt;&lt;/p&gt;" style="text;html=1;strokeColor=none;fillColor=none;align=center;verticalAlign=middle;whiteSpace=wrap;rounded=0;fontColor=#000099;" vertex="1" parent="1">
          <mxGeometry x="253" y="380" width="54" height="30" as="geometry" />
        </mxCell>
      </root>
    </mxGraphModel>
  </diagram>
</mxfile>
